<?xml version="1.0" standalone="no"?>
<!DOCTYPE svg PUBLIC "-//W3C//DTD SVG 20010904//EN"
 "http://www.w3.org/TR/2001/REC-SVG-20010904/DTD/svg10.dtd">
<svg version="1.0" xmlns="http://www.w3.org/2000/svg"
 width="1024.000000pt" height="1024.000000pt" viewBox="0 0 1024.000000 1024.000000"
 preserveAspectRatio="xMidYMid meet">
<metadata>
Created by potrace 1.14, written by Peter Selinger 2001-2017
</metadata>
<g transform="translate(0.000000,1024.000000) scale(0.100000,-0.100000)"
fill="#000000" stroke="none">
<path d="M0 5120 l0 -5120 5120 0 5120 0 0 5120 0 5120 -5120 0 -5120 0 0
-5120z m7880 3363 c59 -29 138 -105 796 -765 844 -846 789 -779 789 -963 0
-104 -2 -114 -33 -180 -31 -66 -71 -108 -760 -797 -673 -673 -732 -729 -792
-757 -83 -39 -139 -46 -228 -31 -129 21 -257 103 -305 194 -50 95 -50 94 -54
573 l-4 453 -3112 2 -3112 3 -55 26 c-81 38 -163 118 -202 197 l-33 67 0 245
0 245 31 66 c38 79 119 163 189 195 28 13 79 28 115 33 44 7 1045 11 3123 11
l3057 0 0 408 c0 429 6 504 44 587 63 137 224 227 396 222 73 -2 95 -7 150
-34z m-5229 -3247 c70 -22 120 -50 175 -99 61 -56 101 -132 114 -223 5 -38 10
-252 10 -476 l0 -408 3113 -2 3112 -3 67 -33 c79 -39 159 -120 197 -202 26
-54 26 -57 26 -300 l0 -245 -31 -65 c-38 -79 -120 -164 -189 -196 -27 -13 -79
-28 -115 -33 -44 -7 -1045 -11 -3122 -11 l-3058 0 0 -407 c0 -420 -6 -503 -41
-582 -82 -186 -355 -285 -544 -198 -54 25 -136 104 -783 750 -397 397 -736
743 -753 768 -45 70 -61 139 -57 238 3 72 8 97 36 156 31 66 70 107 760 796
734 734 752 751 857 786 47 15 157 10 226 -11z"/>
</g>
</svg>
