<?xml version="1.0" standalone="no"?>
<!DOCTYPE svg PUBLIC "-//W3C//DTD SVG 20010904//EN"
"http://www.w3.org/TR/2001/REC-SVG-20010904/DTD/svg10.dtd">
<svg version="1.0" xmlns="http://www.w3.org/2000/svg"
     width="498.000000pt" height="95.000000pt" viewBox="0 0 498.000000 95.000000"
     preserveAspectRatio="xMidYMid meet">
    
    <g transform="translate(0.000000,95.000000) scale(0.100000,-0.100000)"
       fill="#ffffff" stroke="#ffffff">
        <path d="M4436 919 c-162 -24 -309 -151 -357 -311 -17 -55 -21 -88 -17 -162 3
                 -83 8 -102 40 -167 63 -127 176 -219 307 -249 87 -20 207 -8 286 28 84 40 124
                 71 175 137 136 176 124 420 -28 586 -100 109 -251 161 -406 138z m206 -48 c76
                 -26 125 -59 185 -125 75 -82 97 -145 98 -276 0 -98 -2 -110 -32 -172 -41 -88
                 -110 -160 -187 -198 -199 -98 -430 -38 -546 142 -182 281 16 646 351 648 49 0
                 95 -7 131 -19z"/>
        <path d="M4359 601 c-69 -22 -99 -61 -99 -130 0 -91 58 -139 160 -133 32 3 86
                 45 76 61 -6 9 -16 6 -40 -9 -78 -47 -166 -5 -166 80 0 56 42 100 95 100 45 0
                 73 -27 130 -124 52 -89 74 -109 125 -108 129 2 174 168 68 246 -54 39 -178 15
                 -178 -35 0 -24 6 -24 37 1 67 53 168 4 168 -81 0 -78 -95 -129 -142 -76 -11
                 12 -40 54 -65 92 -69 108 -108 134 -169 116z"/>
        <path d="M1950 699 c-39 -16 -59 -39 -66 -75 -6 -31 -10 -34 -40 -34 -30 0
                 -34 -3 -34 -25 0 -22 4 -25 35 -25 l35 0 0 -165 0 -165 35 0 35 0 0 165 0 165
                 55 0 c52 0 55 1 55 25 0 24 -3 25 -55 25 -42 0 -55 3 -55 15 0 27 38 55 75 55
                 31 0 35 3 35 25 0 23 -4 25 -42 24 -24 0 -54 -5 -68 -10z"/>
        <path d="M30 615 c0 -24 2 -25 65 -25 l65 0 0 -190 0 -190 35 0 35 0 0 190 0
                 190 65 0 c63 0 65 1 65 25 l0 25 -165 0 -165 0 0 -25z"/>
        <path d="M2820 626 c0 -12 13 -58 96 -334 l26 -83 51 3 51 3 63 210 c34 116
                 63 211 63 213 0 2 -16 2 -37 0 l-36 -3 -51 -178 c-27 -97 -53 -174 -56 -170
                 -4 5 -29 86 -55 181 l-49 172 -33 0 c-21 0 -33 -5 -33 -14z"/>
        <path d="M370 400 l0 -190 35 0 35 0 0 139 c0 136 0 139 26 165 53 52 112 24
                 121 -59 5 -43 7 -45 39 -45 33 0 34 1 34 40 0 52 -21 103 -51 124 -33 22 -106
                 21 -146 -4 -33 -20 -33 -20 -33 0 0 16 -7 20 -30 20 l-30 0 0 -190z"/>
        <path d="M780 572 c-35 -17 -77 -80 -62 -93 4 -4 19 -11 34 -14 22 -6 29 -3
                 34 11 14 40 46 64 85 64 46 0 77 -25 85 -67 l7 -33 -54 -1 c-144 -1 -199 -31
                 -199 -109 0 -52 18 -88 51 -106 36 -18 137 -18 169 1 32 18 40 18 40 0 0 -10
                 10 -15 30 -15 l30 0 0 138 c0 110 -3 144 -18 172 -22 46 -72 70 -142 70 -32 0
                 -69 -7 -90 -18z m180 -226 c0 -52 -15 -71 -69 -86 -64 -17 -111 13 -111 69 0
                 42 34 61 110 61 l70 0 0 -44z"/>
        <path d="M1100 400 l0 -190 35 0 35 0 0 136 0 136 29 29 c38 38 82 39 110 3
                 19 -24 21 -40 21 -165 l0 -139 35 0 35 0 0 140 c0 152 -10 195 -51 224 -32 22
                 -106 20 -151 -3 -36 -20 -36 -20 -41 0 -3 13 -14 19 -31 19 l-26 0 0 -190z"/>
        <path d="M1512 575 c-66 -29 -75 -131 -15 -167 16 -9 57 -24 93 -33 78 -20
                 110 -39 110 -65 0 -48 -104 -68 -154 -29 -14 11 -26 29 -26 40 0 23 -27 25
                 -55 5 -18 -13 -18 -14 1 -47 31 -53 75 -71 166 -67 69 3 81 6 105 31 22 22 28
                 37 28 73 0 55 -19 74 -98 99 -130 41 -137 45 -137 75 0 36 23 50 80 50 44 0
                 90 -33 90 -65 0 -12 6 -15 23 -10 35 11 42 22 31 51 -16 47 -57 68 -137 71
                 -48 2 -83 -2 -105 -12z"/>
        <path d="M2163 570 c-51 -30 -66 -63 -71 -149 -5 -95 18 -159 70 -191 48 -30
                 166 -25 202 9 35 33 53 80 35 92 -22 13 -59 11 -59 -5 0 -7 -9 -25 -21 -40
                 -16 -21 -29 -26 -63 -26 -52 0 -84 29 -93 84 l-6 36 133 0 133 0 -7 57 c-8 72
                 -32 113 -76 135 -48 25 -136 24 -177 -2z m144 -45 c23 -16 48 -78 38 -95 -3
                 -6 -46 -10 -97 -10 l-91 0 6 36 c12 73 87 109 144 69z"/>
        <path d="M2470 400 l0 -190 35 0 35 0 0 139 c0 136 0 139 26 165 53 52 112 24
                 121 -59 5 -43 7 -45 39 -45 33 0 34 1 34 40 0 52 -21 103 -51 124 -33 22 -106
                 21 -146 -4 -33 -20 -33 -20 -33 0 0 16 -7 20 -30 20 l-30 0 0 -190z"/>
        <path d="M3259 567 c-50 -33 -69 -78 -69 -167 0 -89 19 -134 69 -167 48 -32
                 144 -32 192 0 51 34 64 69 64 167 0 98 -13 133 -64 167 -48 32 -144 32 -192 0z
                 m142 -37 c31 -17 49 -64 49 -130 0 -66 -18 -113 -49 -130 -33 -17 -78 -11
                 -108 14 -27 23 -28 28 -28 116 0 88 1 93 28 116 30 25 75 31 108 14z"/>
        <path d="M3551 569 c6 -12 31 -52 55 -90 24 -37 44 -73 44 -79 0 -6 -23 -44
                 -50 -85 -70 -103 -70 -105 -24 -105 38 0 40 2 82 75 24 41 45 75 47 75 2 0 25
                 -34 50 -75 46 -73 48 -75 87 -75 l40 0 -18 28 c-9 15 -37 57 -62 94 l-44 66
                 56 88 c31 48 56 92 56 97 0 4 -17 7 -37 5 -35 -3 -40 -7 -78 -75 -22 -40 -42
                 -73 -45 -73 -3 0 -25 34 -48 75 -43 73 -45 75 -83 75 -37 0 -39 -1 -28 -21z"/>
    </g>
</svg>
