<svg height="95pt" preserveAspectRatio="xMidYMid meet" viewBox="0 0 498 95" width="498pt" xmlns="http://www.w3.org/2000/svg"><g fill="#ffffff" stroke="#ffffff" transform="matrix(.1 0 0 -.1 0 95)"><path d="m4436 919c-162-24-309-151-357-311-17-55-21-88-17-162 3-83 8-102 40-167 63-127 176-219 307-249 87-20 207-8 286 28 84 40 124 71 175 137 136 176 124 420-28 586-100 109-251 161-406 138zm206-48c76-26 125-59 185-125 75-82 97-145 98-276 0-98-2-110-32-172-41-88-110-160-187-198-199-98-430-38-546 142-182 281 16 646 351 648 49 0 95-7 131-19z"/><path d="m4359 601c-69-22-99-61-99-130 0-91 58-139 160-133 32 3 86 45 76 61-6 9-16 6-40-9-78-47-166-5-166 80 0 56 42 100 95 100 45 0 73-27 130-124 52-89 74-109 125-108 129 2 174 168 68 246-54 39-178 15-178-35 0-24 6-24 37 1 67 53 168 4 168-81 0-78-95-129-142-76-11 12-40 54-65 92-69 108-108 134-169 116z"/><path d="m1950 699c-39-16-59-39-66-75-6-31-10-34-40-34s-34-3-34-25 4-25 35-25h35v-165-165h35 35v165 165h55c52 0 55 1 55 25s-3 25-55 25c-42 0-55 3-55 15 0 27 38 55 75 55 31 0 35 3 35 25 0 23-4 25-42 24-24 0-54-5-68-10z"/><path d="m30 615c0-24 2-25 65-25h65v-190-190h35 35v190 190h65c63 0 65 1 65 25v25h-165-165z"/><path d="m2820 626c0-12 13-58 96-334l26-83 51 3 51 3 63 210c34 116 63 211 63 213s-16 2-37 0l-36-3-51-178c-27-97-53-174-56-170-4 5-29 86-55 181l-49 172h-33c-21 0-33-5-33-14z"/><path d="m370 400v-190h35 35v139c0 136 0 139 26 165 53 52 112 24 121-59 5-43 7-45 39-45 33 0 34 1 34 40 0 52-21 103-51 124-33 22-106 21-146-4-33-20-33-20-33 0 0 16-7 20-30 20h-30z"/><path d="m780 572c-35-17-77-80-62-93 4-4 19-11 34-14 22-6 29-3 34 11 14 40 46 64 85 64 46 0 77-25 85-67l7-33-54-1c-144-1-199-31-199-109 0-52 18-88 51-106 36-18 137-18 169 1 32 18 40 18 40 0 0-10 10-15 30-15h30v138c0 110-3 144-18 172-22 46-72 70-142 70-32 0-69-7-90-18zm180-226c0-52-15-71-69-86-64-17-111 13-111 69 0 42 34 61 110 61h70z"/><path d="m1100 400v-190h35 35v136 136l29 29c38 38 82 39 110 3 19-24 21-40 21-165v-139h35 35v140c0 152-10 195-51 224-32 22-106 20-151-3-36-20-36-20-41 0-3 13-14 19-31 19h-26z"/><path d="m1512 575c-66-29-75-131-15-167 16-9 57-24 93-33 78-20 110-39 110-65 0-48-104-68-154-29-14 11-26 29-26 40 0 23-27 25-55 5-18-13-18-14 1-47 31-53 75-71 166-67 69 3 81 6 105 31 22 22 28 37 28 73 0 55-19 74-98 99-130 41-137 45-137 75 0 36 23 50 80 50 44 0 90-33 90-65 0-12 6-15 23-10 35 11 42 22 31 51-16 47-57 68-137 71-48 2-83-2-105-12z"/><path d="m2163 570c-51-30-66-63-71-149-5-95 18-159 70-191 48-30 166-25 202 9 35 33 53 80 35 92-22 13-59 11-59-5 0-7-9-25-21-40-16-21-29-26-63-26-52 0-84 29-93 84l-6 36h133 133l-7 57c-8 72-32 113-76 135-48 25-136 24-177-2zm144-45c23-16 48-78 38-95-3-6-46-10-97-10h-91l6 36c12 73 87 109 144 69z"/><path d="m2470 400v-190h35 35v139c0 136 0 139 26 165 53 52 112 24 121-59 5-43 7-45 39-45 33 0 34 1 34 40 0 52-21 103-51 124-33 22-106 21-146-4-33-20-33-20-33 0 0 16-7 20-30 20h-30z"/><path d="m3259 567c-50-33-69-78-69-167s19-134 69-167c48-32 144-32 192 0 51 34 64 69 64 167s-13 133-64 167c-48 32-144 32-192 0zm142-37c31-17 49-64 49-130s-18-113-49-130c-33-17-78-11-108 14-27 23-28 28-28 116s1 93 28 116c30 25 75 31 108 14z"/><path d="m3551 569c6-12 31-52 55-90 24-37 44-73 44-79s-23-44-50-85c-70-103-70-105-24-105 38 0 40 2 82 75 24 41 45 75 47 75s25-34 50-75c46-73 48-75 87-75h40l-18 28c-9 15-37 57-62 94l-44 66 56 88c31 48 56 92 56 97 0 4-17 7-37 5-35-3-40-7-78-75-22-40-42-73-45-73s-25 34-48 75c-43 73-45 75-83 75-37 0-39-1-28-21z"/></g></svg>