<?xml version="1.0" encoding="utf-8"?>
<!-- Generator: Adobe Illustrator 24.0.1, SVG Export Plug-In . SVG Version: 6.00 Build 0)  -->
<svg version="1.1" id="layer" xmlns="http://www.w3.org/2000/svg" xmlns:xlink="http://www.w3.org/1999/xlink" x="0px" y="0px"
	 viewBox="0 0 472 472" style="enable-background:new 0 0 472 472;" xml:space="preserve">
<style type="text/css">
	.st0{fill:none;stroke:#999999;stroke-width:8;stroke-miterlimit:10;}
	.st1{fill:#244E74;}
	.st2{fill:#FA6715;}
	.st3{fill:none;stroke:#FA6715;stroke-width:6;stroke-miterlimit:10;}
</style>
<title>ccpa-ready</title>
<circle class="st0" cx="236" cy="236" r="217.21"/>
<path class="st1" d="M142.78,304.19l18.83,5.7c-1.05,4.77-3.07,9.28-5.94,13.23c-2.66,3.46-6.14,6.2-10.11,8
	c-4,1.79-9.17,2.73-15.37,2.73c-7.53,0-13.72-1.09-18.48-3.27s-8.92-6.05-12.39-11.6s-5.21-12.59-5.21-21.21
	c0-11.5,3.08-20.32,9.17-26.51s14.77-9.27,26-9.27c8.72,0,15.61,1.78,20.62,5.3c5.01,3.52,8.72,9,11.15,16.31l-18.93,4.21
	c-0.43-1.66-1.14-3.23-2.08-4.66c-1.14-1.6-2.65-2.89-4.41-3.77c-1.81-0.91-3.82-1.37-5.85-1.34c-4.5-0.16-8.76,2.06-11.2,5.85
	c-2,2.93-2.93,7.49-2.93,13.68c0,7.68,1.19,13,3.52,15.81s5.6,4.26,9.86,4.26c4.26,0,7.19-1.14,9.32-3.47
	S141.84,308.6,142.78,304.19z"/>
<path class="st1" d="M218.26,304.19l18.83,5.7c-1.04,4.77-3.07,9.28-5.95,13.23c-2.66,3.46-6.13,6.21-10.11,8
	c-4,1.84-9.16,2.73-15.36,2.73c-7.53,0-13.73-1.09-18.48-3.27s-8.93-6.05-12.39-11.6s-5.21-12.59-5.21-21.21
	c0-11.5,3.06-20.34,9.17-26.51c6.1-6.2,14.77-9.27,26-9.27c8.72,0,15.61,1.78,20.61,5.3s8.73,9,11.16,16.31l-18.94,4.21
	c-0.42-1.66-1.13-3.24-2.08-4.66c-1.14-1.6-2.65-2.9-4.41-3.77c-1.81-0.91-3.82-1.37-5.85-1.34c-4.5-0.16-8.76,2.06-11.2,5.85
	c-2,2.93-2.92,7.49-2.92,13.68c0,7.68,1.19,13,3.52,15.81s5.6,4.26,9.86,4.26c4.11,0,7.19-1.14,9.32-3.47
	C215.78,312,217.32,308.6,218.26,304.19z"/>
<path class="st1" d="M247.4,263.16h35.68c7.78,0,13.58,1.83,17.44,5.55s5.8,9,5.8,15.76c0,7-2.13,12.49-6.34,16.45
	s-10.66,5.95-19.33,5.95h-11.74v25.77h-21.56v-69.48H247.4z M269,292.79h5.25c4.11,0,7-0.74,8.72-2.18c1.65-1.34,2.58-3.37,2.53-5.5
	c0.03-2.07-0.75-4.06-2.18-5.55c-1.44-1.53-4.16-2.28-8.18-2.28H269V292.79L269,292.79z"/>
<path class="st1" d="M352.07,321.19h-24.39l-3.37,11.45h-21.9l26.12-69.48h23.39L378,332.64h-22.5L352.07,321.19z M347.61,306.19
	l-7.69-25l-7.58,25H347.61z"/>
<polygon class="st2" points="170.29,167.81 218.01,218.31 324.51,114.58 295.32,88.42 221.68,164.39 198.68,137.38 "/>
<circle class="st3" cx="236" cy="236" r="232.33"/>
</svg>
