<svg xmlns="http://www.w3.org/2000/svg" width="124" height="24" viewBox="0 0 124 24" fill="none"><path d="M21.1355 4.62384C19.4319 4.62216 17.7852 5.24878 16.4989 6.38816C15.2126 7.52754 14.3735 9.10285 14.1363 10.8237V0.919661C14.1364 0.897976 14.1301 0.876771 14.1182 0.858792C14.1063 0.840812 14.0894 0.826886 14.0697 0.818815C14.05 0.810745 14.0283 0.808902 14.0075 0.813525C13.9868 0.818149 13.9678 0.829025 13.9532 0.844747L9.81917 5.18886C8.94818 4.8146 8.01241 4.62247 7.06729 4.62384C3.16599 4.62384 0 7.84153 0 11.8111C0 15.7806 3.16422 18.9983 7.06817 18.9983C8.77163 19 10.4183 18.3735 11.7045 17.2343C12.9908 16.0951 13.83 14.52 14.0673 12.7994V22.7025C14.0673 22.8 14.1832 22.8469 14.2496 22.7774L18.3845 18.4333C19.2552 18.8074 20.1907 18.9995 21.1355 18.9983C25.0386 18.9983 28.2028 15.7806 28.2028 11.8111C28.2028 7.84153 25.0386 4.62384 21.1355 4.62384Z" fill="#6C3DFF"></path><path fill-rule="evenodd" clip-rule="evenodd" d="M54.9098 1.61065C54.9098 2.03782 54.7434 2.4475 54.4473 2.74955C54.1512 3.05161 53.7495 3.2213 53.3308 3.2213C52.912 3.2213 52.5104 3.05161 52.2142 2.74955C51.9181 2.4475 51.7518 2.03782 51.7518 1.61065C51.7518 1.18348 51.9181 0.773804 52.2142 0.471749C52.5104 0.169693 52.912 0 53.3308 0C53.7495 0 54.1512 0.169693 54.4473 0.471749C54.7434 0.773804 54.9098 1.18348 54.9098 1.61065ZM73.4943 0.238732V18.765C73.4943 18.8625 73.5721 18.9411 73.6677 18.9411H75.8887C75.9114 18.9412 75.934 18.9367 75.9551 18.9279C75.9762 18.9191 75.9954 18.9062 76.0116 18.8899C76.0277 18.8735 76.0406 18.8541 76.0494 18.8327C76.0583 18.8113 76.0629 18.7883 76.063 18.765V0.238732C76.0625 0.192127 76.044 0.147593 76.0116 0.114806C75.9791 0.0820195 75.9352 0.0636293 75.8895 0.0636318H73.6677C73.6218 0.0636311 73.5779 0.0821454 73.5454 0.115127C73.5129 0.148108 73.4945 0.192873 73.4943 0.239634V0.238732ZM46.5657 6.73729V0.244147C46.5657 0.146669 46.6435 0.0672421 46.7391 0.0672421H48.9609C49.0565 0.0672421 49.1344 0.146669 49.1344 0.244147V18.7696C49.1344 18.8165 49.1161 18.8615 49.0836 18.8947C49.051 18.9278 49.0069 18.9465 48.9609 18.9465H46.74C46.7171 18.9466 46.6945 18.9421 46.6733 18.9333C46.6522 18.9244 46.633 18.9114 46.6168 18.895C46.6006 18.8785 46.5877 18.859 46.5789 18.8375C46.5702 18.8159 46.5657 18.7929 46.5657 18.7696V17.172C45.5003 18.4085 43.9907 19.1712 42.137 19.1712C38.3144 19.1712 35.2051 15.9346 35.2051 11.956C35.2051 7.97653 38.3144 4.73989 42.137 4.73989C43.9899 4.73989 45.5003 5.50166 46.5657 6.7382V6.73729ZM38.0224 11.956C38.0224 14.4616 39.8718 16.5005 42.2786 16.5005C44.6871 16.5005 46.3161 14.4607 46.3161 11.9551C46.3161 9.44954 44.6871 7.41062 42.2794 7.41062C39.8718 7.41062 38.0224 9.45044 38.0224 11.956ZM81.5437 6.73639C82.6091 5.49986 84.1186 4.73718 85.9724 4.73718C89.7949 4.73718 92.9043 7.97473 92.9043 11.9533C92.9043 15.9319 89.7949 19.1694 85.9724 19.1694C84.1195 19.1694 82.6091 18.4076 81.5437 17.1711V23.8231C81.5437 23.87 81.5255 23.915 81.4929 23.9482C81.4604 23.9814 81.4163 24 81.3703 24H79.1484C79.1025 24 79.0583 23.9814 79.0258 23.9482C78.9933 23.915 78.975 23.87 78.975 23.8231V5.29858C78.975 5.20111 79.052 5.12168 79.1484 5.12168H81.3694C81.4659 5.12168 81.5437 5.20111 81.5437 5.29858V6.73729V6.73639ZM81.7933 11.9533C81.7933 14.4598 83.4223 16.4987 85.8299 16.4987C88.2376 16.4987 90.087 14.4588 90.087 11.9533C90.087 9.44683 88.2376 7.40791 85.8308 7.40791C83.4223 7.40791 81.7933 9.44773 81.7933 11.9533ZM68.0144 6.7382V5.29858C68.0144 5.20111 68.0914 5.12168 68.1869 5.12168H70.4088C70.5052 5.12168 70.5822 5.20111 70.5822 5.29858V18.7705C70.5822 18.7937 70.5777 18.8167 70.569 18.8382C70.5603 18.8596 70.5475 18.8791 70.5314 18.8956C70.5153 18.912 70.4962 18.925 70.4752 18.9339C70.4541 18.9428 70.4316 18.9474 70.4088 18.9474H68.1878C68.165 18.9475 68.1423 18.943 68.1212 18.9342C68.1 18.9253 68.0808 18.9123 68.0646 18.8959C68.0484 18.8794 68.0356 18.8599 68.0268 18.8384C68.018 18.8168 68.0135 18.7938 68.0135 18.7705V17.1738C66.9482 18.4103 65.4386 19.173 63.5848 19.173C59.7623 19.173 56.6529 15.9355 56.6529 11.9569C56.6529 7.97744 59.7623 4.74079 63.5848 4.74079C65.4377 4.74079 66.9473 5.50257 68.0135 6.7391L68.0144 6.7382ZM59.4703 11.9551C59.4703 14.4616 61.3196 16.5005 63.7273 16.5005C66.135 16.5005 67.764 14.4607 67.764 11.9551C67.764 9.44954 66.1359 7.41062 63.7273 7.41062C61.3196 7.41062 59.4712 9.45044 59.4712 11.956L59.4703 11.9551ZM105.664 5.29768V6.7382C104.598 5.50166 103.088 4.73989 101.235 4.73989C97.4126 4.73989 94.3033 7.97653 94.3033 11.956C94.3033 15.9346 97.4126 19.1721 101.235 19.1721C103.088 19.1721 104.598 18.4094 105.664 17.1729V18.7705C105.664 18.8679 105.742 18.9465 105.837 18.9465H108.059C108.105 18.9465 108.149 18.9278 108.182 18.8947C108.214 18.8615 108.233 18.8165 108.233 18.7696V5.29858C108.233 5.25167 108.214 5.20667 108.182 5.17349C108.149 5.14032 108.105 5.12168 108.059 5.12168H105.837C105.791 5.12168 105.747 5.14032 105.715 5.17349C105.682 5.20667 105.664 5.25167 105.664 5.29858V5.29768ZM101.378 16.5005C98.9691 16.5005 97.1206 14.4616 97.1206 11.956C97.1206 9.44954 98.9691 7.41062 101.378 7.41062C103.785 7.41062 105.414 9.44954 105.414 11.9551C105.414 14.4616 103.785 16.5005 101.378 16.5005ZM121.306 0.244147V6.7382C120.241 5.50166 118.73 4.73989 116.878 4.73989C113.055 4.73989 109.946 7.97653 109.946 11.956C109.946 15.9346 113.055 19.1712 116.878 19.1712C118.73 19.1712 120.241 18.4094 121.306 17.1729V18.7696C121.306 18.867 121.384 18.9465 121.48 18.9465H123.701C123.747 18.9465 123.792 18.9278 123.824 18.8947C123.857 18.8615 123.875 18.8165 123.875 18.7696V0.244147C123.875 0.197229 123.857 0.152233 123.824 0.119056C123.792 0.0858802 123.747 0.0672421 123.701 0.0672421H121.48C121.434 0.0672421 121.39 0.0858802 121.357 0.119056C121.324 0.152233 121.306 0.197229 121.306 0.244147ZM117.02 16.5005C114.612 16.5005 112.763 14.4616 112.763 11.956C112.763 9.44954 114.612 7.41062 117.02 7.41062C119.428 7.41062 121.057 9.44954 121.057 11.9551C121.057 14.4616 119.428 16.5005 117.02 16.5005ZM52.0464 18.765V5.29768C52.0464 5.2002 52.1243 5.12078 52.2198 5.12078H54.4417C54.5373 5.12078 54.6151 5.2002 54.6151 5.29768V18.7641C54.6151 18.8111 54.5969 18.8561 54.5643 18.8892C54.5318 18.9224 54.4877 18.9411 54.4417 18.9411H52.2198C52.174 18.9411 52.13 18.9225 52.0975 18.8896C52.065 18.8566 52.0466 18.8118 52.0464 18.765Z" fill="#6C3DFF"></path></svg>