<svg xmlns="http://www.w3.org/2000/svg" xmlns:xlink="http://www.w3.org/1999/xlink" width="201" height="61" viewBox="0 0 201 61">
    <defs>
        <path id="b5yi8ezl3a" d="M0 0L172.619 0 172.619 55.946 0 55.946z"/>
    </defs>
    <g fill="none" fill-rule="evenodd">
        <g>
            <g>
                <g transform="translate(-598 -2267) translate(600.222 2267.685) translate(2.455 2.027)">
                    <mask id="h8tec3tilb" fill="#fff">
                        <use xlink:href="#b5yi8ezl3a"/>
                    </mask>
                    <path fill="#00305C" d="M171.013 26.632c-1.756-.876-5.173-.147-7.87 1.144-2.698 1.292-5.358 3.876-5.358 3.876 1.81-2.879 2.29-6.2-.665-6.68-2.956-.48-4.561 2.579-6.048 6.344-1.486 3.765-4.035 8.432-4.035 8.432-2.336 3.871-6.44 7.595-9.772 8.97-3.332 1.375-6.374.905-7.932-.832-1.557-1.737-.87-4.559-.87-4.559s2.899 2.714 7.897.832c4.998-1.881 8.258-6.367 9.163-9.623.906-3.256.471-6.187-1.955-8.502-2.427-2.316-6.34-2.352-9.743-.832-3.405 1.519-5.94 4.667-5.94 4.667-1.848.253-7.86.18-11.265-1.628-3.405-1.809-5.212-2.135-6.457-1.047-1.392 1.215-1.038 3.064-.04 4.462 1.056 1.48 3.325 2.696 3.325 2.696-2.988 8.52-7.036 14.393-9.445 13.864-2.41-.53-2.12-3.498-1.8-7.188.321-3.688 2.088-8.34 2.088-8.34 5.7-6.736 11.78-17.987 13.447-22.566 1.668-4.579 1.485-7.335-.364-8.481-1.43-.888-3.442-.924-5.887 1.404-2.573 2.45-6.042 8.482-7.918 13.27-1.875 4.786-3.699 10.822-3.699 10.822-5.365 2.81-10.418.781-12.398-.26-1.98-1.04-3.959-1.821-5.365-.624-1.407 1.196-.99 2.966.104 4.631s3.386 2.602 3.386 2.602-2.605 6.504-4.74 9.99c-2.137 3.487-4.428 5.151-5.783 4.84-1.354-.313-2.136-1.405-2.24-5.62-.104-4.215 1.98-10.46 1.98-10.46 4.74-5.567 8.842-12.553 11.328-18.12 2.485-5.568 2.673-10.685-.151-12.303-2.825-1.617-5.989 1.317-8.248 4.553-2.26 3.235-4.407 8.05-6.027 12.189-1.62 4.138-3.39 11.21-4.105 13.468-.716 2.257-2.298 6.772-4.067 9.706-1.77 2.935-3.955 6.998-5.763 6.546-1.808-.451-.791-4.214-.15-6.508.64-2.295 2.794-6.942 3.464-8.54.822-1.958 2.612-3.992 1.808-6.02-.62-1.564-2.742-2.286-4.896-1.166-2.467 1.283-3.525 4.328-4.708 7.298-.93 2.333-2.863 7.374-4.444 10.722-1.582 3.349-4.03 5.155-5.876 4.892-1.845-.264-2.975-2.71-2.41-6.095.565-3.386 1.996-7.11 3.05-9.33 1.055-2.22 2.448-4.364 2.335-5.982-.112-1.618-1.885-2.972-4.309-2.24-2.864.863-4.542 5.438-5.483 7.77C35.22 35.41 33.45 40 31.605 43.498c-1.846 3.5-3.993 5.305-5.16 5.004-1.168-.3-1.394-2.107-.866-4.627.527-2.52 2.07-6.697 3.427-10.045 1.356-3.348 7.118-14.854 10.32-21.331 3.307-6.69 3.75-10.95.98-12.19-2.819-1.26-5.85 1.556-7.76 4.515-1.75 2.71-3.54 6.509-5.235 10.872-1.695 4.365-3.023 8.95-3.023 8.95s-4.262-.593-9.016 1.136c-4.754 1.729-9.91 4.107-13.42 11.39-3.428 7.11-2.229 16.082 4.705 18.2 5.468 1.672 10.405-.453 13.498-4.457 0 0 1.577 3.696 6.132 3.881 3.56.145 6.695-2.245 8.428-5.097 0 0 .425 1.736 1.866 3.175 1.442 1.44 3.954 3.211 8.351 2.362 4.397-.848 6.946-4.576 6.946-4.576s.961 3.912 4.914 4.207c5.548.415 10.125-7.528 10.125-7.528.221 3.653 2.142 7.64 7.426 8.267 5.284.627 9.607-4.577 12.674-8.858 3.066-4.281 5.21-11.515 5.21-11.515 1.92.184 3.88.074 3.88.074s-1.294 6.495-.85 10.814c.443 4.318 3.03 9.263 8.239 9.263 5.21 0 8.72-3.654 11.972-8.34 3.251-4.688 4.84-10.593 4.84-10.593 1.219.221 3.62.332 3.62.332-1.514 2.436-2.222 7.726-1.514 11.035.739 3.452 3.647 8.315 10.345 8.009 6.434-.294 10.05-4.17 10.05-4.17-.184 1.771.666 2.915 2.18 3.247 1.516.332 2.457-.184 3.326-1.55 1.075-1.69 1.552-3.912 3.289-7.012 1.736-3.1 3.953-6.644 7.316-9.08 3.362-2.435 8.017-3.8 9.2-4.096 1.182-.295 3.106-.863 3.953-1.956.919-1.186 1.067-3.565-.96-4.577m-39.715 9.546c.478-1.16 1.458-2.39 2.074-3.141 1.537-1.877 4.147-3.893 5.766-2.709 1.618 1.184.501 4.098-1.322 5.919-1.824 1.82-4.125 2.686-5.584 2.276-1.458-.41-1.413-1.184-.934-2.345m-114.402 8.99c-2.151 2.978-4.08 3.958-6.113 3.996-1.85.033-3.313-1.435-3.434-3.694-.099-1.854.264-6.069 4.642-10.328 4.376-4.259 10.388-4.257 10.388-4.257-1.505 6.796-3.332 11.306-5.483 14.283" mask="url(#h8tec3tilb)"/>
                </g>
            </g>
        </g>
    </g>
</svg>
