<?xml version="1.0" encoding="utf-8"?>
<!-- Generator: Adobe Illustrator 16.0.0, SVG Export Plug-In . SVG Version: 6.00 Build 0)  -->
<!DOCTYPE svg PUBLIC "-//W3C//DTD SVG 1.1//EN" "http://www.w3.org/Graphics/SVG/1.1/DTD/svg11.dtd">
<svg version="1.1" id="Layer_1" xmlns="http://www.w3.org/2000/svg" xmlns:xlink="http://www.w3.org/1999/xlink" x="0px" y="0px"
	 width="1604.38px" height="267.039px" viewBox="0 0 1604.38 267.039" enable-background="new 0 0 1604.38 267.039"
	 xml:space="preserve">
<polygon fill="#494949" points="365.46,215.248 365.46,46.639 455.765,46.639 455.765,68.399 387.309,68.399 387.309,119.686 
	455.765,119.686 455.765,141.534 387.309,141.534 387.309,193.718 455.765,193.718 455.765,215.248 "/>
<polygon fill="#494949" points="1203.26,215.248 1203.26,46.639 1293.564,46.639 1293.564,68.399 1225.109,68.399 1225.109,119.686 
	1293.564,119.686 1293.564,141.534 1225.109,141.534 1225.109,193.718 1293.564,193.718 1293.564,215.248 "/>
<rect x="1424.55" y="46.638" fill="#494949" width="21.732" height="168.609"/>
<polygon fill="#494949" points="908.161,215.248 908.161,46.639 930.039,46.639 930.039,193.718 987.287,193.718 987.287,215.248 
	"/>
<g>
	<defs>
		<rect id="SVGID_1_" width="1604.381" height="267.039"/>
	</defs>
	<clipPath id="SVGID_2_">
		<use xlink:href="#SVGID_1_"  overflow="visible"/>
	</clipPath>
	<path clip-path="url(#SVGID_2_)" fill="#494949" d="M772.312,215.247c-24.117,0-44.64-8.594-60.996-25.547
		c-16.348-16.912-24.637-38.109-24.637-63.004c0-11.7,2.273-22.992,6.756-33.562c4.49-10.585,11.088-20.197,19.61-28.572
		c8.203-8.053,17.374-14.204,27.263-18.284c9.914-4.075,20.758-6.139,32.235-6.139c11.735,0,22.772,2.084,32.807,6.193
		c10.057,4.149,19.336,10.359,27.587,18.461c8.494,8.318,14.999,17.822,19.329,28.245c4.307,10.406,6.489,21.729,6.489,33.658
		c0,11.843-1.868,22.88-5.552,32.805c-3.693,9.976-9.308,19.154-16.688,27.277c-8.509,9.372-18.28,16.535-29.043,21.291
		C796.729,212.832,784.897,215.247,772.312,215.247 M772.312,61.467c-7.188,0-14.17,1.232-20.751,3.663
		c-6.63,2.448-12.83,6.098-18.43,10.847c-7.382,6.252-13.282,14.019-17.541,23.088c-4.226,9.003-6.37,18.378-6.37,27.863
		c0,18.98,6.24,35.082,18.547,47.856c12.254,12.775,27.618,19.25,45.672,19.25c17.6,0,32.656-6.536,44.75-19.425
		c12.191-12.963,18.371-29.161,18.371-48.144c0-17.609-6.351-33.015-18.876-45.787C805.211,67.93,789.947,61.467,772.312,61.467"/>
	<path clip-path="url(#SVGID_2_)" fill="#494949" d="M1503.101,215.247V46.637h37.426c10.165,0,18.12,0.525,24.322,1.604
		c6.28,1.096,11.606,2.906,15.835,5.377c7.597,4.592,13.49,10.616,17.557,17.924c4.074,7.322,6.141,15.636,6.141,24.71
		c0,8.623-1.85,16.713-5.501,24.045c-3.651,7.364-8.862,13.328-15.485,17.725c-4.611,3.104-10.155,5.376-16.466,6.739
		c-6.224,1.348-14.164,2.029-23.602,2.029h-18.494v68.456H1503.101z M1545.552,124.683c12.406,0,21.589-2.306,27.29-6.853
		c5.607-4.469,8.333-11.31,8.333-20.913c0-9.894-2.823-17.164-8.391-21.608c-5.737-4.605-15.345-6.939-28.561-6.939h-19.391v56.313
		H1545.552z"/>
	<polygon clip-path="url(#SVGID_2_)" fill="#494949" points="577.36,215.248 513.78,46.638 535.949,46.638 585.509,180.054 
		635.295,46.638 657.458,46.638 593.997,215.248 	"/>
	<polygon clip-path="url(#SVGID_2_)" fill="#494949" points="1081.781,215.248 1018.201,46.638 1040.371,46.638 1089.932,180.054 
		1139.718,46.638 1161.879,46.638 1098.418,215.248 	"/>
	<polygon clip-path="url(#SVGID_2_)" fill="#F47920" points="0.909,173.505 42.85,146.228 62.779,159.188 40.769,173.505 
		144.711,241.113 248.651,173.505 144.71,105.897 122.705,120.213 102.776,107.25 144.711,79.972 288.513,173.505 144.711,267.039 	
		"/>
	<polygon clip-path="url(#SVGID_2_)" fill="#0451A1" points="0,93.529 143.797,0 287.599,93.53 245.658,120.809 225.728,107.847 
		247.742,93.527 143.801,25.92 39.861,93.525 143.804,161.134 165.809,146.821 185.738,159.782 143.801,187.063 	"/>
</g>
</svg>
