<?xml version="1.0" encoding="utf-8"?>
<!-- Generator: Adobe Illustrator 24.0.1, SVG Export Plug-In . SVG Version: 6.00 Build 0)  -->
<svg version="1.1" id="layer" xmlns="http://www.w3.org/2000/svg" xmlns:xlink="http://www.w3.org/1999/xlink" x="0px" y="0px"
	 viewBox="0 0 472 472" style="enable-background:new 0 0 472 472;" xml:space="preserve">
<style type="text/css">
	.st0{fill:#1F4EDA;}
	.st1{fill:none;stroke:#000000;stroke-width:0.71;stroke-linecap:round;stroke-linejoin:round;}
	.st2{fill:#FFF200;}
	.st3{enable-background:new    ;}
	.st4{fill:#FFFFFF;}
</style>
<title>gdpr-ready</title>
<g id="LWPOLYLINE">
	<circle class="st0" cx="236" cy="236" r="235.35"/>
</g>
<g id="LWPOLYLINE-2">
	<polygon class="st1" points="236,75.04 219.83,86.82 225.97,67.81 209.81,56.03 229.81,56.03 236,37.03 242.19,56.03 262.19,56.03 
		245.98,67.81 252.17,86.82 	"/>
</g>
<g id="LWPOLYLINE-3">
	<polygon class="st2" points="163.9,95.5 147.69,107.28 153.88,88.26 137.71,76.49 157.72,76.49 163.9,57.48 170.09,76.49 
		190.1,76.49 173.88,88.26 180.07,107.28 	"/>
</g>
<g id="LWPOLYLINE-4">
	<polygon class="st2" points="103.58,143.4 87.42,155.17 93.6,136.16 77.39,124.39 97.4,124.39 103.58,105.38 109.77,124.39 
		129.78,124.39 113.61,136.16 119.8,155.17 	"/>
</g>
<g id="LWPOLYLINE-5">
	<polygon class="st2" points="62.62,211.25 46.41,223.03 52.59,204.02 36.43,192.24 56.43,192.24 62.62,173.23 68.76,192.24 
		88.76,192.24 72.6,204.02 78.79,223.03 	"/>
</g>
<g id="LWPOLYLINE-6">
	<polygon class="st2" points="103.58,338.88 87.42,327.11 93.6,346.12 77.39,357.89 97.4,357.89 103.58,376.9 109.77,357.89 
		129.78,357.89 113.61,346.12 119.8,327.11 	"/>
</g>
<g id="LWPOLYLINE-7">
	<polygon class="st2" points="62.62,270.53 46.41,258.75 52.59,277.76 36.43,289.54 56.43,289.54 62.62,308.55 68.76,289.54 
		88.76,289.54 72.6,277.76 78.79,258.75 	"/>
</g>
<g id="LWPOLYLINE-8">
	<polygon class="st2" points="236,75.04 252.17,86.82 245.98,67.81 262.19,56.03 242.19,56.03 236,37.03 229.81,56.03 209.81,56.03 
		225.97,67.81 219.83,86.82 	"/>
</g>
<g id="LWPOLYLINE-9">
	<polygon class="st2" points="308.1,95.5 324.31,107.28 318.13,88.26 334.29,76.49 314.28,76.49 308.1,57.48 301.91,76.49 
		281.9,76.49 298.12,88.26 291.93,107.28 	"/>
</g>
<g id="LWPOLYLINE-10">
	<polygon class="st2" points="368.42,143.4 384.58,155.17 378.4,136.16 394.61,124.39 374.6,124.39 368.42,105.38 362.23,124.39 
		342.22,124.39 358.39,136.16 352.2,155.17 	"/>
</g>
<g id="LWPOLYLINE-11">
	<polygon class="st2" points="409.38,211.25 425.6,223.03 419.41,204.02 435.57,192.24 415.57,192.24 409.38,173.23 403.24,192.24 
		383.24,192.24 399.4,204.02 393.21,223.03 	"/>
</g>
<g id="LWPOLYLINE-12">
	<polygon class="st2" points="368.42,338.88 384.58,327.11 378.4,346.12 394.61,357.89 374.6,357.89 368.42,376.9 362.23,357.89 
		342.22,357.89 358.39,346.12 352.2,327.11 	"/>
</g>
<g id="LWPOLYLINE-13">
	<polygon class="st2" points="409.38,270.53 425.6,258.75 419.41,277.76 435.57,289.54 415.57,289.54 409.38,308.55 403.24,289.54 
		383.24,289.54 399.4,277.76 393.21,258.75 	"/>
</g>
<g class="st3">
	<path class="st4" d="M163.97,411.88c-0.4,0.59-0.87,1.15-1.43,1.68c-0.56,0.53-1.21,0.99-1.94,1.39s-1.55,0.72-2.43,0.95
		c-0.89,0.23-1.86,0.35-2.91,0.35c-1.75,0-3.38-0.31-4.87-0.92c-1.49-0.61-2.77-1.46-3.85-2.55c-1.08-1.09-1.91-2.37-2.52-3.87
		c-0.6-1.49-0.9-3.13-0.9-4.9s0.31-3.41,0.92-4.9c0.61-1.49,1.46-2.78,2.55-3.87c1.09-1.09,2.37-1.94,3.85-2.55s3.09-0.92,4.82-0.92
		c0.86,0,1.69,0.09,2.52,0.27c0.82,0.18,1.6,0.43,2.32,0.75c0.72,0.32,1.38,0.71,1.97,1.16c0.59,0.45,1.09,0.96,1.48,1.53
		l-1.97,1.45c-0.24-0.37-0.56-0.75-0.97-1.12c-0.41-0.37-0.88-0.7-1.43-0.99c-0.55-0.28-1.15-0.51-1.79-0.69s-1.34-0.26-2.09-0.26
		c-1.51,0-2.87,0.27-4.06,0.82c-1.2,0.55-2.21,1.29-3.04,2.21c-0.83,0.93-1.47,2.01-1.91,3.23c-0.44,1.22-0.66,2.51-0.66,3.87
		s0.22,2.65,0.67,3.87c0.45,1.22,1.09,2.3,1.92,3.23c0.83,0.93,1.85,1.67,3.04,2.21c1.19,0.55,2.54,0.82,4.03,0.82
		c1.34,0,2.61-0.27,3.82-0.82c1.21-0.55,2.21-1.43,3.03-2.63L163.97,411.88z"/>
	<path class="st4" d="M190.68,404.01c0,1.78-0.31,3.41-0.92,4.9s-1.46,2.78-2.55,3.87c-1.09,1.09-2.37,1.94-3.85,2.55
		c-1.48,0.61-3.09,0.92-4.82,0.92c-1.73,0-3.34-0.31-4.82-0.92c-1.48-0.61-2.76-1.46-3.85-2.55c-1.09-1.09-1.94-2.37-2.55-3.87
		c-0.61-1.49-0.92-3.13-0.92-4.9s0.31-3.41,0.92-4.9c0.61-1.49,1.46-2.78,2.55-3.87c1.09-1.09,2.37-1.94,3.85-2.55
		s3.09-0.92,4.82-0.92c1.73,0,3.34,0.31,4.82,0.92s2.76,1.46,3.85,2.55c1.09,1.08,1.94,2.37,2.55,3.87
		C190.37,400.6,190.68,402.24,190.68,404.01z M188.18,404.03c0-1.36-0.22-2.65-0.66-3.88c-0.44-1.23-1.08-2.3-1.91-3.24
		c-0.83-0.93-1.85-1.67-3.04-2.22c-1.2-0.55-2.54-0.82-4.03-0.82c-1.49,0-2.83,0.27-4.03,0.82c-1.2,0.55-2.21,1.29-3.04,2.22
		c-0.83,0.93-1.47,2.01-1.91,3.24c-0.44,1.23-0.66,2.52-0.66,3.88s0.22,2.65,0.66,3.88c0.44,1.23,1.07,2.3,1.91,3.22
		c0.83,0.92,1.85,1.65,3.04,2.2c1.2,0.55,2.54,0.82,4.03,0.82c1.49,0,2.83-0.27,4.03-0.82c1.2-0.55,2.21-1.28,3.04-2.2
		c0.83-0.92,1.47-1.99,1.91-3.22C187.96,406.68,188.18,405.39,188.18,404.03z"/>
	<path class="st4" d="M207.13,411.65h0.03l7.8-19.28h3.62v23.29h-2.37v-20.23h-0.07l-8.42,20.23h-1.25l-8.42-20.23h-0.07v20.23
		h-2.37v-23.29h3.62L207.13,411.65z"/>
	<path class="st4" d="M224.77,392.37h6.58c1.18,0,2.26,0.13,3.22,0.38c0.96,0.25,1.79,0.64,2.48,1.15c0.69,0.52,1.22,1.16,1.6,1.94
		c0.37,0.78,0.56,1.69,0.56,2.75s-0.19,1.97-0.58,2.75c-0.38,0.78-0.92,1.43-1.61,1.94c-0.69,0.52-1.52,0.9-2.5,1.17
		c-0.98,0.26-2.06,0.39-3.24,0.39h-4.15v10.82h-2.37V392.37z M227.13,402.83h4.01c1.86,0,3.28-0.36,4.24-1.09
		c0.96-0.72,1.45-1.78,1.45-3.16c0-1.45-0.5-2.51-1.5-3.17s-2.4-1-4.19-1h-4.01V402.83z"/>
	<path class="st4" d="M246.22,413.55h10.86v2.11h-13.23v-23.29h2.37V413.55z"/>
	<path class="st4" d="M262.99,415.66h-2.37v-23.29h2.37V415.66z"/>
	<path class="st4" d="M269.01,415.66h-2.6l10.07-23.29h2.3l10,23.29h-2.63l-2.57-6.12h-12.04L269.01,415.66z M272.44,407.37h10.26
		L277.57,395L272.44,407.37z"/>
	<path class="st4" d="M308.72,412.21h0.07v-19.84h2.37v23.29h-2.96l-13.55-20.04h-0.07v20.04h-2.37v-23.29h2.96L308.72,412.21z"/>
	<path class="st4" d="M324.81,415.66h-2.37v-21.19h-7.8v-2.11h17.96v2.11h-7.8V415.66z"/>
</g>
<g class="st3">
	<path class="st4" d="M198.25,372.5c-1.96,0.48-4.1,0.72-6.41,0.72c-2.4,0-4.6-0.38-6.62-1.14c-2.02-0.76-3.75-1.83-5.2-3.21
		c-1.45-1.38-2.59-3.04-3.41-4.97s-1.23-4.08-1.23-6.45c0-2.4,0.42-4.57,1.25-6.51c0.83-1.95,1.98-3.6,3.45-4.97
		c1.47-1.37,3.19-2.42,5.16-3.15c1.97-0.73,4.1-1.1,6.39-1.1c2.37,0,4.57,0.36,6.6,1.08c2.03,0.72,3.68,1.69,4.95,2.9l-4.57,5.2
		c-0.71-0.82-1.64-1.49-2.79-2.01c-1.16-0.52-2.47-0.78-3.93-0.78c-1.27,0-2.44,0.23-3.51,0.7c-1.07,0.47-2,1.11-2.79,1.95
		c-0.79,0.83-1.4,1.82-1.84,2.96c-0.44,1.14-0.66,2.39-0.66,3.74c0,1.38,0.2,2.65,0.59,3.81c0.39,1.16,0.98,2.15,1.76,2.98
		c0.78,0.83,1.73,1.48,2.88,1.95c1.14,0.46,2.45,0.7,3.91,0.7c0.85,0,1.65-0.06,2.41-0.19c0.76-0.13,1.47-0.33,2.12-0.61v-5.46
		h-5.71v-5.84h12.35v15.86C201.92,371.4,200.2,372.02,198.25,372.5z"/>
	<path class="st4" d="M237.27,357.4c0,2.62-0.49,4.89-1.46,6.79c-0.97,1.9-2.26,3.47-3.85,4.7c-1.59,1.23-3.39,2.13-5.39,2.71
		c-2,0.58-4.03,0.87-6.09,0.87h-11.17v-29.95h10.83c2.12,0,4.2,0.25,6.26,0.74c2.06,0.49,3.89,1.31,5.5,2.45
		c1.61,1.14,2.9,2.67,3.89,4.59C236.77,352.21,237.27,354.58,237.27,357.4z M229.74,357.4c0-1.69-0.28-3.09-0.83-4.21
		c-0.55-1.11-1.28-2-2.2-2.67c-0.92-0.66-1.96-1.13-3.13-1.42c-1.17-0.28-2.38-0.42-3.62-0.42h-3.6v17.51h3.43
		c1.3,0,2.54-0.15,3.74-0.44c1.2-0.3,2.26-0.78,3.17-1.46s1.65-1.58,2.2-2.71S229.74,359.07,229.74,357.4z"/>
	<path class="st4" d="M264.76,351.73c0,1.75-0.33,3.22-0.97,4.42c-0.65,1.2-1.52,2.17-2.62,2.9c-1.1,0.73-2.37,1.27-3.81,1.61
		c-1.44,0.34-2.93,0.51-4.48,0.51h-3.6v11.29h-7.23v-29.95h11c1.64,0,3.17,0.16,4.59,0.49c1.42,0.32,2.67,0.85,3.72,1.57
		c1.06,0.72,1.89,1.66,2.5,2.83S264.76,350.01,264.76,351.73z M257.53,351.78c0-0.71-0.14-1.28-0.42-1.73s-0.66-0.8-1.14-1.06
		s-1.02-0.42-1.63-0.51c-0.61-0.08-1.23-0.13-1.88-0.13h-3.17v7.06h3.05c0.68,0,1.33-0.06,1.95-0.17s1.18-0.31,1.67-0.59
		c0.49-0.28,0.88-0.66,1.16-1.12C257.39,353.07,257.53,352.48,257.53,351.78z"/>
	<path class="st4" d="M285.15,372.46l-6.5-11.89h-2.46v11.89h-7.06v-29.95h11.42c1.44,0,2.84,0.15,4.21,0.44
		c1.37,0.3,2.59,0.8,3.68,1.5c1.08,0.71,1.95,1.64,2.6,2.79c0.65,1.16,0.97,2.59,0.97,4.31c0,2.03-0.55,3.74-1.65,5.12
		c-1.1,1.38-2.62,2.37-4.57,2.96l7.83,12.82H285.15z M284.85,351.69c0-0.7-0.15-1.28-0.45-1.71c-0.3-0.44-0.68-0.78-1.15-1.02
		c-0.47-0.24-0.99-0.4-1.57-0.49c-0.58-0.08-1.14-0.13-1.68-0.13h-3.87v6.98h3.44c0.59,0,1.2-0.05,1.83-0.15
		c0.62-0.1,1.19-0.28,1.7-0.53c0.51-0.25,0.93-0.62,1.25-1.1C284.69,353.07,284.85,352.45,284.85,351.69z"/>
</g>
<path class="st4" d="M284.42,196.14h-12.11V178.5c0.01-20.05-16.24-36.32-36.29-36.33s-36.32,16.24-36.33,36.29
	c0,0.01,0,0.02,0,0.04v17.64h-12.11c-4.01,0-7.26,3.25-7.26,7.26l0,0v87.15c-0.01,4.01,3.24,7.26,7.25,7.27h0.01h96.84
	c4.01,0,7.26-3.25,7.26-7.26v-0.01V203.4C291.68,199.39,288.43,196.14,284.42,196.14z M214.21,178.5
	c0.01-12.03,9.77-21.78,21.81-21.77c12.02,0.01,21.76,9.75,21.77,21.77v17.64h-43.58V178.5z M256.57,241.82L236,262.4
	c-2.83,2.84-7.42,2.84-10.25,0.02c-0.01-0.01-0.01-0.01-0.02-0.02l-10.29-10.29c-2.84-2.84-2.84-7.43,0-10.27s7.43-2.84,10.27,0
	l5.16,5.15l15.44-15.44c2.84-2.84,7.43-2.84,10.27,0c2.84,2.84,2.84,7.43,0,10.27L256.57,241.82z"/>
</svg>
