<?xml version="1.0" encoding="utf-8"?>
<!-- Generator: Adobe Illustrator 19.2.1, SVG Export Plug-In . SVG Version: 6.00 Build 0)  -->
<svg version="1.1" id="layer" xmlns="http://www.w3.org/2000/svg" xmlns:xlink="http://www.w3.org/1999/xlink" x="0px" y="0px"
	 viewBox="0 0 652 652" style="enable-background:new 0 0 652 652;" xml:space="preserve">
<style type="text/css">
	.st0{fill:#3BB44A;}
	.st1{fill:#FFFFFF;}
</style>
<path d="M159.7,371.5c-18.7,0-25.8-11.2-25.8-27.7v-10.1c0-16.1,7.1-27.7,26.2-27.7c6.4,0,12.7,1.5,17.2,5.2
	c1.1,1.1,1.5,2.2,1.5,2.6c0,1.5-1.5,3.7-4.1,3.7c-1.5,0-2.6-0.4-4.1-1.5c-2.6-2.2-6.4-2.6-10.9-2.6c-11.6,0-17.2,7.1-17.2,21v10.1
	c0,14.6,4.9,21,16.5,21c10.9,0,15-6,15-14.6v-4.9h-12.4c-2.2,0-4.1-1.5-4.1-3.7s2.2-3.7,4.1-3.7h16.5c2.6,0,4.1,1.5,4.1,3.7v7.9
	C183,362.6,176.2,371.5,159.7,371.5z M217.8,334.1c-1.1,0-2.2-0.4-4.9-0.4c-4.1,0-9.7,1.1-11.2,7.9v26.2c0,2.2-2.2,3.7-4.1,3.7
	c-2.6,0-4.1-1.5-4.1-3.7v-30c0-3.7-1.1-4.9-3.4-5.2c-1.1-0.4-1.5-1.5-1.5-2.6c0-2.2,1.5-3.4,4.1-3.4h1.5c3.7,1.1,6,3.4,7.1,5.2
	c4.1-5.2,10.1-6,13.9-6c2.6,0,4.9,0.4,7.1,1.1c2.2,0.4,2.6,2.6,1.5,4.1C222.3,333,220.4,334.8,217.8,334.1z M262.3,371.5
	c-2.2,0-4.1-1.1-5.2-1.5c-1.1-0.4-1.5-1.5-2.2-2.6c-3.7,3.7-9.7,4.1-13.9,4.1c-12.4,0-17.6-6-17.6-12.7v-0.4c0-7.5,6-12.7,18.7-12.7
	h11.6v-2.2c0-7.1-2.2-10.9-10.1-10.9c-4.9,0-7.9,1.1-10.1,2.2c-4.9,2.2-8.6-3.4-4.1-5.2c4.1-2.2,9-3.4,15-3.4
	c14.6,0,18.7,6,18.7,17.6v16.5c0,3.7,1.1,4.9,2.6,5.2c1.1,0.4,1.5,1.5,1.5,2.6C266.4,370.4,265,371.5,262.3,371.5z M253,351.3h-10.9
	c-8.6,0-10.9,3.4-10.9,7.1v0.4c0,3.7,2.2,7.1,10.1,7.1c7.1,0,10.9-3.4,10.9-9v-5.6H253z M287.8,371.5c-6.4,0-10.1-0.4-14.6-2.2
	c-2.2-0.4-2.6-2.6-2.2-4.1c1.1-1.5,2.6-2.6,4.9-2.2c3.4,1.1,6.4,1.5,11.6,1.5c7.5,0,10.9-2.6,10.9-7.1c0-5.2-7.5-6-14.6-7.5
	c-6.4-1.1-12.7-3.7-12.7-11.6c0-8.6,7.5-13.5,17.2-13.5c6,0,9,0.4,12.7,1.5c2.2,1.1,3.4,2.6,2.2,4.1c-0.4,1.5-2.6,2.6-4.9,2.2
	c-3.4-1.1-6.4-1.5-10.1-1.5c-6.4,0-9,2.6-9,6.4c0,4.9,6,5.2,12.7,7.1c7.1,1.1,14.6,3.4,14.6,12.4C307.6,367.4,299,371.5,287.8,371.5
	z M329,371.5c-6.4,0-10.1-0.4-14.6-2.2c-2.2-0.4-2.6-2.6-2.2-4.1c1.1-1.5,2.6-2.6,4.9-2.2c3.4,1.1,6.4,1.5,11.6,1.5
	c7.5,0,10.9-2.6,10.9-7.1c0-5.2-7.5-6-14.6-7.5c-6.4-1.1-12.7-3.7-12.7-11.6c0-8.6,7.5-13.5,17.2-13.5c6,0,9,0.4,12.7,1.5
	c2.2,1.1,3.4,2.6,2.2,4.1c-0.4,1.5-2.6,2.6-4.9,2.2c-3.4-1.1-6.4-1.5-10.1-1.5c-6.4,0-9,2.6-9,6.4c0,4.9,6,5.2,12.7,7.1
	c7.1,1.1,14.6,3.4,14.6,12.4C348.8,367.4,340.2,371.5,329,371.5z M391.1,371.5c-2.6,0-4.1-1.5-4.1-3.7v-25.1c0-6-1.5-9.7-9.7-9.7
	c-6,0-10.1,2.2-12.4,5.2v28.8c0,2.2-2.2,3.7-4.1,3.7c-2.6,0-4.1-1.5-4.1-3.7v-56.5c0-2.2,2.2-3.7,4.1-3.7c2.6,0,4.1,1.5,4.1,3.7
	v19.1c3.4-2.6,7.9-4.1,13.9-4.1c12.7,0,16.5,7.1,16.5,16.1v25.8C395.3,370,393.8,371.5,391.1,371.5z M423,371.5
	c-14.6,0-20.2-7.9-20.2-18.3v-9c0-10.1,6-18.3,20.2-18.3c14.6,0,20.2,7.9,20.2,18.3v9C443.9,363.7,437.6,371.5,423,371.5z
	 M434.9,344.2c0-7.1-3.4-11.2-11.6-11.2c-7.9,0-11.2,4.1-11.2,11.2v9c0,7.1,3.4,11.2,11.2,11.2s11.6-4.1,11.6-11.2V344.2z
	 M473.5,371.5c-3.7,0-8.6-1.1-11.6-3.4v15c0,2.2-2.2,3.7-4.1,3.7c-2.6,0-4.1-1.5-4.1-3.7v-45.7c0-3.7-1.1-4.9-2.6-5.2
	c-1.1-0.4-1.5-1.5-1.5-2.6c0-2.2,2.2-3.4,4.1-3.4c1.5,0,3.7,0.4,5.2,1.5c0.4,0.4,1.5,1.1,2.2,2.2c3.7-2.6,8.6-3.7,13.5-3.7
	c13.5,0,18.7,6.4,18.7,17.6v7.9C491.5,363.7,486.6,371.5,473.5,371.5z M482.5,343.1c0-7.1-2.6-10.9-11.2-10.9
	c-3.4,0-7.1,1.1-10.1,3.7v24.7c3.4,2.6,7.5,4.1,10.9,4.1c7.5,0,10.9-4.1,10.9-11.6v-10.1H482.5z M521.1,371.5
	c-3.7,0-8.6-1.1-12.4-3.4v15c0,2.2-2.2,3.7-4.1,3.7c-2.6,0-4.1-1.5-4.1-3.7v-45.7c0-3.7-1.1-4.9-2.6-5.2c-1.1-0.4-1.5-1.5-1.5-2.6
	c0-2.2,2.2-3.4,4.1-3.4c1.5,0,3.7,0.4,5.2,1.5c1.1,0.4,1.5,1.1,2.2,2.2c3.7-2.6,8.6-3.7,13.5-3.7c13.5,0,18.7,6.4,18.7,17.6v7.9
	C539,363.7,534.2,371.5,521.1,371.5z M530.1,343.1c0-7.1-2.6-10.9-11.2-10.9c-3.4,0-7.1,1.1-10.1,3.7v24.7c3.4,2.6,7.5,4.1,10.9,4.1
	c7.5,0,10.9-4.1,10.9-11.6v-10.1H530.1z M584.7,348c0,1.5-1.5,3.4-3.4,3.4h-27.7v2.2c0,7.1,3.7,11.2,11.2,11.2c6,0,9-1.1,12.7-2.6
	c2.2-1.1,4.1,0,4.9,1.5c0.4,1.5,0,3.4-1.5,4.1c-4.9,2.2-10.1,3.4-16.1,3.4c-14.6,0-19.8-8.6-19.8-18.7V345c0-10.1,6-18.7,19.8-18.7
	c15,0,19.8,8.6,19.8,18.7L584.7,348L584.7,348z M576.1,343.8c0-7.1-2.6-11.2-11.2-11.2c-7.9,0-11.2,4.1-11.2,11.2v1.5h22.5V343.8z
	 M618,334.1c-1.1,0-2.2-0.4-4.9-0.4c-4.1,0-9.7,1.1-11.2,7.9v26.2c0,2.2-2.2,3.7-4.1,3.7c-2.6,0-4.1-1.5-4.1-3.7v-30
	c0-3.7-1.1-4.9-3.4-5.2c-1.1-0.4-1.5-1.5-1.5-2.6c0-2.2,1.5-3.4,4.1-3.4h1.5c3.7,1.1,6,3.4,7.1,5.2c4.1-5.2,10.1-6,13.9-6
	c2.6,0,4.9,0.4,7.1,1.1c2.2,0.4,2.6,2.6,1.5,4.1C622.5,333,621,334.8,618,334.1L618,334.1z"/>
<path class="st0" d="M77.7,265.2v5.2c21,8.2,34.8,28.5,34.8,50.9c0-0.4-0.4-0.4-0.4-1.1c-4.1-17.2-17.2-30.3-34.1-34.8v4.1
	c11.2,3.4,21,10.9,26.2,21c-12-9.4-31.8-12-50.9-5.6c-26.2,9-42.3,32.6-35.2,52.4c5.2,15,22.5,23.6,41.6,22.8
	c12.7-4.9,22.8-12.7,29.6-22.5c-1.1,6.4-4.1,12.4-8.6,18.3c18.7-7.5,32.2-22.1,34.1-37.4c1.1-2.6,1.5-5.2,2.2-8.6
	C121.2,301.2,103.9,274.2,77.7,265.2z"/>
<ellipse transform="matrix(0.9734 -0.2291 0.2291 0.9734 -74.2939 23.7982)" cx="65.3" cy="331.9" rx="27.7" ry="21"/>
<ellipse transform="matrix(0.9734 -0.2293 0.2293 0.9734 -72.7561 24.7824)" class="st1" cx="70.3" cy="325.5" rx="11.2" ry="8.6"/>
<path d="M634.1,324c3,0,5.2,2.2,5.2,5.2s-2.2,5.2-5.2,5.2s-5.2-2.2-5.2-5.2S631.1,324,634.1,324 M634.1,323.2c-3.4,0-6,2.6-6,6
	s2.6,6,6,6s6-2.6,6-6S637.1,323.2,634.1,323.2z"/>
<path d="M636.4,327.7c0,0.4,0,0.7-0.4,1.1c-0.4,0.4-0.4,0.7-0.7,0.7l1.9,3h-1.5l-1.5-2.6h-0.7v2.6h-1.1v-6.7h2.2
	c0.7,0,1.5,0,1.9,0.4C636,326.6,636.4,327.4,636.4,327.7L636.4,327.7z M634.9,328.1c0-0.4,0-0.4-0.4-0.7c0,0-0.4-0.4-0.7-0.4H633
	v1.9h0.7c0.4,0,0.4,0,0.7-0.4C634.5,328.5,634.9,328.1,634.9,328.1z"/>
</svg>
