<svg xmlns="http://www.w3.org/2000/svg" viewBox="0 0 757.4 532.12"><defs><style>.cls-1{fill:#193764;}</style></defs><title>FAX.PLUS HIPAA Compliance</title><g id="Layer_2" data-name="Layer 2"><g id="Layer_1-2" data-name="Layer 1"><path class="cls-1" d="M179.4,69.2S103.3,103,47,103c-11.7,0-39.2-2.8-47-21,31.1-2.3,98.9-15.6,139-29.5,2.2,18.4,40.4,16.7,40.4,16.7m6.6-.1c-27.4,15.4-94.7,35.8-133.1,39.3,5.2,7.6,33.2,13.2,59.7,11.4,42.5-3,88-29.9,99-38.9-10.1-2.4-10.7-14.2-25.6-11.8m30.3,15.4c-9.6,6.4-56.8,33.5-98.5,38.7,15.4,14,47.3,10.1,61.6,5.8,22.3-6.7,64.7-32.5,64.7-32.5s-16.4-14.5-27.8-12m31.1,13.7c-7.4,5.4-54.4,30.1-67,34a103,103,0,0,0,23.6,3.9c3.9-11,18.3-20.1,26.9-24.3a74.16,74.16,0,0,1,46.8-6.8c2.3-2,3.7-3.2,3.7-3.2s-26-1.1-34-3.6m38.1,4.8c-1.1.8-2.6,1.9-4.2,3.2,8.3,3.1,14.8,10.7,16.4,12.4a32.91,32.91,0,0,0,2.5-18.1s-10.3-.4-14.7,2.5m5-23.7c-42.3,0-32.8-40.3-32.8-48.4s-.6-25.3-26.8-22.1-71,30.9-86.4,41.1c-.4,7,20.1,18.1,47.7,14.6,2,.3,26.9-4.8,28.5-4.2,1.6.9-20,7.2-19,7.7,7.2,3.8,10.9,9.6,16.6,11,1.7.4,22.6-3.6,25.9-2.3,1.1.4-15.4,5.5-14.3,6A55,55,0,0,1,248.7,94c1.2.2,17.1-1.9,18.4-1.7s-9.8,4.2-8.4,4.4a151.82,151.82,0,0,0,22.6,1.6c6.7,0,14.9-2,18.6,0,1.9.5-7-19-9.4-19m313,2.8c-31.1-2.3-98.9-15.6-139-29.5-2.1,18.4-40.4,16.7-40.4,16.7s76.1,32.2,132.4,33.8c13.5.3,33.9-4.2,47-21m-52.9,26.3c-38.4-3.5-105.7-23.9-133.1-39.3-14.9-2.3-15.4,9.5-25.6,11.8,11.1,9,56.6,34.9,99,38.9,8.2.7,35.2,1.5,59.7-11.4M359.3,96.6s42.4,25.8,64.7,32.5c14.3,4.3,46.1,8.2,61.6-5.8-41.7-5.2-88.8-32.3-98.5-38.7-11.3-2.6-27.8,12-27.8,12m-37.1,5.1s1.6,1.5,4.3,3.8c13.8-4.9,34.7.6,44.9,5.1,8.7,3.8,19.2,10,27.9,25.5a98.68,98.68,0,0,0,23.7-3.9c-12.6-3.9-59.6-28.5-67-34-7.9,2.5-33.8,3.5-33.8,3.5m-18.9-1.2s-2,10.8,3.6,20.1c2.9-4.5,8-9.7,16.4-13.5-2.1-1.7-3.9-3.1-5.2-4-4.5-3-14.8-2.6-14.8-2.6M372.6,8.8c-26.3-3.2-26.8,14-26.8,22.1s9.5,48.4-32.8,48.4c-2.4,0-11.2,19.5-9.4,18.8,3.7-2,11.9,0,18.6,0a139.3,139.3,0,0,0,22.6-1.6c1.4-.2-9.8-4.1-8.4-4.4s17.2,1.9,18.4,1.7a55,55,0,0,1,18.8-11.3c1.2-.5-15.3-5.6-14.3-6,3.3-1.3,24.2,2.7,25.9,2.3,5.7-1.5,9.4-7.3,16.6-11,1-.5-20.7-6.8-19-7.7,1.6-.6,26.5,4.6,28.5,4.2,27.6,3.5,48.1-7.6,47.7-14.6C443.7,39.6,398.9,12,372.6,8.8M320.2,359.9a21.52,21.52,0,0,1,12.5,15.3c1.9,6.8-.4,12.1-5.4,17-4.4,4.1-10.4,6.9-16.6,8.5,8,1,14.3,3.9,20.5,7.5.9-.5,1.8-1.1,2.6-1.6,8.6-5.5,17-16.9,15.7-30.3-.8-11.1-7.1-23.4-17.7-30-10.4-6.7-22.5-8-33-7.8-8.8,0-17.8-1-25.2-3.9-7.6-3.1-11.8-7.4-12.1-12.7-.2-6.7,2.2-14.7,7.2-18.9a25.85,25.85,0,0,1,7.9-4.9c-1-.3-2.1-.5-3.1-.8a99.84,99.84,0,0,1-21.5-7.6,46.25,46.25,0,0,0-10.9,30.2,31.68,31.68,0,0,0,6.7,19.9,39.75,39.75,0,0,0,15.5,11.5c11.1,4.7,22,5.7,32.5,5.7,10.1-.4,17.5-.2,24.4,2.9m-2.2,104c-4-4.7-10.1-8.1-16.4-9.9-5.3-1.6-10.7-3.8-14.8-7.1-8.2-5.5-9-21.3-.1-26.5a17.07,17.07,0,0,1,2.7-1.4c-4.8-1.7-9.5-3.6-14.4-5.1-3.9,4.7-6.4,10.6-6.4,16.1-.5,8.4,2.7,17.3,8.7,22.6,12,11.1,26.4,9,32.9,15,7.7,5.5,8.5,14.7,7.4,21.6-2.5,14.7-15.3,13.4-14.7,14.5-.3.4,1.5,1.3,5.5.9,3.8-.1,10.9-3.6,13.8-11.6a34.23,34.23,0,0,0,2.1-13.2,26,26,0,0,0-6.3-15.9m-30.8,25.2c-1.1-6.9-.2-16.1,7.4-21.6a12.38,12.38,0,0,1,1.8-1.4c-2.8-1.2-5.5-2.5-8.3-3.7l-1.4,1.4a25.77,25.77,0,0,0-6.3,15.8,34.23,34.23,0,0,0,2.1,13.2c2.8,8,9.9,11.5,13.8,11.6,4,.4,5.8-.5,5.5-.9.7-.9-12.1.4-14.6-14.4m49-59.1c0-8.7-6-18.5-14.5-22.6-7.8-4.6-18.5-4.9-24.9-6.1a39,39,0,0,1-19.3-9.1c-5.1-4.9-7.3-10.3-5.4-17a21.75,21.75,0,0,1,9.3-13.5c-1.4-.3-2.8-.5-4.1-.9-4.9-1.3-9.5-3.5-14.2-5.2a39.34,39.34,0,0,0-7.7,20.7c-1.3,13.3,7.1,24.7,15.7,30.3a58.23,58.23,0,0,0,27.7,9.3c8.5.3,14.7,1.4,19.5,4.5,8.9,5.3,8.1,21-.1,26.5a38,38,0,0,1-10.7,5.8,103.19,103.19,0,0,1,12.2,5.5,36.38,36.38,0,0,0,8-5.6c5.8-5.3,9-14.3,8.5-22.6m12-144.7c-10.4-8.6-22.8-11.7-34.2-12.8-12.3-.9-20.8-.1-30.3-1.9-18.3-2.2-37.1-12.5-35.4-22.6-.2-12.5,9.6-20.6,23.6-24.9-11.2-1.4-22.1-4-32.6-9a10.91,10.91,0,0,1-1.1-.6c-9.9,9-15.4,23.5-14.3,36.9a36.53,36.53,0,0,0,8.7,21.4,54.44,54.44,0,0,0,16.1,12.4c11.3,5.8,22.8,8.2,34.2,9.6s23.3.2,31.4,1.1c8.8.9,16.8,3.5,21.8,8.2,4.9,4.2,7.4,12.2,7.2,18.9-.3,5.3-4.4,9.6-12.1,12.7a44.7,44.7,0,0,1-7.6,2.2c8,3.1,15.3,7.7,23.1,12a37.67,37.67,0,0,0,10.4-8.9,31.68,31.68,0,0,0,6.7-19.9c.1-12.4-5-26.2-15.6-34.8M301.9,118.6l-8.5,19.8c.1,15.6.2,32,.3,48.9H310c.2-16.9.3-33.3.4-48.9l-8.5-19.8Zm.1-27.4,8.8-16.3V65.1c0-4.4-3.9-6.4-8.8-6.4s-8.8,1.3-8.8,6.4v9.8Zm-8,132.4c.1,14.5.3,29.2.4,43.9H309c.2-14.7.4-29.4.6-43.9H294Zm.8,74.7c.2,13,.3,25.9.5,38.6H308c.2-12.7.4-25.6.6-38.6Zm12,99.5c.3-12.5.5-25.5.7-38.8H295.6c.2,13.3.4,26.3.7,38.8Zm-1.2,53c.3-10,.5-20.6.8-31.8h-9.7c.2,11.2.5,21.8.7,31.8Zm-7.7,16.7c1.2,40.1,2.5,65.5,4.1,64.6,1-.6,2.1-25.7,3.2-64.6ZM302,0a22.1,22.1,0,1,0,22.1,22.1A22.11,22.11,0,0,0,302,0m0,46.4c-7.2.3-13.4-3.9-15.4-2-2.3,1.6,3.5,12.9,15.4,12.9S319.6,46,317.4,44.4c-2-1.9-8.3,2.3-15.4,2m78.8,204a37.18,37.18,0,0,1-8.7,21.4A54.44,54.44,0,0,1,356,284.2h-.1a72.74,72.74,0,0,0-29.1-14.6c16.3-3.4,31.1-12.6,29.6-21.6.2-14.5-13-23.1-30.7-26.7-31.8-6.3-83.8,5.1-114.3-35.2a42,42,0,0,1-6.7-17.5,57.8,57.8,0,0,1-.1-16.6c1.2-11.1,7.4-22.8,16.2-29.8,17.8-13.8,35.4-14.5,50-15.8,7.7-.3,19.9,8.2,25,16.2a6.1,6.1,0,0,1-1.3,3.6c-4,5.3-16.1,8-22.2,8.2-12.1.7-19-12-34.6,5-3.6,3-4.7,10.8-5.6,16.5-.6,6.6-.4,11.3,2.6,15.4,5.8,9.2,21.8,16.3,38.6,19,8.7,1.5,16.9,1.8,27.2,2.1a153.35,153.35,0,0,1,32.3,4c10.9,2.8,22.7,7,32.8,16.1,10.4,9,16.3,24,15.2,37.9M269.4,114.2a2.3,2.3,0,1,0,2.3-2.3,2.26,2.26,0,0,0-2.3,2.3m130.7,54.3a42.86,42.86,0,0,1-6.7,17.5,71.81,71.81,0,0,1-25.1,21.1,130.84,130.84,0,0,0-18.6-9.6c-5.5-2.4-11.2-5.1-17-6.5-.7-.2-1.5-.3-2.2-.5.4-.1.8-.1,1.1-.2,16.7-2.7,32.8-9.8,38.6-19,3-4.1,3.2-8.8,2.6-15.4-.9-5.7-1.9-13.5-5.6-16.5-15.7-17.1-22.5-4.4-34.6-5-7.3-.3-23.5-4.1-23.5-11.8,5.2-8,17.4-16.5,25-16.2,14.6,1.4,32.1,2,50,15.8,8.8,7,14.9,18.7,16.2,29.8.5,5.7.8,10.1-.2,16.5m-64.5-54.3a2.3,2.3,0,1,0-2.3,2.3,2.26,2.26,0,0,0,2.3-2.3"/><path class="cls-1" d="M498.4,220.2v79.5H483.5V264.9H446.2v34.8H431.4V220.2h14.8v34.2h37.3V220.2h14.9Z"/><path class="cls-1" d="M530.9,299.7H516.1V220.2h14.8Z"/><path class="cls-1" d="M574.5,220.2a43.83,43.83,0,0,1,13.8,1.9,25.92,25.92,0,0,1,9.6,5.2,20.4,20.4,0,0,1,5.6,8,30.16,30.16,0,0,1-.1,20.8,21.91,21.91,0,0,1-5.8,8.3,27.51,27.51,0,0,1-9.7,5.4,43,43,0,0,1-13.6,1.9H563.5v28H548.7V220.2h25.8Zm0,40a21.74,21.74,0,0,0,7.1-1,12.94,12.94,0,0,0,5-2.9,13.1,13.1,0,0,0,3-4.6,16.62,16.62,0,0,0,1-6.1,15.36,15.36,0,0,0-1-5.8,12.3,12.3,0,0,0-3-4.4,14.18,14.18,0,0,0-5-2.8,25,25,0,0,0-7.2-1H563.5v28.5h11Z"/><path class="cls-1" d="M679.4,299.7H668a4.45,4.45,0,0,1-3.1-1,5.46,5.46,0,0,1-1.8-2.4l-5.9-16.2H624.3l-5.9,16.2a6,6,0,0,1-1.7,2.3,4.62,4.62,0,0,1-3.1,1H602l31.3-79.5h15.1Zm-26.2-30-9.7-26.5q-.75-1.8-1.5-4.2c-.5-1.6-1-3.4-1.5-5.2-.5,1.9-1,3.6-1.5,5.3s-1,3.1-1.5,4.3l-9.6,26.3Z"/><path class="cls-1" d="M755.7,299.7H744.3a4.45,4.45,0,0,1-3.1-1,5.46,5.46,0,0,1-1.8-2.4l-5.9-16.2h-33l-6,16.2a6,6,0,0,1-1.7,2.3,4.62,4.62,0,0,1-3.1,1H678.1l31.3-79.5h15.1Zm-26.1-30-9.7-26.5q-.75-1.8-1.5-4.2c-.5-1.6-1-3.4-1.5-5.2-.5,1.9-1,3.6-1.5,5.3s-1,3.1-1.5,4.3l-9.6,26.3Z"/><path class="cls-1" d="M466.2,365.8a2,2,0,0,1,1.4.6l3.9,4.2a20.55,20.55,0,0,1-7.9,6.1,27.47,27.47,0,0,1-11.3,2.1,27.8,27.8,0,0,1-10.6-2,22.69,22.69,0,0,1-8-5.6,25,25,0,0,1-5.1-8.5,31.38,31.38,0,0,1-1.8-10.8,29.36,29.36,0,0,1,1.9-10.9,25.49,25.49,0,0,1,5.3-8.5,24.89,24.89,0,0,1,8.2-5.6,26,26,0,0,1,10.6-2,25.09,25.09,0,0,1,10.2,1.9,23.92,23.92,0,0,1,7.6,5l-3.1,4.5a5,5,0,0,1-.7.8,2.54,2.54,0,0,1-2.4,0c-.4-.2-.8-.5-1.3-.8s-1-.6-1.6-1a10.24,10.24,0,0,0-2.1-1,15.79,15.79,0,0,0-2.8-.8,20.52,20.52,0,0,0-3.7-.3,15.54,15.54,0,0,0-11.6,4.9,17.25,17.25,0,0,0-3.3,5.8,23.85,23.85,0,0,0-1.2,7.9,21.46,21.46,0,0,0,1.3,7.9,16.48,16.48,0,0,0,3.4,5.8,14.32,14.32,0,0,0,5.1,3.6,16.11,16.11,0,0,0,6.3,1.3c1.3,0,2.5-.1,3.6-.2a13.2,13.2,0,0,0,3-.7,12.27,12.27,0,0,0,2.6-1.2,18.76,18.76,0,0,0,2.4-1.8,2.18,2.18,0,0,1,.8-.5A1.49,1.49,0,0,1,466.2,365.8Z"/><path class="cls-1" d="M492.6,340.2a20.57,20.57,0,0,1,7.6,1.4,16.71,16.71,0,0,1,5.8,3.8,16.4,16.4,0,0,1,3.7,6.1,24.84,24.84,0,0,1,1.3,8,22.39,22.39,0,0,1-1.3,8,17.81,17.81,0,0,1-3.7,6.1,16.49,16.49,0,0,1-5.8,3.9,21.33,21.33,0,0,1-15.2,0,16.89,16.89,0,0,1-5.9-3.9,16.6,16.6,0,0,1-3.8-6.1,25.27,25.27,0,0,1,0-16,16.6,16.6,0,0,1,3.8-6.1,15.8,15.8,0,0,1,5.9-3.8A20.57,20.57,0,0,1,492.6,340.2Zm0,31.6c3.1,0,5.4-1,6.9-3.1s2.2-5.2,2.2-9.2-.7-7.1-2.2-9.2a7.94,7.94,0,0,0-6.9-3.2c-3.2,0-5.5,1.1-7,3.2s-2.3,5.2-2.3,9.2.8,7.1,2.3,9.2S489.5,371.8,492.6,371.8Z"/><path class="cls-1" d="M518,378.2V340.8h5.5a2.18,2.18,0,0,1,2.3,1.6l.6,2.8a19.86,19.86,0,0,1,2.1-2c.8-.6,1.5-1.1,2.3-1.6a11.66,11.66,0,0,1,2.6-1,10.12,10.12,0,0,1,3.1-.4,8.45,8.45,0,0,1,5.8,1.9,11.49,11.49,0,0,1,3.4,5.1,12.12,12.12,0,0,1,2.2-3.2,12.34,12.34,0,0,1,2.9-2.2,10.1,10.1,0,0,1,3.3-1.2,14.72,14.72,0,0,1,3.6-.4,15.47,15.47,0,0,1,5.5.9,10.71,10.71,0,0,1,4.1,2.8,12.24,12.24,0,0,1,2.5,4.5,18.9,18.9,0,0,1,.9,6v23.8h-9V354.4c0-2.4-.5-4.2-1.6-5.4a5.74,5.74,0,0,0-4.6-1.8,7.51,7.51,0,0,0-2.6.5,6,6,0,0,0-2.1,1.4,5.55,5.55,0,0,0-1.4,2.2,9.59,9.59,0,0,0-.5,3.1v23.8h-9.1V354.4c0-2.5-.5-4.3-1.5-5.5a5.39,5.39,0,0,0-4.4-1.7,7.11,7.11,0,0,0-3.7,1,12.62,12.62,0,0,0-3.2,2.6v27.4h-9Z"/><path class="cls-1" d="M587.7,345.9a20.87,20.87,0,0,1,5.2-4.2,13.55,13.55,0,0,1,6.9-1.6,11.84,11.84,0,0,1,5.6,1.3,13,13,0,0,1,4.4,3.7,16.69,16.69,0,0,1,2.8,6,29.23,29.23,0,0,1,1,8.2,27.73,27.73,0,0,1-1.1,7.8,17.36,17.36,0,0,1-3.2,6.2,15.66,15.66,0,0,1-5.1,4.1,14.67,14.67,0,0,1-6.7,1.5,12.71,12.71,0,0,1-5.4-1,11.79,11.79,0,0,1-4-2.7v15.3h-9V340.8h5.5a2.18,2.18,0,0,1,2.3,1.6Zm.5,22.6a8.84,8.84,0,0,0,3.3,2.6,10.07,10.07,0,0,0,3.9.8,8.74,8.74,0,0,0,3.7-.8,7.69,7.69,0,0,0,2.8-2.3,10.57,10.57,0,0,0,1.8-4,23.44,23.44,0,0,0,.6-5.6,29.81,29.81,0,0,0-.5-5.6,12.91,12.91,0,0,0-1.5-3.7,6.49,6.49,0,0,0-5.6-2.8,9,9,0,0,0-4.8,1.2,14.19,14.19,0,0,0-3.7,3.3v16.9Z"/><path class="cls-1" d="M629.7,324v54.2h-9V324Z"/><path class="cls-1" d="M649.3,329.8a5.45,5.45,0,0,1-.5,2.2,4.63,4.63,0,0,1-1.3,1.8,5.67,5.67,0,0,1-1.8,1.2,5.93,5.93,0,0,1-2.3.5,5.45,5.45,0,0,1-2.2-.5,5.52,5.52,0,0,1-3-3,5.45,5.45,0,0,1-.5-2.2,5.93,5.93,0,0,1,.5-2.3,5.52,5.52,0,0,1,3-3,5.45,5.45,0,0,1,2.2-.5,5.93,5.93,0,0,1,2.3.5,5.67,5.67,0,0,1,1.8,1.2,8.32,8.32,0,0,1,1.3,1.8A4.79,4.79,0,0,1,649.3,329.8Zm-1.2,11v37.4H639V340.8Z"/><path class="cls-1" d="M656.4,346a22.37,22.37,0,0,1,15.5-5.9,15.89,15.89,0,0,1,5.9,1.1,12.3,12.3,0,0,1,4.4,3,12.45,12.45,0,0,1,2.7,4.6,18.08,18.08,0,0,1,.9,5.8v23.7h-4.1a3.74,3.74,0,0,1-2-.4,2.85,2.85,0,0,1-1.1-1.6l-.8-2.7a17.94,17.94,0,0,1-2.8,2.2,15.57,15.57,0,0,1-2.8,1.6,16,16,0,0,1-3.1,1,20.52,20.52,0,0,1-3.7.3,15.6,15.6,0,0,1-4.4-.6,10.78,10.78,0,0,1-3.5-1.9,9.37,9.37,0,0,1-2.3-3.2,11.91,11.91,0,0,1-.8-4.4,9.19,9.19,0,0,1,.5-2.8,7.69,7.69,0,0,1,1.6-2.7,9.56,9.56,0,0,1,2.8-2.4,16.44,16.44,0,0,1,4.2-2,38,38,0,0,1,5.8-1.4,42.59,42.59,0,0,1,7.6-.6v-2.2c0-2.5-.5-4.4-1.6-5.6a5.88,5.88,0,0,0-4.6-1.8,11.52,11.52,0,0,0-3.6.5,8.3,8.3,0,0,0-2.5,1.2c-.7.4-1.4.8-2,1.1a4.55,4.55,0,0,1-2,.5,2.77,2.77,0,0,1-1.6-.5,4.26,4.26,0,0,1-1.1-1.2Zm20.7,16.2a38.15,38.15,0,0,0-6.6.7,13.7,13.7,0,0,0-4.3,1.3,5.45,5.45,0,0,0-2.3,1.8,3.6,3.6,0,0,0-.7,2.2,4,4,0,0,0,1.4,3.4,6,6,0,0,0,3.7,1,10.58,10.58,0,0,0,4.8-1,15.51,15.51,0,0,0,4-3v-6.4Z"/><path class="cls-1" d="M702.8,345.3a22.53,22.53,0,0,1,2.4-2.1,12,12,0,0,1,2.7-1.6,20.92,20.92,0,0,1,3-1.1,15.25,15.25,0,0,1,8.9.6,11.78,11.78,0,0,1,4,2.9,12.21,12.21,0,0,1,2.4,4.5,20.65,20.65,0,0,1,.8,5.7V378h-9V354.2a7.64,7.64,0,0,0-1.6-5.3c-1-1.3-2.6-1.9-4.8-1.9a9.56,9.56,0,0,0-4.4,1.1,15.22,15.22,0,0,0-3.9,2.9v27.1h-9V340.7h5.5a2.18,2.18,0,0,1,2.3,1.6Z"/><path class="cls-1" d="M747.5,378.8c-3.3,0-5.8-.9-7.5-2.8a10.77,10.77,0,0,1-2.6-7.6V347.5h-3.9a1.66,1.66,0,0,1-1.2-.5,2,2,0,0,1-.5-1.4V342l6-1,1.9-10.2a1.77,1.77,0,0,1,.7-1.1,1.84,1.84,0,0,1,1.3-.4h4.7v11.8h10v6.4h-10v20.3a3.67,3.67,0,0,0,.9,2.7,3,3,0,0,0,2.4,1,5.21,5.21,0,0,0,1.4-.2,10.37,10.37,0,0,0,1-.4,4.35,4.35,0,0,0,.7-.4,1.32,1.32,0,0,1,1.4,0,1,1,0,0,1,.5.6l2.7,4.4a14.11,14.11,0,0,1-4.5,2.5A16.45,16.45,0,0,1,747.5,378.8Z"/></g></g></svg>