<?xml version="1.0" encoding="UTF-8" standalone="no"?>
<svg
   xmlns:dc="http://purl.org/dc/elements/1.1/"
   xmlns:cc="http://creativecommons.org/ns#"
   xmlns:rdf="http://www.w3.org/1999/02/22-rdf-syntax-ns#"
   xmlns:svg="http://www.w3.org/2000/svg"
   xmlns="http://www.w3.org/2000/svg"
   viewBox="0 0 1740.84 508.34668"
   height="508.34668"
   width="1740.84"
   xml:space="preserve"
   id="svg2"
   version="1.1"><metadata
     id="metadata8"><rdf:RDF><cc:Work
         rdf:about=""><dc:format>image/svg+xml</dc:format><dc:type
           rdf:resource="http://purl.org/dc/dcmitype/StillImage" /></cc:Work></rdf:RDF></metadata><defs
     id="defs6" /><g
     transform="matrix(1.3333333,0,0,-1.3333333,0,508.34667)"
     id="g10"><g
       transform="scale(0.1)"
       id="g12"><path
         id="path14"
         style="fill:#b2212b;fill-opacity:1;fill-rule:nonzero;stroke:none"
         d="M 1803.96,3322.36 V 504.539 c 0,-82.48 30.43,-144.379 91.41,-185.59 40.59,-27.019 60.9,-58.738 60.9,-95.199 V 116.629 c 0,-36.5001 -20.56,-54.7384 -61.69,-54.7384 h -740.49 c -34.81,0 -52.2,16.6875 -52.2,49.9804 V 223.75 c 0,34.859 19.81,66.609 59.48,95.199 61.89,42.832 92.83,104.711 92.83,185.59 V 1868.25 H 704.453 V 504.539 c 0,-82.48 30.098,-144.379 90.406,-185.59 41.246,-27.019 61.914,-58.738 61.914,-95.199 V 116.629 c 0,-36.5001 -20.668,-54.7384 -61.914,-54.7384 H 52.3633 C 17.4375,61.8906 0,78.5781 0,111.871 V 223.75 c 0,34.859 20.5977,66.609 61.8711,95.199 60.2769,42.832 90.4489,104.711 90.4489,185.59 V 3322.36 c 0,80.93 -30.172,141.97 -90.4489,183.25 C 20.5977,3532.56 0,3565.11 0,3603.2 v 104.71 c 0,36.47 20.5977,54.73 61.8711,54.73 H 804.402 c 34.891,0 52.371,-16.64 52.371,-49.97 V 3603.2 c 0,-36.53 -20.668,-69.03 -61.914,-97.59 -60.308,-42.83 -90.406,-103.92 -90.406,-183.25 V 2201.45 H 1254.2 v 1120.91 c 0,80.93 -30.94,141.97 -92.83,183.25 -41.27,26.95 -61.86,59.5 -61.86,97.59 v 104.71 c 0,36.47 20.55,54.73 61.68,54.73 h 740.49 c 34.79,0 52.22,-16.64 52.22,-49.97 V 3603.2 c 0,-36.53 -19.55,-69.03 -58.59,-97.59 -60.92,-42.83 -91.35,-103.92 -91.35,-183.25" /><path
         id="path16"
         style="fill:#b2212b;fill-opacity:1;fill-rule:nonzero;stroke:none"
         d="m 2815.42,504.539 c 0,-82.48 30.1,-144.379 90.42,-185.59 41.24,-27.019 61.88,-58.738 61.88,-95.199 V 116.629 c 0,-36.5001 -20.64,-54.7384 -61.88,-54.7384 h -742.53 c -34.92,0 -52.34,16.6875 -52.34,49.9804 V 223.75 c 0,34.859 20.59,66.609 61.88,95.199 60.26,42.832 90.45,104.711 90.45,185.59 V 3322.36 c 0,80.93 -30.19,141.97 -90.45,183.25 -41.29,26.95 -61.88,59.5 -61.88,97.59 v 104.71 c 0,36.47 20.59,54.73 61.88,54.73 h 742.52 c 34.88,0 52.35,-16.64 52.35,-49.97 V 3603.2 c 0,-36.53 -20.64,-69.03 -61.88,-97.59 -60.32,-42.83 -90.42,-103.92 -90.42,-183.25 V 504.539" /><path
         id="path18"
         style="fill:#211d2e;fill-opacity:1;fill-rule:nonzero;stroke:none"
         d="M 4257.61,3486.55 V 504.539 c 0,-82.48 30.14,-144.379 90.45,-185.59 41.25,-27.019 61.87,-58.738 61.87,-95.199 V 116.629 c 0,-36.5001 -20.62,-54.7384 -61.87,-54.7384 h -742.54 c -34.91,0 -52.36,16.6875 -52.36,49.9804 V 223.75 c 0,34.859 20.61,66.609 61.86,95.199 60.31,42.832 90.46,104.711 90.46,185.59 V 3486.55 h -104.71 c -77.75,0 -135.3,-29.35 -172.54,-88.02 -37.29,-58.71 -71.04,-188.03 -101.13,-387.94 -3.23,-26.99 -19.9,-40.46 -50,-40.46 h -92.82 c -53.93,0 -80.92,23 -80.92,69.03 v 692.54 c 0,53.93 25.37,80.92 76.18,80.92 31.71,0 88.03,-6.34 168.95,-19.04 130.08,-20.63 228.5,-30.94 295.12,-30.94 h 842.5 c 42.86,6.31 95.17,15.06 157.1,26.17 95.18,14.31 147.53,21.43 157.05,21.43 42.8,0 64.25,-19.84 64.25,-59.49 v -711.59 c 0,-46.03 -20.63,-69.03 -61.9,-69.03 h -90.43 c -36.51,0 -58.31,10.3 -65.45,30.96 -7.13,20.58 -18.65,72.15 -34.48,154.68 -28.55,136.43 -57.96,225.69 -88.07,267.75 -30.17,42.02 -83.29,63.03 -159.46,63.03 h -107.11" /><path
         id="path20"
         style="fill:#211d2e;fill-opacity:1;fill-rule:nonzero;stroke:none"
         d="M 5702.24,3474.68 V 2077.67 c 171.35,0 297.49,53.93 378.38,161.84 80.97,107.88 121.39,299.87 121.39,575.94 0,269.72 -40.89,447.02 -122.56,531.89 -81.74,84.86 -207.44,127.34 -377.21,127.34 z m 0,-1680.2 V 504.539 c 0,-82.48 30.14,-144.379 90.45,-185.59 41.21,-27.019 61.89,-58.738 61.89,-95.199 V 116.629 c 0,-36.5001 -20.68,-54.7384 -61.89,-54.7384 h -742.53 c -34.89,0 -52.37,16.6875 -52.37,49.9804 V 223.75 c 0,34.859 20.58,66.609 61.89,95.199 60.26,42.832 90.42,104.711 90.42,185.59 V 3322.36 c 0,80.93 -30.16,141.97 -90.42,183.25 -41.31,26.95 -61.89,59.5 -61.89,97.59 v 104.71 c 0,36.47 20.58,54.73 61.89,54.73 h 623.52 c 352.22,0 620.33,-79.35 804.4,-238 184.03,-158.66 276.03,-387.93 276.03,-687.8 0,-477.56 -221.26,-786.15 -663.91,-925.75 130.02,-63.47 228.78,-135.29 296.23,-215.39 67.45,-80.13 119.39,-197.92 155.93,-353.4 l 173.73,-754.441 c 22.22,-96.789 44.01,-162.238 65.46,-196.347 21.39,-34.141 56.7,-66.242 105.87,-96.403 14.28,-9.5 21.39,-24.578 21.39,-45.211 V 114.281 c 0,-34.9412 -17.34,-52.3904 -52.11,-52.3904 h -474.44 c -45.89,0 -75.14,25.5703 -87.78,76.6684 L 5978.26,1447.01 c -34.93,144.34 -73.35,237.96 -115.42,280.81 -41.98,42.85 -95.56,65.05 -160.6,66.66" /><path
         id="path22"
         style="fill:#211d2e;fill-opacity:1;fill-rule:nonzero;stroke:none"
         d="m 8715.18,920.52 c 0,-283.872 -72.21,-505.879 -216.57,-666.008 C 8354.25,94.3711 8165.42,14.3086 7932.23,14.3086 c -233.25,0 -424.49,79.3125 -573.55,237.8594 -149.17,158.562 -223.73,366.203 -223.73,623.113 V 3322.68 c 0,80.82 -30.14,141.84 -90.42,183.09 -41.3,28.55 -61.87,61.05 -61.87,97.54 v 104.64 c 0,36.43 20.57,54.69 61.87,54.69 h 742.53 c 34.89,0 52.34,-16.64 52.34,-49.94 v -109.39 c 0,-36.49 -20.68,-68.99 -61.87,-97.52 -60.34,-41.23 -90.42,-102.29 -90.42,-183.11 V 849.328 c 0,-329.816 109.46,-494.719 328.37,-494.719 239.6,0 359.4,193.422 359.4,580.313 V 3322.68 c 0,80.82 -30.14,141.88 -90.48,183.11 -41.25,28.53 -61.87,61.03 -61.87,97.52 v 104.64 c 0,36.43 20.62,54.69 61.87,54.69 h 530.72 c 34.89,0 52.4,-16.64 52.4,-49.94 v -109.39 c 0,-36.49 -20.68,-68.99 -61.92,-97.54 -60.28,-41.25 -90.42,-102.27 -90.42,-183.09 V 920.52" /><path
         id="path24"
         style="fill:#211d2e;fill-opacity:1;fill-rule:nonzero;stroke:none"
         d="m 9262.58,61.8906 h -119.03 c -39.66,0 -59.52,21.4414 -59.52,64.2814 V 1023.4 c 0,60.24 21.44,90.43 64.28,90.43 h 102.4 c 26.91,0 44.71,-9.16 53.46,-27.37 8.76,-18.29 21.04,-81.35 36.9,-189.198 65.05,-415.692 213.4,-623.543 445.06,-623.543 120.62,0 215.37,52.351 284.47,157.051 69,104.71 103.5,231.66 103.5,380.808 0,153.871 -36.9,296.662 -110.7,428.352 -73.75,131.69 -216.17,309.4 -427.2,533.12 -163.46,171.37 -279.61,304.22 -348.65,398.63 -68.97,94.4 -124.56,201.09 -166.57,320.11 -42.06,118.99 -63.09,249.88 -63.09,392.65 0,263.37 66.27,479.94 198.7,649.73 132.49,169.76 294,254.64 484.3,254.64 87.25,0 180.9,-24.79 280.81,-74.33 44.4,-22.38 74.6,-33.57 90.5,-33.57 15.8,0 33.3,6.48 52.4,19.49 19,11.33 42.8,17.03 71.3,17.03 h 88.1 c 46,0 69,-21.42 69,-64.25 v -787.75 c 0,-39.7 -17.5,-59.5 -52.4,-59.5 h -109.4 c -28.6,0 -47.2,7.52 -56,22.6 -8.7,15.06 -24.2,72.61 -46.4,172.56 -74.6,344.25 -195.96,516.43 -364.06,516.43 -90.42,0 -163.04,-38.09 -217.79,-114.23 -54.76,-76.18 -82.08,-164.22 -82.08,-264.17 0,-115.87 32.14,-234.43 96.36,-355.81 64.27,-121.39 192.41,-280.45 384.36,-477.16 245.91,-252.28 416.11,-474.02 510.51,-665.19 94.4,-191.22 141.6,-398.61 141.6,-622.31 0,-301.47 -78.9,-546.619 -236.8,-735.4 C 10203,94.4102 10015.4,0 9798.05,0 c -96.81,0 -210.27,25.6211 -340.35,76.8008 -41.24,17.5703 -70.62,26.3792 -88.01,26.3792 -15.87,0 -36.54,-8.1097 -61.93,-24.3011 -19.03,-11.3398 -34.13,-16.9883 -45.18,-16.9883" /><path
         id="path26"
         style="fill:#211d2e;fill-opacity:1;fill-rule:nonzero;stroke:none"
         d="M 11866.2,3486.55 V 504.539 c 0,-82.48 30.1,-144.379 90.5,-185.59 41.2,-27.019 61.8,-58.738 61.8,-95.199 V 116.629 c 0,-36.5001 -20.6,-54.7384 -61.8,-54.7384 h -742.6 c -34.9,0 -52.3,16.6875 -52.3,49.9804 V 223.75 c 0,34.859 20.5,66.609 61.8,95.199 60.3,42.832 90.4,104.711 90.4,185.59 V 3486.55 h -104.7 c -77.7,0 -135.2,-29.35 -172.5,-88.02 -37.3,-58.71 -71,-188.03 -101.2,-387.94 -3.1,-26.99 -19.8,-40.46 -49.9,-40.46 h -92.9 c -53.9,0 -80.8,23 -80.8,69.03 v 692.54 c 0,53.93 25.3,80.92 76.1,80.92 31.7,0 88.1,-6.34 169,-19.04 130.1,-20.63 228.4,-30.94 295,-30.94 h 842.6 c 42.8,6.31 95.1,15.06 157,26.17 95.2,14.31 147.6,21.43 157.1,21.43 42.8,0 64.2,-19.84 64.2,-59.49 v -711.59 c 0,-46.03 -20.6,-69.03 -61.8,-69.03 h -90.5 c -36.5,0 -58.3,10.3 -65.4,30.96 -7.1,20.58 -18.7,72.15 -34.5,154.68 -28.5,136.43 -57.9,225.69 -88.1,267.75 -30.1,42.02 -83.3,63.03 -159.4,63.03 h -107.1" /><path
         id="path28"
         style="fill:#211d2e;fill-opacity:1;fill-rule:nonzero;stroke:none"
         d="m 12835.7,3615.39 h 20.6 c 24,0 43.4,8.02 43.4,27.44 0,17.15 -12.6,28.58 -40,28.58 -11.5,0 -19.5,-1.14 -24,-2.29 z m -1.2,-106.28 h -43.4 v 187.45 c 17.2,3.44 41.2,5.7 72,5.7 35.4,0 51.4,-5.7 65.2,-13.72 10.2,-7.99 18.2,-22.86 18.2,-41.13 0,-20.56 -15.9,-36.57 -38.8,-43.45 v -2.26 c 18.3,-6.87 28.6,-20.59 34.3,-45.74 5.7,-28.55 9.1,-39.98 13.7,-46.85 h -46.9 c -5.7,6.87 -9.1,24 -14.8,45.71 -3.5,20.59 -14.9,29.72 -38.9,29.72 h -20.6 z m -115.4,98.29 c 0,-83.43 61.7,-149.73 146.3,-149.73 82.3,0 142.9,66.3 142.9,148.58 0,83.44 -60.6,150.88 -144,150.88 -83.5,0 -145.2,-67.44 -145.2,-149.73 z m 337.2,0 c 0,-106.28 -83.5,-189.71 -192,-189.71 -107.5,0 -193.2,83.43 -193.2,189.71 0,104.03 85.7,187.45 193.2,187.45 108.5,0 192,-83.42 192,-187.45" /></g></g></svg>