<svg xmlns="http://www.w3.org/2000/svg" xmlns:xlink="http://www.w3.org/1999/xlink" viewBox="0 0 1913.9 704.93">
  <defs>
    <style>
      .cls-1 {
        fill: #fff;
      }

      .cls-2 {
        fill: #f10606;
      }

      .cls-3 {
        clip-path: url(#clip-path);
      }

      .cls-4 {
        isolation: isolate;
      }
    </style>
    <clipPath id="clip-path" transform="translate(2.8)">
      <path d="M1504.61,702.14l16.12-89.71H1335.36l11.52-67.27H1500l16.12-89.71H1363l13.24-77.62h185.37l16.11-89.71h-289l-73.11,414Zm-362,0,73-414H1111.37l-73.56,414Zm-446.28,0L791,569.88l56.24,132.26H964.93L876,496.86l161.83-208.74H920.16L816.87,422.68,769.24,288.12H651.6l79.19,208.74L578.71,702.14Zm-190.63,0,73-414H474.46l-73.56,414Zm-402.35,0,27-151.81h45.37l43.08,151.81H328L269.37,496.86,400.9,288.12H291.77L182.64,460.63H145.89l30.44-172.51H72.94L0,702.14Z"/>
    </clipPath>
  </defs>
  <g id="Layer_2" data-name="Layer 2">
    <g id="Layer_1-2" data-name="Layer 1">
      <g>
        <rect class="cls-1" x="1681.44" y="54.69" width="177.54" height="177.58"/>
        <g>
          <path class="cls-2" d="M1819,0H1715.45a92.07,92.07,0,0,0-92.07,92.07V287.72H1819a92.07,92.07,0,0,0,92.07-92.07V92.07A92.07,92.07,0,0,0,1819,0Zm1.39,227.46h-45.51l-18-61.31H1738l-11.26,61.31h-43.11l30.42-167.19h43.11l-12.69,69.66h15.33l45.51-69.66h45.51L1796,144.56Z" transform="translate(2.8)"/>
          <g>
            <path d="M1504.61,702.14l16.12-89.71H1335.36l11.52-67.27H1500l16.12-89.71H1363l13.24-77.62h185.37l16.11-89.71h-289l-73.11,414Zm-362,0,73-414H1111.37l-73.56,414Zm-446.28,0L791,569.88l56.24,132.26H964.93L876,496.86l161.83-208.74H920.16L816.87,422.68,769.24,288.12H651.6l79.19,208.74L578.71,702.14Zm-190.63,0,73-414H474.46l-73.56,414Zm-402.35,0,27-151.81h45.37l43.08,151.81H328L269.37,496.86,400.9,288.12H291.77L182.64,460.63H145.89l30.44-172.51H72.94L0,702.14Z" transform="translate(2.8)"/>
            <g class="cls-3">
              <g class="cls-4">
                <rect y="285.33" width="1583.32" height="419.61"/>
              </g>
            </g>
          </g>
        </g>
      </g>
    </g>
  </g>
</svg>
