<svg enable-background="new 0 0 169.44 72.27" viewBox="0 0 169.44 72.27" xmlns="http://www.w3.org/2000/svg" xmlns:xlink="http://www.w3.org/1999/xlink"><clipPath id="a"><path d="m4.47 2.36h160.85v66.85h-160.85z"/></clipPath><clipPath id="b"><path d="m4.47 2.36h160.85v66.85h-160.85z"/></clipPath><path d="m165.17 48.01h-13.56l-5.4-9 6.38-10.2z" fill="#21205f"/><path d="m151.55 7.69h12.42l-11.46 18.84-6.54-9.72z" fill="#21205f"/><path d="m139.97 27.37-12.54-19.68h11.04l13.42 20.04-12.76 20.28h-11.64z" fill="#aabb4d"/><g fill="#21205f"><g clip-path="url(#a)"><path d="m7.65 28.04c0-10.98 7.26-20.76 19.56-20.76s19.68 9.66 19.68 20.64-7.26 20.76-19.56 20.76-19.68-9.66-19.68-20.64zm34.32 0c0-9-5.1-16.86-14.64-16.86s-14.76 7.74-14.76 16.74 5.1 16.86 14.64 16.86 14.76-7.74 14.76-16.74z"/><path d="m54.45 19.16h4.38v4.5c1.14-1.92 3.66-5.22 7.68-5.22 1.74 0 2.64.42 3 .6l-1.08 4.2c-.3-.18-1.02-.48-2.52-.48-4.32 0-6.72 4.98-7.08 5.88v19.32h-4.38z"/><path d="m72.39 33.38c0-8.46 5.28-14.94 12.96-14.94 7.14 0 11.34 5.1 11.34 12.96 0 .66-.06 1.32-.12 2.04h-19.5c.12 6.12 2.58 11.46 9.06 11.46 4.02 0 6.72-1.8 7.98-2.58l1.8 3.42c-1.44.96-4.68 2.94-9.9 2.94-9.06 0-13.62-6.78-13.62-15.3zm19.8-3.42c-.12-4.08-1.98-7.74-6.96-7.74-4.62 0-7.14 3.24-7.92 7.74z"/><path d="m101.79 33.56c0-9.84 6.12-15.12 13.26-15.12 4.74 0 7.44 1.8 8.82 2.88l-2.1 3.3c-1.5-1.14-3.42-2.4-6.78-2.4-5.94 0-8.52 4.92-8.52 11.22 0 6.12 2.64 11.46 8.64 11.46 3.6 0 6.18-1.74 7.02-2.4l1.8 3.3c-1.14.96-4.02 2.88-9.06 2.88-8.52 0-13.08-7.2-13.08-15.12z"/></g><g clip-path="url(#b)"><path d="m59.02 57.87c0-2.01 1.33-3.81 3.63-3.81 2.29 0 3.64 1.77 3.64 3.78 0 2-1.33 3.81-3.62 3.81-2.3.01-3.65-1.78-3.65-3.78zm6.21 0c0-1.6-.87-2.98-2.56-2.98s-2.61 1.36-2.61 2.96.89 2.98 2.58 2.98c1.7 0 2.59-1.36 2.59-2.96z"/><path d="m67.66 56.23h.92v.56c.27-.33.77-.69 1.52-.69 1.3 0 2.16 1.01 2.16 2.76 0 1.67-.98 2.79-2.35 2.79-.73 0-1.12-.27-1.32-.45v2.73h-.92v-7.7zm3.6 2.65c0-1.14-.43-1.98-1.38-1.98-.69 0-1.16.52-1.3.7v2.81c.23.21.59.46 1.2.46.98 0 1.48-.82 1.48-1.99z"/><path d="m73.04 58.84c0-1.57 1.01-2.74 2.43-2.74 1.34 0 2.12.94 2.12 2.42 0 .13-.01.26-.02.41h-3.53c.03 1.06.47 1.96 1.61 1.96.73 0 1.21-.32 1.44-.45l.36.68c-.29.19-.87.54-1.85.54-1.69 0-2.56-1.22-2.56-2.82zm3.62-.63c-.02-.71-.34-1.35-1.21-1.35-.8 0-1.24.56-1.38 1.35z"/><path d="m78.89 56.23h.92v.74c.45-.56 1.05-.87 1.72-.87 1.12 0 1.56.74 1.56 1.66v3.76h-.94v-3.58c0-.64-.22-1.03-.89-1.03-.57 0-1.1.44-1.45.91v3.7h-.92z"/><path d="m86.65 60.91.48-.7c.17.15.7.63 1.66.63.87 0 1.43-.55 1.43-1.17 0-.84-.82-1.18-1.67-1.59-.9-.44-1.68-.94-1.68-2.1 0-1.21 1.02-1.9 2.18-1.9 1.11 0 1.72.4 1.97.59l-.46.73c-.25-.2-.76-.5-1.5-.5-.7 0-1.22.4-1.22 1.03 0 .7.59 1.01 1.33 1.35.97.46 2.05.96 2.05 2.37 0 1.19-.98 2.01-2.44 2.01-1.14 0-1.86-.49-2.13-.75z"/><path d="m92.08 58.88c0-1.25.66-2.78 2.46-2.78 1.79 0 2.55 1.5 2.55 2.76 0 1.25-.73 2.79-2.53 2.79-1.78.01-2.48-1.5-2.48-2.77zm4.03 0c0-1.1-.53-2.01-1.57-2.01-1.06 0-1.46.88-1.46 1.99s.46 2.02 1.52 2.02c1.04.01 1.51-.89 1.51-2z"/><path d="m98.25 59.98v-3.75h.94v3.58c0 .64.22 1.02.9 1.02.75 0 1.32-.76 1.43-.91v-3.69h.93v4.09c0 .5.05.97.11 1.2h-.94c-.03-.13-.08-.52-.09-.77-.25.34-.81.9-1.72.9-1.12.01-1.56-.73-1.56-1.67z"/><path d="m104.14 56.23h.92v.8c.22-.36.67-.94 1.4-.94.34 0 .52.08.59.11l-.23.87c-.07-.03-.2-.09-.48-.09-.76 0-1.19.85-1.28 1.02v3.51h-.92z"/><path d="m107.43 58.87c0-1.8 1.13-2.77 2.51-2.77.87 0 1.36.31 1.62.51l-.4.68c-.27-.2-.62-.42-1.22-.42-1.04 0-1.52.86-1.52 1.98 0 1.1.47 2.02 1.54 2.02.65 0 1.11-.3 1.27-.42l.35.68c-.22.18-.74.52-1.67.52-1.6.01-2.48-1.28-2.48-2.78z"/><path d="m112.26 58.84c0-1.57 1.01-2.74 2.43-2.74 1.34 0 2.12.94 2.12 2.42 0 .13-.01.26-.02.41h-3.53c.03 1.06.47 1.96 1.61 1.96.73 0 1.21-.32 1.44-.45l.36.68c-.29.19-.87.54-1.85.54-1.69 0-2.56-1.22-2.56-2.82zm3.62-.63c-.02-.71-.34-1.35-1.21-1.35-.8 0-1.24.56-1.38 1.35z"/><path d="m120.61 54.2h2.09c1.56 0 2.48.71 2.48 1.98 0 1.22-.87 1.84-1.98 1.92v.02c.15.11.36.34.78.93l1.74 2.46h-1.14l-1.45-2.08c-.8-1.14-.92-1.23-1.4-1.23h-.11v3.31h-1v-7.31zm2.04 3.23c1.05 0 1.52-.44 1.52-1.22s-.51-1.2-1.58-1.2h-.98v2.42z"/><path d="m126.14 58.84c0-1.57 1.01-2.74 2.43-2.74 1.34 0 2.12.94 2.12 2.42 0 .13-.01.26-.02.41h-3.53c.03 1.06.47 1.96 1.61 1.96.73 0 1.21-.32 1.44-.45l.36.68c-.29.19-.87.54-1.85.54-1.69 0-2.56-1.22-2.56-2.82zm3.62-.63c-.02-.71-.34-1.35-1.21-1.35-.8 0-1.24.56-1.38 1.35z"/><path d="m131.54 58.87c0-1.8 1.13-2.77 2.51-2.77.87 0 1.36.31 1.62.51l-.4.68c-.27-.2-.62-.42-1.22-.42-1.04 0-1.52.86-1.52 1.98 0 1.1.47 2.02 1.54 2.02.65 0 1.11-.3 1.27-.42l.35.68c-.22.18-.74.52-1.67.52-1.6.01-2.48-1.28-2.48-2.78z"/><path d="m136.3 58.88c0-1.25.66-2.78 2.46-2.78 1.79 0 2.55 1.5 2.55 2.76 0 1.25-.73 2.79-2.53 2.79-1.78.01-2.48-1.5-2.48-2.77zm4.03 0c0-1.1-.53-2.01-1.57-2.01-1.06 0-1.46.88-1.46 1.99s.46 2.02 1.52 2.02c1.04.01 1.51-.89 1.51-2z"/><path d="m142.55 56.23h.92v.8c.22-.36.67-.94 1.4-.94.34 0 .52.08.59.11l-.23.87c-.07-.03-.2-.09-.48-.09-.76 0-1.19.85-1.28 1.02v3.51h-.92z"/><path d="m145.94 58.88c0-1.67 1.01-2.78 2.34-2.78.56 0 1 .15 1.33.44v-2.94h.92v6.75c0 .42.08.88.14 1.17h-.94c-.03-.11-.09-.41-.1-.61-.36.45-.88.74-1.52.74-1.27.01-2.17-1-2.17-2.77zm3.67 1.27v-2.82c-.32-.29-.69-.45-1.2-.45-.96 0-1.47.83-1.47 1.99 0 1.17.41 1.97 1.41 1.97.46 0 .94-.26 1.26-.69z"/><path d="m152.06 54.65c0-.36.29-.65.65-.65s.65.29.65.65c0 .35-.29.65-.65.65-.37 0-.65-.3-.65-.65zm.17 1.58h.95v5.29h-.95z"/><path d="m154.91 56.23h.92v.74c.45-.56 1.04-.87 1.72-.87 1.12 0 1.56.74 1.56 1.66v3.76h-.94v-3.58c0-.64-.22-1.03-.89-1.03-.57 0-1.1.44-1.45.91v3.7h-.92z"/><path d="m160.35 62.67c0-.59.37-1.06.9-1.35-.29-.14-.47-.38-.47-.78 0-.38.25-.68.55-.87-.59-.33-.93-.92-.93-1.63 0-1.12.84-1.94 2.17-1.94.31 0 .59.04.85.13h1.76v.69h-.79c.23.31.35.69.35 1.11 0 1.11-.83 1.94-2.16 1.94-.21 0-.4-.02-.59-.07-.22.11-.32.25-.32.42 0 .29.33.38.81.41 1.14.07 2.71-.01 2.71 1.62 0 1.1-1.22 1.78-2.66 1.78-1.26 0-2.18-.43-2.18-1.46zm3.88-.27c0-.78-.69-.78-1.34-.83-.33-.02-.67-.03-.97-.08-.44.28-.66.62-.66 1.05 0 .48.39.88 1.3.88 1.01.01 1.67-.4 1.67-1.02zm-.45-4.36c0-.71-.45-1.22-1.22-1.22s-1.22.51-1.22 1.22.45 1.22 1.22 1.22 1.22-.51 1.22-1.22z"/></g></g></svg>