<?xml version="1.0" encoding="utf-8"?>
<!-- Generator: Adobe Illustrator 19.2.1, SVG Export Plug-In . SVG Version: 6.00 Build 0)  -->
<svg version="1.1" id="layer" xmlns="http://www.w3.org/2000/svg" xmlns:xlink="http://www.w3.org/1999/xlink" x="0px" y="0px"
	 viewBox="0 0 652 652" style="enable-background:new 0 0 652 652;" xml:space="preserve">
<style type="text/css">
	.st0{fill:#005CA5;}
	.st1{fill:#F6772F;}
</style>
<path class="st0" d="M21.7,332.9l16.3,0v1.2c0,2.5,0.5,4.2,1.5,5.1c1,0.9,3.1,1.3,6.2,1.3h20.7c2.1,0,3.5-0.4,4.4-1.3
	c0.9-0.8,1.3-2.2,1.3-4.2s-0.5-3.4-1.5-4.3c-0.6-0.5-1.4-0.9-2.5-1.2c-1.1-0.3-2.4-0.5-4-0.5l-25.9-0.7c-3.2,0-5.9-0.4-8.1-1.2
	c-2.2-0.8-3.9-1.9-5.1-3.4c-2.3-2.8-3.4-7.9-3.4-15.3c0-3.8,0.3-7,0.9-9.5c0.6-2.5,1.6-4.5,2.9-6.1c1.6-1.8,3.6-3.1,6.2-3.9
	c2.6-0.8,6.7-1.2,12.4-1.2h25.2c6.2,0,10.7,1.4,13.5,4.2c2.7,2.8,4.1,7.3,4.1,13.6l0,1.3l-0.1,2.3H70.8v-0.3c0-2.2-0.5-3.9-1.4-5
	c-0.9-1.1-2.3-1.7-4.1-1.7h-19c-3.2,0-5.3,0.4-6.3,1.2c-1,0.8-1.5,2.1-1.5,4.1c0,1.9,0.5,3.3,1.4,4.2c0.9,0.8,2.6,1.3,5.1,1.6
	l27.2,0.6c3,0,5.6,0.4,7.8,1.3c2.2,0.9,3.9,2.2,5.2,3.8c2.5,3.2,3.8,8.7,3.8,16.5c0,4.6-0.5,8.1-1.4,10.6c-0.9,2.5-2.5,4.7-4.7,6.5
	c-1.5,1.1-3.4,1.9-6,2.4c-2.5,0.5-6.1,0.7-10.8,0.7h-22c-9,0-15.1-1.2-18.1-3.7c-3.1-2.5-4.6-7.1-4.6-13.9l0-1.9L21.7,332.9z
	 M133,304.5l10.5,23.4h-20.8L133,304.5z M116.5,343.9h32.9l5.2,11.1h18.1l-29-66.5h-21.1L93.2,355h18L116.5,343.9z M251.5,288.5H235
	v48.7l-32.2-48.7h-24.4V355h16.5v-48.4l32.4,48.4h24.2V288.5z M329.9,312.5l0-1.5l0-2.3c0-4-0.4-7.4-1.2-10.2
	c-0.8-2.8-2.1-4.9-3.7-6.5c-1.6-1.6-3.9-2.7-6.7-3.3c-1.5-0.4-3.3-0.6-5.4-0.8c-2.1-0.1-4.7-0.2-7.8-0.2h-18.5
	c-9.6,0-16.3,1.9-20,5.7c-3.7,3.8-5.5,10.4-5.5,19.9v18.1c0,4.7,0.5,8.6,1.5,11.7c1,3.1,2.6,5.7,4.7,7.8c1.9,1.8,4.2,3.1,6.8,3.8
	c2.7,0.7,6.8,1.1,12.5,1.1h18.4c9.3,0,15.9-1.3,19.6-4c3.8-2.6,5.7-7.1,5.7-13.3v-21.8h-36.6v13.4h19.4v0.2l0.1,1.8
	c0,2.6-0.9,4.4-2.7,5.5c-1.8,1.1-5.1,1.6-9.8,1.6h-9.6c-5.3,0-8.8-0.9-10.6-2.7c-1.8-1.8-2.7-5.1-2.7-9.8v-9.2
	c0-5.4,0.8-8.9,2.4-10.6c1.6-1.7,5.2-2.5,10.8-2.5h9.6c5.3,0,8.7,0.6,10.2,1.7c1.5,1.1,2.3,3.2,2.3,6.3v0.2H329.9z M464.9,307.6
	l22.2,47.4h10.8l22.3-47.4V355h16v-66.5h-24l-19.6,41.6l-19.3-41.6h-24.4V355h16.1V307.6z M581.7,304.5l10.5,23.4h-20.8L581.7,304.5
	z M565.2,343.9h32.9l5.2,11.1h18.1l-29-66.5h-21.1L541.9,355h18L565.2,343.9z"/>
<path class="st1" d="M395.3,306.7l14.2-10.1l6,10.9l-15,9.3l15,9.4l-6,10.9l-14.2-9.7l0.5,18.3h-11.8l0.5-18.3l-14.3,9.7l-5.9-10.9
	l14.9-9.4l-14.9-9.3l5.9-10.9l14.3,10.1l-0.5-18.7h11.8L395.3,306.7z M411.5,352.9c3.9,1.7,7.9,3.3,11.8,5c-2-4.7-5.1-9-7.6-13.5
	c13.6-12.4,22.8-37.7,11.9-55.2c-4.6-8-12.5-12.1-20.9-12.9c-14.5-1.5-29.6,4.1-40.8,13.9c-12.5,10.9-23.8,30.6-16.8,48.6
	c7.4,18.9,28.2,23.4,44.7,18.8c4.5-1.2,8.8-2.9,13-5C409,351.5,409.3,352,411.5,352.9 M436.4,286.6c12.8,21.5,1,45.6-13.1,61.8
	l7.8,17.2c-6.9-1.9-14.3-3-20.9-5.7c-15.8,8.7-37.1,13.4-53.7,4.5c-18.7-10.1-23.8-33.3-14.6-52.9c3.6-7.5,8.5-14.4,14.3-20.4
	c-4.3,5.7-7.6,12.2-9.2,19.1c5.5-12.4,15-22.6,24.2-29.1c13.3-9.5,29.9-12.3,44.6-8c13.9,4.2,18.8,18.2,18.8,18.2
	c-2.1-7.8-6.5-13.4-11.8-17.4C428.3,276.5,433,280.5,436.4,286.6"/>
</svg>
