<?xml version="1.0" encoding="UTF-8"?> <!-- Generator: Adobe Illustrator 25.0.1, SVG Export Plug-In . SVG Version: 6.00 Build 0) --> <svg xmlns="http://www.w3.org/2000/svg" xmlns:xlink="http://www.w3.org/1999/xlink" version="1.1" id="Logo" x="0px" y="0px" viewBox="0 0 72 72" style="enable-background:new 0 0 72 72;" xml:space="preserve"> <style type="text/css"> .st0{fill:url(#SVGID_1_);} .st1{fill:url(#SVGID_2_);} .st2{fill:#FFFFFF;} .st3{fill:#231F20;} </style> <g> <linearGradient id="SVGID_1_" gradientUnits="userSpaceOnUse" x1="72" y1="36" x2="-1.818989e-12" y2="36"> <stop offset="0" style="stop-color:#2161AD"></stop> <stop offset="0.179705" style="stop-color:#206AB3"></stop> <stop offset="0.4726674" style="stop-color:#1C82C5"></stop> <stop offset="0.8403956" style="stop-color:#17AAE1"></stop> <stop offset="1" style="stop-color:#14BDEF"></stop> </linearGradient> <circle class="st0" cx="36" cy="36" r="35.9994392"></circle> <linearGradient id="SVGID_2_" gradientUnits="userSpaceOnUse" x1="8.0644369" y1="36.0000038" x2="63.9355621" y2="36.0000038"> <stop offset="0" style="stop-color:#2161AD"></stop> <stop offset="0.179705" style="stop-color:#206AB3"></stop> <stop offset="0.4726674" style="stop-color:#1C82C5"></stop> <stop offset="0.8403956" style="stop-color:#17AAE1"></stop> <stop offset="1" style="stop-color:#14BDEF"></stop> </linearGradient> <circle class="st1" cx="36" cy="36.0000038" r="27.9355621"></circle> <g> <path class="st2" d="M13.9410362,59.7633972c0.0962067-0.0994301,0.1375103-0.211853,0.1238089-0.3372765 c-0.0137005-0.1255226-0.0881472-0.3042336-0.2231388-0.5361404c-0.1350927-0.2319031-0.2154837-0.4200859-0.2411718-0.5643463 c-0.0372744-0.2048035,0.0125923-0.3777733,0.1493979-0.5190125c0.1328754-0.1371078,0.2972841-0.193924,0.4933243-0.1703491 c0.1960402,0.023571,0.3819056,0.1204834,0.5575962,0.2907333c0.1190748,0.1153488,0.2032938,0.2415771,0.2527571,0.378582 c0.0494633,0.1371078,0.0603437,0.2717972,0.0325394,0.4039688c-0.0279055,0.1322708-0.0906668,0.2488289-0.1884851,0.3498688 l-0.1527224-0.1479874c0.1188736-0.1226997,0.1724672-0.2619209,0.1609831-0.4175644 c-0.0115852-0.1556435-0.0879459-0.3019218-0.2291842-0.4387245c-0.1371069-0.1328773-0.2759266-0.2080307-0.4166603-0.2255592 c-0.1406336-0.0174255-0.2587013,0.0231705-0.3543034,0.1217957c-0.0884495,0.0912704-0.124011,0.2011795-0.1067848,0.3295212 c0.0173273,0.1283417,0.0851259,0.29245,0.203495,0.4924164c0.118269,0.1998711,0.1960402,0.3635712,0.2332134,0.4912109 c0.0371733,0.1275368,0.0449305,0.2443962,0.0231705,0.3506775c-0.0218611,0.1062813-0.0760584,0.2042007-0.162796,0.2936554 c-0.1368055,0.1412392-0.3030262,0.1998672-0.4986639,0.1757927c-0.1956367-0.0239754-0.3857336-0.1254234-0.5704908-0.3044357 c-0.1265297-0.1225014-0.2206211-0.2574921-0.2823744-0.4047737c-0.0617542-0.1473846-0.080492-0.2882195-0.0564146-0.4224052 c0.0241776-0.1341858,0.0871401-0.2537651,0.1889877-0.3589363l0.1515131,0.1467781 c-0.1224995,0.1265297-0.1719627,0.2719994-0.1482887,0.4365082c0.0235729,0.164608,0.1138363,0.3227692,0.2706881,0.4747887 c0.1395254,0.1351929,0.2814684,0.2129631,0.4256277,0.2333107C13.7209187,59.9058456,13.842411,59.8651466,13.9410362,59.7633972 z"></path> <path class="st2" d="M16.2169571,61.0674782c-0.1478863,0.1758957-0.3081646,0.3047409-0.480732,0.3866425 c-0.1726685,0.0819016-0.3456392,0.1112175-0.5188122,0.088047c-0.173172-0.0231705-0.3337517-0.0969124-0.481638-0.2212257 c-0.2231398-0.1875763-0.3362703-0.4189796-0.3393936-0.6941986c-0.0031233-0.2752228,0.1094036-0.5484314,0.3374796-0.819725 l0.1655159-0.196846c0.1463757-0.1741791,0.3069553-0.3024216,0.4815378-0.3849258 c0.1745825-0.0824051,0.3487625-0.1123276,0.522337-0.0895576c0.1735764,0.0226631,0.3338528,0.0959015,0.4808331,0.2195129 c0.1469803,0.1235046,0.2469139,0.2680664,0.2998028,0.4334831c0.0527878,0.1654167,0.0554066,0.3385887,0.0078583,0.519619 c-0.0476513,0.1810265-0.141943,0.3579292-0.2827778,0.5307999L16.2169571,61.0674782z M16.2298508,60.7243576 c0.1935234-0.2301903,0.2930546-0.4541359,0.2984943-0.6721382c0.0055408-0.2178993-0.0823059-0.4030609-0.2634354-0.5552788 c-0.1776047-0.1493988-0.3741493-0.2029915-0.589633-0.1607819c-0.2153816,0.0421104-0.4216976,0.1805267-0.6188459,0.4149513 l-0.1677322,0.1995659c-0.1906004,0.2266655-0.2891245,0.4504089-0.2955723,0.6712303 c-0.0064468,0.2208214,0.080492,0.4069901,0.2607155,0.5586052c0.1829443,0.1537285,0.380496,0.2082291,0.5928564,0.1635017 c0.2123594-0.0447311,0.4168625-0.1838531,0.613204-0.4175682L16.2298508,60.7243576z"></path> <path class="st2" d="M17.9029427,62.7163925c-0.1771011,0.1964455-0.3711262,0.3044395-0.5820751,0.3241844 c-0.2109509,0.0197449-0.4239159-0.0481567-0.638895-0.2033958c-0.1502037-0.1083946-0.2557793-0.2418785-0.317028-0.4002419 c-0.0611496-0.1583633-0.0735416-0.329216-0.0371742-0.5123634c0.0363674-0.1831436,0.1179676-0.3634682,0.2448997-0.5411758 l0.1897945-0.2627296c0.1298542-0.179821,0.2765312-0.3165245,0.4399319-0.4100113s0.3314362-0.1352959,0.5042038-0.1255226 c0.1726685,0.0097733,0.3359699,0.0702171,0.4897995,0.1813316c0.2168941,0.1566505,0.3459415,0.3386879,0.3872452,0.5462112 c0.0412025,0.2074242-0.0026188,0.4219017-0.1314659,0.6432266l-0.1723671-0.1244125 c0.2056103-0.3746529,0.1430511-0.6815071-0.1877785-0.9204636c-0.1835499-0.132473-0.3792877-0.169445-0.5873165-0.1108131 c-0.2080269,0.0586319-0.3995342,0.209034-0.5743179,0.4511147L16.751585,61.498951 c-0.1688404,0.2337151-0.2504406,0.4584656-0.2447987,0.6742516s0.0988255,0.3888588,0.2795544,0.5194168 c0.1789131,0.1291504,0.3446312,0.183651,0.4974537,0.1636009c0.1527214-0.0201454,0.3016167-0.1082954,0.4467831-0.2643394 L17.9029427,62.7163925z"></path> <path class="st2" d="M18.7941914,64.2012024l0.8730145-1.4440079l-0.2627316-0.1587677l0.0869389-0.143856l0.2627316,0.1587677 l0.1161518-0.192215c0.0982227-0.1623917,0.2149811-0.2621231,0.350275-0.2992973 c0.135294-0.0370712,0.2768326-0.0109825,0.4245186,0.0783768c0.0665894,0.0401955,0.1237087,0.0860291,0.1714592,0.1374092 l-0.1011429,0.1375084c-0.0418072-0.0413017-0.0915737-0.079483-0.1492977-0.1143379 c-0.0969105-0.0585327-0.1904984-0.0739441-0.2807617-0.0461388c-0.0902634,0.0278015-0.1689415,0.0971107-0.2359333,0.2080269 l-0.1191769,0.1971474l0.378582,0.2288818L20.22188,63.092556l-0.3785801-0.228878l-0.8730145,1.4440079L18.7941914,64.2012024z"></path> <path class="st2" d="M20.0831604,63.8661423c0.0845222-0.1570549,0.1911049-0.282074,0.3198509-0.3750572 c0.1286449-0.0930824,0.2673645-0.1445618,0.4162579-0.1546364s0.2938595,0.0228691,0.4347954,0.0987244 c0.2173958,0.1171608,0.3523884,0.2882195,0.4051762,0.5133743c0.0527878,0.2251511,0.0113831,0.463501-0.1241112,0.7151566 L21.51478,64.7014771c-0.0851269,0.157959-0.1922131,0.283783-0.3210602,0.3772736 c-0.1289463,0.093483-0.2672634,0.1446609-0.4147472,0.1535263c-0.1476841,0.0087662-0.292347-0.0249863-0.4342899-0.1014481 c-0.2163906-0.1165543-0.3512802-0.2875061-0.4044724-0.5129623c-0.0532913-0.2253571-0.0120888-0.463913,0.1234074-0.7155609 L20.0831604,63.8661423z M20.2374954,64.0135269c-0.1051731,0.1952286-0.1409359,0.3828125-0.1072884,0.5625305 c0.0336475,0.1798172,0.1325741,0.3139038,0.2965794,0.4022522c0.1630974,0.0878448,0.3289165,0.0963135,0.4975548,0.0254898 s0.3082657-0.2089386,0.4188766-0.4142456l0.0187378-0.0346527c0.067194-0.1248169,0.1055756-0.2515488,0.1151466-0.3801956 c0.00947-0.12854-0.0121899-0.2437897-0.0650787-0.3456383c-0.0529881-0.1019478-0.1332779-0.1818352-0.2409706-0.2398605 c-0.1609821-0.0867386-0.3263969-0.0942917-0.4960442-0.0227661c-0.1697464,0.0716248-0.3095741,0.2095375-0.4196835,0.4138374 L20.2374954,64.0135269z"></path> <path class="st2" d="M23.0421009,64.5603409c-0.0358639-0.0258865-0.0759583-0.0493622-0.1203861-0.0704193 c-0.1156483-0.0550003-0.2287807-0.0692062-0.3394928-0.0427094c-0.110714,0.0264893-0.2122593,0.0930786-0.304739,0.1997681 l-0.5469189,1.1507492l-0.1843548-0.0876389l0.7965527-1.6758118l0.1812325,0.0861282l-0.1235085,0.267868 c0.1923141-0.1516113,0.3968163-0.1758881,0.6137085-0.0728302c0.0515804,0.0245743,0.0891552,0.0506668,0.1127281,0.07827 L23.0421009,64.5603409z"></path> <path class="st2" d="M25.0974007,66.5453262c0.0492611-0.1292496,0.0428143-0.2488327-0.0192413-0.3587341 c-0.0620556-0.1100082-0.2008762-0.2449036-0.41646-0.4047775s-0.3635712-0.3010101-0.4441643-0.4235077 c-0.1149445-0.1734772-0.1373081-0.3520889-0.0672932-0.5358429c0.0679989-0.1784058,0.1967449-0.2954712,0.3862381-0.3510742 c0.1893902-0.0556107,0.3984261-0.0397949,0.6270065,0.047348c0.1549377,0.0590286,0.2820721,0.1418381,0.3816032,0.2482224 c0.0995312,0.1064835,0.1625938,0.2259598,0.1890888,0.358429c0.0265961,0.1324768,0.0148087,0.2644501-0.0352592,0.395813 l-0.1986599-0.0757599c0.0608482-0.159668,0.0553074-0.3086624-0.0167217-0.4471817 c-0.0719299-0.1385193-0.1998692-0.2428894-0.3835182-0.3129044c-0.1784115-0.0679932-0.3356667-0.0822983-0.4718666-0.0429153 c-0.1361008,0.0393906-0.2286797,0.1232071-0.2776394,0.2516556c-0.0452328,0.1187668-0.0346546,0.2337112,0.0318336,0.3448334 c0.0664883,0.1111145,0.1935215,0.2352219,0.3810997,0.3723297s0.3235779,0.2568893,0.4079971,0.3594437 c0.0845203,0.1025543,0.1377125,0.2069168,0.1595726,0.3132019c0.0218601,0.1061783,0.0106792,0.217598-0.0337486,0.3339539 c-0.070013,0.1837463-0.199667,0.3031235-0.3889561,0.3582306c-0.1891899,0.0551071-0.4039688,0.0368729-0.6443348-0.0548019 c-0.1645088-0.0627594-0.3042355-0.149704-0.4190788-0.2607193c-0.1148434-0.1111145-0.1876793-0.2331085-0.2183037-0.3658829 c-0.0307255-0.1328812-0.0200481-0.2676697,0.032135-0.4043732l0.1970482,0.0751495 c-0.0627613,0.1645126-0.0507717,0.3177338,0.0357628,0.4595795c0.0866375,0.1419449,0.231905,0.2517471,0.4360027,0.3296204 c0.1815338,0.0692062,0.3426189,0.0847244,0.4832516,0.0465393 C24.9513264,66.7631226,25.0468292,66.6777954,25.0974007,66.5453262z"></path> <path class="st2" d="M26.2308273,67.5978546c-0.1506062-0.0469437-0.2752228-0.1264267-0.3738461-0.2385483 c-0.0986252-0.1121216-0.1610832-0.2451019-0.1873779-0.3987274c-0.0263939-0.1537323-0.0139008-0.3130035,0.0373745-0.4778137 l0.0219612-0.0704193c0.05299-0.1702499,0.1337833-0.3133011,0.242382-0.4292526 c0.1084976-0.1158524,0.2338181-0.1944275,0.3760624-0.235733c0.1421452-0.0412979,0.2820721-0.040596,0.4195824,0.0022202 c0.2149792,0.0669937,0.3626652,0.1935196,0.4430561,0.3795853c0.0802898,0.1860657,0.0808945,0.4062881,0.0017128,0.660553 l-0.0341511,0.1097107l-1.2639866-0.3935928l-0.0117874,0.0375748c-0.0625591,0.2008743-0.0570183,0.3860321,0.0164204,0.5556793 c0.0735416,0.169548,0.1976528,0.2815704,0.3722363,0.335968c0.1047688,0.0326462,0.2032928,0.0423126,0.2953701,0.0291138 c0.0921764-0.0131912,0.1840515-0.0516739,0.2757244-0.1153412l0.093689,0.1315613 C26.7462139,67.6439972,26.5047398,67.6831818,26.2308273,67.5978546z M26.7149849,65.9166031 c-0.1473827-0.0459366-0.2884197-0.0305252-0.423008,0.0460434c-0.1345901,0.0766602-0.2412739,0.2026901-0.3198509,0.3781738 l1.0626068,0.3309326l0.006649-0.0212555c0.0475502-0.1719666,0.0421104-0.3256912-0.0162182-0.4612885 C26.966835,66.0537109,26.8633747,65.9628448,26.7149849,65.9166031z"></path> <path class="st2" d="M28.6165543,66.480545c-0.0400944-0.018631-0.0839157-0.0341492-0.1314659-0.0465393 c-0.123909-0.032135-0.2377453-0.0247803-0.3414078,0.0220642c-0.1037617,0.0469437-0.1910038,0.1314621-0.2616215,0.2536621 l-0.3201523,1.2332611l-0.1975517-0.0512772l0.4662247-1.7958908l0.1942272,0.0503693l-0.0708199,0.2863998 c0.1602783-0.1851578,0.3566208-0.2476196,0.5889263-0.1872711c0.0553074,0.0143051,0.0972137,0.0328369,0.1255226,0.055603 L28.6165543,66.480545z"></path> <path class="st2" d="M29.2387257,68.0485687l0.8752308-1.4229507l0.2064171,0.0433121l-1.0591831,1.6735001l-0.162796-0.0341568 l-0.3002052-1.9588852l0.2064171,0.0433121L29.2387257,68.0485687z"></path> <path class="st2" d="M30.5543919,68.5837021l-0.2028904-0.034256l0.309473-1.8295364l0.2028904,0.0343475L30.5543919,68.5837021z M30.7147694,66.185585c0.0064487-0.0380859,0.0242786-0.0682068,0.0535946-0.0903702 c0.0292149-0.0221634,0.065279-0.0296173,0.1080933-0.0223618c0.0428162,0.0072556,0.0747509,0.0261917,0.0956039,0.0568161 c0.0209541,0.0306244,0.0282059,0.0649796,0.021759,0.1030579s-0.02458,0.0679016-0.0542984,0.0893555 c-0.0297184,0.0214615-0.0659847,0.0286102-0.108799,0.0213623c-0.0428162-0.0072556-0.0745487-0.0258942-0.0948982-0.0558167 C30.715374,66.2576141,30.7083225,66.2236633,30.7147694,66.185585z"></path> <path class="st2" d="M31.8719711,68.6350784c0.1417427,0.0179291,0.2655525-0.0069504,0.3715286-0.0747528 c0.1059799-0.0677948,0.1709595-0.1647034,0.195034-0.2907333l0.1956367,0.0247803 c-0.0198441,0.1115189-0.067997,0.2094421-0.1443596,0.293663c-0.0763626,0.0843124-0.1714592,0.145668-0.2851944,0.1842499 c-0.1138382,0.0385818-0.2320061,0.0501709-0.3544044,0.0346527c-0.2415752-0.0306244-0.4224033-0.1388168-0.542284-0.324585 c-0.1199818-0.1857605-0.1619911-0.4203873-0.1260262-0.7039719l0.0077572-0.0611496 c0.0229683-0.1815338,0.0750523-0.3379822,0.1562481-0.4694443c0.0811958-0.1314697,0.1858654-0.2276764,0.3140068-0.28862 c0.1281414-0.0609512,0.271595-0.081398,0.4304638-0.0612488c0.2018814,0.0255814,0.3606491,0.106781,0.4763985,0.2435837 c0.1157494,0.1368103,0.1657181,0.3039322,0.1500015,0.5012817l-0.1956367-0.0247803 c0.0091667-0.1451645-0.0280037-0.2680664-0.1115189-0.3685074c-0.0835152-0.1004333-0.1972504-0.1597748-0.3413086-0.1781082 c-0.1836491-0.0232697-0.3347588,0.0249863-0.4530277,0.1448669c-0.1183701,0.1198807-0.1926155,0.2994003-0.2229385,0.5387573 l-0.007555,0.0595398c-0.0298195,0.2347183-0.0022163,0.4243164,0.0826073,0.568779 C31.5522232,68.5277863,31.6871147,68.6116028,31.8719711,68.6350784z"></path> <path class="st2" d="M33.7711258,68.9908905c-0.1573563-0.0108795-0.2969818-0.059433-0.4187775-0.1457672 c-0.1218948-0.0863342-0.2133675-0.2011795-0.2745171-0.344635s-0.0857315-0.3013153-0.0739441-0.4734802l0.0051384-0.0736389 c0.012291-0.1779099,0.0578232-0.3357697,0.1366043-0.4735794c0.0788803-0.1378098,0.1826401-0.243187,0.3114891-0.3163223 c0.128746-0.0730362,0.2650452-0.1045685,0.4087029-0.094696c0.2246475,0.0155106,0.3976212,0.1044693,0.5188103,0.2669601 c0.1210899,0.1624908,0.1725693,0.3766708,0.154232,0.6423187l-0.0079575,0.1146393l-1.3207016-0.0910645l-0.0027199,0.0393906 c-0.0144081,0.2098389,0.0336456,0.3887558,0.1443596,0.5367432c0.110714,0.1480865,0.2572899,0.2283783,0.4397316,0.2408676 c0.1095047,0.0075531,0.2075233-0.0056381,0.2941589-0.0397949c0.0865364-0.0341492,0.1671295-0.0927811,0.2415771-0.1758881 l0.1215935,0.1063766C34.283287,68.916748,34.0574265,69.0106354,33.7711258,68.9908905z M33.8538322,67.2432556 c-0.1540298-0.010582-0.2876129,0.036972-0.4008446,0.1425476c-0.1133347,0.1056747-0.1879807,0.2529526-0.2238464,0.4418411 l1.11026,0.076561l0.0015106-0.0222626c0.006546-0.1783066-0.034153-0.3266983-0.1222992-0.4450684 C34.1305656,67.3185043,34.008873,67.2540283,33.8538322,67.2432556z"></path> <path class="st2" d="M37.731926,67.8859711c0.0054398,0.2296906-0.0296211,0.4323807-0.1049728,0.6079712 c-0.0753555,0.1755905-0.1856651,0.3118896-0.3309326,0.4091034c-0.1452675,0.0971146-0.3145103,0.1479874-0.5076294,0.15242 c-0.2914391,0.0068512-0.5292892-0.0918732-0.7136421-0.2962723c-0.1842537-0.2044067-0.2805595-0.483757-0.2888222-0.8380585 l-0.0060425-0.2571945c-0.0052414-0.2273712,0.030323-0.4297562,0.1067848-0.6071548 c0.0764618-0.1773071,0.1872749-0.3148193,0.3325424-0.4125366s0.3139038-0.1488876,0.5059166-0.1533203 c0.192009-0.0045395,0.3624611,0.0377731,0.5115585,0.1269302c0.1489944,0.0891571,0.2654495,0.2173996,0.3494682,0.3847275 c0.0839157,0.1672287,0.1301537,0.3622589,0.1388168,0.5850983L37.731926,67.8859711z M37.5147285,67.620018 c-0.0069504-0.3006058-0.0804901-0.5344238-0.22052-0.7015533c-0.1399269-0.1671295-0.3282127-0.2479172-0.5648499-0.2423782 c-0.2320061,0.0054398-0.4148483,0.0951996-0.5485306,0.2691803c-0.1337814,0.1741791-0.1970482,0.4143372-0.1898956,0.7205887 l0.0060463,0.2606201c0.0069504,0.2959671,0.0809937,0.5289841,0.2222328,0.6989288 c0.1411362,0.1699524,0.3294182,0.2521515,0.564949,0.2467117c0.2388535-0.0056381,0.4231071-0.0953979,0.5528641-0.2693787 c0.1297531-0.1739731,0.1910019-0.4135361,0.1839485-0.7186737L37.5147285,67.620018z"></path> <path class="st2" d="M39.052021,67.2077942c-0.0439224-0.0045395-0.0904617-0.004837-0.1394234-0.0010071 c-0.127636,0.01017-0.232811,0.0543976-0.3154182,0.1325684c-0.0827065,0.0782776-0.1374092,0.1867752-0.1642036,0.3252945 l0.1008415,1.2701263l-0.2033958,0.0162201l-0.1469803-1.8496857l0.1999702-0.0158157l0.0267944,0.2937546 c0.0908699-0.2274704,0.2559814-0.3506775,0.4953423-0.3697128c0.0569153-0.0045319,0.1025505-0.0007095,0.1368027,0.0114822 L39.052021,67.2077942z"></path> <path class="st2" d="M39.349205,67.9226456c-0.0370712-0.2880173-0.0026169-0.5244522,0.1033592-0.7092133 c0.1058807-0.1847534,0.2682724-0.2912369,0.4871788-0.3193436c0.2505417-0.0322418,0.4538345,0.0431137,0.6098824,0.2259598 l-0.0238762-0.2666626l0.1905022-0.0244751l0.2317009,1.8028412c0.0304222,0.2369385-0.0117874,0.4331818-0.1266289,0.5885239 c-0.1149445,0.1554413-0.2857018,0.2477188-0.5124664,0.2768326c-0.1281433,0.0165253-0.2540665,0.0035248-0.3775749-0.0387802 c-0.1236076-0.0423126-0.2249527-0.1067886-0.3041344-0.1934204L39.7253685,69.1278 c0.1667252,0.1583633,0.349369,0.2247467,0.5477257,0.1992645c0.1701508-0.0218658,0.2963753-0.0890579,0.3786812-0.201683 c0.0824051-0.1125259,0.1138382-0.2580948,0.0942917-0.4365082l-0.0297165-0.2313995 c-0.1070862,0.1982574-0.2853966,0.3133011-0.5348282,0.3454361c-0.2131691,0.0274048-0.3953056-0.0356598-0.5464172-0.1891861 c-0.1511078-0.1534271-0.2453003-0.3747559-0.2823715-0.6638794L39.349205,67.9226456z M39.5595512,67.9319153 c0.0302238,0.2347183,0.1010437,0.4137344,0.2125626,0.5371399c0.1115189,0.1234131,0.2528572,0.1741791,0.4241142,0.1521225 c0.2506409-0.0322418,0.4136391-0.1672287,0.4890938-0.4051819l-0.1099052-0.855484 c-0.0628624-0.1118164-0.142952-0.1929169-0.2404671-0.243187c-0.0975189-0.0502701-0.20924-0.0672913-0.3350639-0.0511703 c-0.171257,0.0220566-0.2958717,0.1063766-0.3738441,0.2529526S39.5259056,67.6699905,39.5595512,67.9319153z"></path> <path class="st2" d="M42.7228928,68.349678c-0.0311279-0.0533905-0.0602417-0.1356964-0.0873413-0.2470093 c-0.0530891,0.1056747-0.1296539,0.193924-0.2295876,0.26474c-0.0999336,0.0708237-0.2111511,0.1180725-0.3335495,0.1414413 c-0.17519,0.0334473-0.3262978,0.0116882-0.4532318-0.0653763c-0.1271324-0.076973-0.2048035-0.1901016-0.2334137-0.3395004 c-0.0338478-0.1773987,0.013195-0.3318329,0.1411362-0.4634018c0.1279411-0.1314697,0.3237801-0.222435,0.587719-0.2729034 l0.3654861-0.0698166l-0.0395927-0.2071228c-0.0248833-0.1302567-0.0845222-0.2250519-0.1791153-0.2843857 c-0.0945969-0.0593338-0.218708-0.0743484-0.3725357-0.0449295c-0.1404343,0.0267944-0.2497368,0.0849228-0.3281136,0.1743774 c-0.078373,0.0894623-0.1078911,0.1846619-0.0885506,0.2858047l-0.2024879,0.0368652 c-0.0277023-0.1448593,0.0157166-0.2831802,0.1302567-0.4150467c0.1144409-0.1318665,0.2699852-0.2165909,0.4664268-0.2540665 c0.2032967-0.038887,0.3732452-0.0186386,0.5100479,0.0605469c0.1367073,0.079277,0.2241478,0.2094345,0.2623291,0.39077 l0.164711,0.8623352c0.0336456,0.1763916,0.0773659,0.3047409,0.1311607,0.385231l0.00383,0.0202484L42.7228928,68.349678z M42.0619354,68.3257065c0.1346893-0.0256882,0.2489281-0.0811996,0.342617-0.166626s0.1542358-0.1871719,0.181736-0.3053436 l-0.076561-0.4008408l-0.3604507,0.0688019c-0.200573,0.0406952-0.3507767,0.1074905-0.4506111,0.2003708 c-0.0997314,0.0929871-0.1377106,0.2017822-0.1139336,0.3264999c0.0195427,0.10215,0.0736389,0.179718,0.1622887,0.2326126 C41.8356743,68.3340683,41.9406433,68.348877,42.0619354,68.3257065z"></path> <path class="st2" d="M43.2422066,66.3338699l0.0850258,0.305748c0.0392876-0.1280441,0.1019478-0.2339172,0.1878815-0.3178329 c0.0860291-0.0838165,0.1898956-0.1413422,0.3117905-0.1723709c0.1927147-0.0491562,0.350071-0.0314255,0.4718666,0.053093 c0.1218948,0.0845184,0.2110481,0.2352295,0.2674637,0.4521179l0.3009109,1.1797714l-0.1977539,0.0503693l-0.3013115-1.1813812 c-0.0420113-0.1603775-0.1065826-0.2712936-0.1937256-0.3329468c-0.0870399-0.0614471-0.2042999-0.0735397-0.3515816-0.035965 c-0.1230049,0.0313339-0.2219315,0.0976181-0.297081,0.198761c-0.0750542,0.1011429-0.1186752,0.2229385-0.130764,0.3651886 l0.3140068,1.2312393l-0.1977501,0.0504761l-0.4584694-1.7979126L43.2422066,66.3338699z"></path> <path class="st2" d="M44.737896,65.3759308c-0.0111809-0.036972-0.008564-0.0718231,0.0078583-0.1046677 c0.0163193-0.0328369,0.0452309-0.0555038,0.0868378-0.0681c0.0416069-0.0124893,0.0785789-0.0097733,0.1109161,0.0083618 s0.0540962,0.045639,0.0652771,0.0827103c0.0111847,0.036972,0.0081596,0.0716248-0.0088654,0.1040649 c-0.017025,0.0325394-0.0464401,0.0550003-0.087944,0.0674896c-0.0416069,0.0125961-0.0782776,0.0100784-0.1099091-0.0077515 C44.7704353,65.4403076,44.7490768,65.413002,44.737896,65.3759308z M45.6605759,67.5953369l-0.1970482,0.0595398 l-0.5362396-1.7762527l0.1969452-0.0595322L45.6605759,67.5953369z"></path> <path class="st2" d="M46.3264656,67.2049713l1.1391716-0.3944016l0.0566139,0.1637039L46.143219,67.451683l-0.0493622-0.1426468 l0.5638428-1.8102036l-1.0306702,0.3567276l-0.0583305-0.168541l1.2753716-0.4414444l0.0503693,0.145668L46.3264656,67.2049713z"></path> <path class="st2" d="M49.0331535,66.3635864c-0.0413055-0.0460358-0.086235-0.1207809-0.1351929-0.2243423 c-0.0308266,0.1141357-0.088047,0.2158813-0.1718636,0.3053436c-0.0836143,0.0895538-0.1831474,0.1580582-0.2981911,0.2055054 c-0.1650124,0.0679016-0.3173332,0.0768661-0.4573593,0.0269012c-0.1398277-0.0498657-0.2387543-0.1451721-0.2965813-0.2858047 c-0.0689049-0.1669235-0.0537949-0.3277054,0.0451317-0.4822388c0.0989265-0.1544342,0.2726059-0.2828827,0.5210304-0.385231 l0.3441277-0.1417389l-0.0803909-0.1950378c-0.0505714-0.1225967-0.1279411-0.2034912-0.2325096-0.2426834 c-0.1045685-0.0390854-0.2292824-0.0289078-0.3741493,0.0307312c-0.1319695,0.0544968-0.2274704,0.1333771-0.2863007,0.2367325 c-0.0588341,0.103363-0.0687065,0.2025909-0.0294189,0.2976913l-0.1910019,0.0768661 c-0.0562134-0.1364059-0.0413017-0.2806625,0.0443268-0.432785c0.0856285-0.1521149,0.2210236-0.2663498,0.405983-0.342514 c0.1914062-0.0788803,0.3620605-0.0931854,0.5117607-0.0430145c0.1498985,0.0501709,0.2617226,0.1601791,0.3354645,0.3301239 l0.3344536,0.8118668c0.0683022,0.1659164,0.1370087,0.2829742,0.2057114,0.350975l0.0078583,0.019043L49.0331535,66.3635864z M48.3807602,66.4728928c0.1269302-0.0522842,0.2276726-0.1296539,0.3022194-0.2321091 c0.074749-0.1024475,0.113636-0.2142715,0.1168594-0.3355637l-0.1555443-0.3773727l-0.3392906,0.1397324 c-0.188385,0.0800858-0.3219681,0.1756897-0.4011497,0.2868042s-0.0944939,0.2252579-0.0461388,0.3426132 c0.0394897,0.0962067,0.1081963,0.1612854,0.205513,0.1953354C48.1607437,66.5263824,48.2665215,66.5198364,48.3807602,66.4728928 z"></path> <path class="st2" d="M49.0446358,63.7992477l0.2018852,0.4299622l0.3477554-0.1632004l0.0713234,0.1522217l-0.3477554,0.1630936 l0.5258636,1.1205368c0.0437202,0.0932846,0.0930824,0.1548309,0.1480865,0.1846542 c0.0550041,0.0298157,0.1218948,0.0261917,0.200676-0.0106812c0.0310287-0.0146027,0.0787773-0.0433197,0.1432533-0.086235 l0.0785751,0.1472855c-0.0404968,0.0401917-0.1027527,0.0799866-0.1865692,0.1193771 c-0.1273346,0.0597382-0.2371445,0.066185-0.3298225,0.0193405c-0.0926819-0.0467453-0.1728706-0.1421432-0.2403679-0.2860031 l-0.5258636-1.1208344l-0.3090706,0.1449661l-0.0713234-0.1521149l0.3088684-0.1449661l-0.2016792-0.4300575 L49.0446358,63.7992477z"></path> <path class="st2" d="M49.7153664,63.4061623c-0.0175285-0.0344543-0.0211563-0.0692101-0.0106812-0.1044693 c0.0102768-0.0351562,0.0348587-0.0625572,0.0735397-0.0822029c0.0386848-0.0196457,0.0757599-0.0233727,0.1106148-0.0111809 c0.0350571,0.0120888,0.0612488,0.0354576,0.0787773,0.069912s0.020752,0.0691071,0.0094719,0.1040649 c-0.0110817,0.0349579-0.036068,0.0622559-0.074749,0.0819016c-0.0386848,0.0196457-0.0751534,0.0234718-0.1094055,0.0115852 S49.7326927,63.4406166,49.7153664,63.4061623z M51.0126953,65.4295273l-0.183548,0.0930862l-0.8393669-1.6547585 l0.183548-0.0930862L51.0126953,65.4295273z"></path> <path class="st2" d="M51.0006065,64.371048c-0.0876427-0.1554413-0.1364021-0.312294-0.1462746-0.4707565 s0.020752-0.3033295,0.091877-0.4345932c0.070919-0.1311646,0.1760941-0.2361336,0.3157196-0.3147125 c0.2149773-0.1211891,0.4317703-0.1439552,0.6503754-0.0683022c0.2184067,0.0757599,0.3979263,0.2380524,0.5381546,0.4870796 l0.0211563,0.0373764c0.088047,0.1563492,0.137207,0.3140068,0.1472816,0.4729767 c0.0102768,0.1589661-0.0203476,0.3031235-0.0916748,0.4325714c-0.0715256,0.1294556-0.1772995,0.2337189-0.3177338,0.3129044 c-0.2141724,0.1206818-0.4307632,0.1432495-0.6497726,0.067894c-0.2190094-0.0754547-0.3987312-0.2376404-0.5389595-0.4865723 L51.0006065,64.371048z M51.2075272,64.3192673c0.1090012,0.193222,0.2484245,0.3236847,0.4182739,0.3912811 c0.1700478,0.0675964,0.3362694,0.055603,0.4984627-0.0358658c0.1613846-0.0908661,0.2572899-0.2265625,0.2875099-0.4069901 c0.0302238-0.1804276-0.0118866-0.3721352-0.1265297-0.5753288l-0.0193405-0.0343513 c-0.0695114-0.1235085-0.156147-0.2236443-0.2597084-0.3004074c-0.1037636-0.0767632-0.2127647-0.1199799-0.3270035-0.1297531 c-0.1144409-0.0096703-0.2248497,0.0155144-0.3314323,0.0755539c-0.1593704,0.0897598-0.2540665,0.2255592-0.2842903,0.4071922 c-0.03022,0.181736,0.0116844,0.3736458,0.1257248,0.5758324L51.2075272,64.3192673z"></path> <path class="st2" d="M52.5139236,62.4517479l0.1783104,0.2625313c-0.003624-0.1338844,0.0217628-0.2542686,0.0763626-0.3612556 c0.0548019-0.106987,0.1347885-0.1946297,0.2403641-0.263031c0.1668282-0.1081963,0.3215637-0.1417427,0.4640121-0.1006393 c0.1424446,0.0412025,0.275219,0.1554413,0.3981247,0.3428192l0.6622658,1.0216026l-0.1712608,0.1110191l-0.6632729-1.0230179 c-0.0910683-0.1385193-0.1877785-0.2229385-0.2899284-0.2534637c-0.10215-0.0304222-0.2171974-0.0043297-0.3447342,0.0783768 c-0.1063805,0.0690079-0.1791153,0.1635017-0.2178001,0.2832832c-0.0388832,0.1198807-0.0413017,0.2491302-0.0072517,0.3878479 l0.6912766,1.0662308l-0.171257,0.1109161l-1.0092125-1.5568352L52.5139236,62.4517479z"></path> <path class="st2" d="M55.6584282,61.9610443c-0.0602417-0.0819016-0.1416397-0.1236076-0.2439919-0.1249161 c-0.1025543-0.0013123-0.2302933,0.0327377-0.3836212,0.10215c-0.1533241,0.0694084-0.2798538,0.1128273-0.3799896,0.1302567 c-0.0999336,0.0174294-0.1869736,0.0129967-0.2609177-0.0135002c-0.0741463-0.0263939-0.1386185-0.0769653-0.1934204-0.1516151 c-0.0866356-0.1178627-0.1090012-0.2514458-0.0668907-0.4008446c0.0419083-0.149395,0.1398277-0.2805595,0.2937584-0.393692 c0.1666222-0.1224976,0.3308296-0.1796188,0.4922142-0.1713562c0.1615868,0.0082588,0.2909393,0.0787773,0.3884544,0.2113495 l-0.1658173,0.1218987c-0.0642738-0.0874443-0.154335-0.1333809-0.2701874-0.1375122 c-0.1160507-0.0042305-0.2296867,0.0346565-0.3411026,0.1165581c-0.1088028,0.0798874-0.1783104,0.1682358-0.2085342,0.2650452 c-0.03022,0.0967102-0.0169258,0.1838531,0.0398941,0.261219c0.0548019,0.0745468,0.1247139,0.1122246,0.2097397,0.1129303 c0.0848236,0.0007057,0.2123604-0.0351562,0.3826103-0.1077919c0.1700516-0.0725327,0.3054466-0.1160507,0.4061852-0.130558 c0.1007385-0.0144081,0.1885872-0.0073547,0.2635345,0.0212555c0.0749512,0.0286102,0.1408348,0.0816002,0.1978569,0.1589661 c0.0926781,0.1262283,0.1160507,0.2645454,0.0697098,0.4148483c-0.0463409,0.1503067-0.15131,0.2858009-0.3153152,0.4062843 c-0.1740799,0.1280441-0.346344,0.1895943-0.5163956,0.1848602c-0.1702499-0.0046349-0.3028221-0.0715256-0.3975182-0.2004738 l0.1658173-0.1218948c0.0775681,0.0919762,0.1736755,0.13731,0.2883186,0.1359978 c0.1146431-0.0013084,0.2337151-0.047245,0.3572235-0.1380119c0.1150475-0.0846214,0.1893921-0.1783104,0.2232399-0.2811661 C55.7269325,62.1285744,55.7152443,62.038414,55.6584282,61.9610443z"></path> <path class="st2" d="M58.3548393,60.9418564l-0.1291504,0.1153488l-1.9702759-2.2087288l0.1291504-0.115345L58.3548393,60.9418564 z"></path> <path class="st2" d="M60.1965675,57.5343208c-0.0807915-0.0742455-0.1692429-0.103054-0.2651482-0.0864334 c-0.0961037,0.0166206-0.2343216,0.0785751-0.4150467,0.1857643c-0.1809311,0.1071892-0.3386879,0.1794167-0.4738846,0.2166939 c-0.2591019,0.070919-0.4732742,0.0286102-0.6425171-0.1268349c-0.1482925-0.136097-0.2149811-0.308567-0.1998711-0.517601 c0.0149117-0.2089348,0.1110153-0.4098129,0.2881165-0.6026268c0.117466-0.1280403,0.2458076-0.2204208,0.3850288-0.2773399 c0.139225-0.0569153,0.2786484-0.0739403,0.4184761-0.0511742c0.1396255,0.0227661,0.2625275,0.0829086,0.3687096,0.1803246 l-0.2923508,0.3182373c-0.0961037-0.0881462-0.1988602-0.1270332-0.3084641-0.1167564 c-0.1096039,0.010376-0.215786,0.0715256-0.3185425,0.183548c-0.0959015,0.1043663-0.1480865,0.2059135-0.1563454,0.3045387 c-0.0084648,0.0987244,0.027401,0.1847572,0.1073875,0.258194c0.0672951,0.0618553,0.1521187,0.0824051,0.2544708,0.061451 c0.10215-0.0209503,0.2403641-0.0834122,0.4142418-0.1875763c0.1740799-0.1040649,0.3280106-0.1745834,0.4619942-0.2113533 c0.1339836-0.036869,0.254673-0.0432167,0.3620605-0.0190392s0.2083321,0.079483,0.3026237,0.1661186 c0.1533241,0.1407356,0.2212257,0.3113899,0.2038956,0.5119629c-0.0175285,0.200676-0.1184692,0.4015503-0.3034286,0.602829 c-0.122097,0.1329765-0.2591019,0.232708-0.4108162,0.298996s-0.2994003,0.0905647-0.4428558,0.072834 c-0.1436539-0.0177269-0.2730026-0.0795822-0.3884506-0.1855621l0.2935562-0.3195457 c0.1043663,0.0959015,0.2169914,0.1355934,0.3374786,0.119175c0.1206856-0.0164223,0.2401657-0.0891571,0.3586349-0.2179031 c0.1019478-0.1112137,0.156147-0.2153816,0.1625938-0.3127975C60.3045616,57.6851311,60.2707138,57.6024208,60.1965675,57.5343208 z"></path> <path class="st2" d="M61.7854424,56.6993866c-0.1660194,0.20541-0.365284,0.3196487-0.5977936,0.342617 c-0.2325058,0.0230713-0.4563522-0.0522842-0.6715317-0.2262611l-0.0398941-0.0323372 c-0.1440582-0.1163559-0.2504387-0.2481232-0.3187408-0.3954048c-0.0685043-0.1471825-0.093689-0.2964783-0.0755539-0.4479904 c0.0179291-0.151516,0.0769653-0.2890244,0.176899-0.412632c0.1587639-0.1964455,0.3441277-0.2976875,0.5560837-0.3035316 c0.2119598-0.0057411,0.432579,0.0840187,0.6620636,0.2693787l0.1307602,0.1056786l-0.7621994,0.9429283 c0.1271362,0.0865326,0.2534637,0.1229019,0.3793869,0.1091003c0.1257248-0.0137024,0.2313004-0.0734406,0.3167305-0.1793175 c0.120079-0.1484909,0.1577568-0.3179359,0.1132317-0.5082359l0.3078613-0.0399933 c0.0394897,0.1274376,0.0441246,0.2587013,0.0136986,0.3935928C61.946022,56.45187,61.8823547,56.5794067,61.7854424,56.6993866z M60.5177269,55.7389297c-0.0717239,0.0888557-0.0987244,0.1858673-0.0805893,0.2908401 c0.0179291,0.104969,0.0763588,0.2099419,0.1752853,0.3148117l0.4990692-0.6174355l-0.0239792-0.0194435 c-0.1142387-0.0804901-0.2196121-0.1179657-0.3161201-0.1121254 C60.674881,55.6013222,60.5902596,55.6490707,60.5177269,55.7389297z"></path> <path class="st2" d="M61.8470955,54.1155052c-0.0396919,0.0389862-0.0767632,0.0820007-0.1112175,0.1291466 c-0.1124268,0.1542358-0.1291504,0.3012161-0.0499687,0.44104l1.0253334,0.7477951l-0.2456017,0.3366737l-1.4990158-1.0933304 l0.2343216-0.3214645l0.1736755,0.1139374c-0.070919-0.1762962-0.0537949-0.3364716,0.0513802-0.4805298 c0.0348549-0.0480537,0.0703163-0.0830116,0.1061783-0.1049728L61.8470955,54.1155052z"></path> <path class="st2" d="M63.1682014,53.8471336L62.2754402,52.78936l0.2365379-0.359539l1.1963921,1.5572395L63.50951,54.2893829 l-1.9064064-0.4787178l0.2377472-0.3609505L63.1682014,53.8471336z"></path> <path class="st2" d="M62.2200356,51.9658127c-0.0548019-0.0329437-0.0900612-0.0776711-0.1053734-0.1342888 c-0.0155144-0.0565147-0.00383-0.1171608,0.0350571-0.1818352c0.0388832-0.0646744,0.0870399-0.1038628,0.1444588-0.117363 c0.0574226-0.0135002,0.113636-0.0038261,0.168438,0.0291138c0.053997,0.0323372,0.0882492,0.0768661,0.1027565,0.1336823 c0.0147095,0.0567169,0.0026207,0.1174622-0.0362663,0.1821404c-0.038887,0.0646744-0.0866356,0.1037598-0.1432533,0.1170578 C62.3292389,52.0077171,62.2740326,51.9981499,62.2200356,51.9658127z M64.452034,52.7887573l-0.2143784,0.3573265 l-1.5910873-0.9544144l0.2143745-0.3573227L64.452034,52.7887573z"></path> <path class="st2" d="M64.820137,51.5302124c0.0495682-0.0914726,0.06427-0.181839,0.0435181-0.2709923 c-0.020546-0.0891571-0.0689011-0.1570549-0.1450653-0.2035942l0.1871796-0.3451385 c0.0993271,0.0590363,0.1768951,0.1420441,0.2327042,0.2490311s0.0818024,0.2251549,0.0779724,0.3544044 c-0.0038223,0.1293488-0.037674,0.2527542-0.1013412,0.3703194c-0.1237106,0.2281761-0.2955704,0.3690109-0.5157928,0.4225044 c-0.2202148,0.0535927-0.4605789,0.0097733-0.7208939-0.1313667l-0.0376778-0.0204506 c-0.2482224-0.1345863-0.4110184-0.3086662-0.4881859-0.5222359c-0.0773659-0.2135696-0.0537949-0.4349937,0.0703163-0.6640778 c0.105175-0.193924,0.2474174-0.3213615,0.4267349-0.3822098c0.1793175-0.0607452,0.3624611-0.044323,0.5496407,0.049366 l-0.1871796,0.3452339c-0.0957031-0.0466423-0.1897888-0.0564156-0.2824707-0.0293159 c-0.0928841,0.0270996-0.1642075,0.0868378-0.2143745,0.1793175c-0.0642738,0.1185722-0.0709229,0.2333145-0.0199471,0.3442307 c0.0511742,0.1109161,0.1638031,0.2142754,0.3380814,0.3100777l0.0588303,0.0319328 c0.1769028,0.0959053,0.3262024,0.135498,0.4476929,0.1188736C64.6613693,51.7194023,64.7548599,51.650795,64.820137,51.5302124z"></path> <path class="st2" d="M66.0054474,49.9093018c-0.1120224,0.2392578-0.2780457,0.3979225-0.4980621,0.4760971 c-0.2202148,0.0780754-0.4555435,0.0586319-0.7061844-0.0586281l-0.0467453-0.0217628 c-0.1676331-0.078476-0.3024216-0.1809273-0.4041672-0.3073578c-0.1017532-0.1264267-0.1621933-0.2653465-0.1809311-0.4168625 c-0.0187378-0.15131,0.0054398-0.298996,0.072731-0.442955c0.106987-0.228878,0.2627335-0.3715286,0.4670334-0.4281425 c0.2045059-0.0564156,0.4402313-0.0222664,0.7073975,0.1026535l0.1523209,0.0712242l-0.5135727,1.0982666 c0.1440582,0.0534935,0.2754211,0.0584297,0.3942947,0.0149117c0.1188736-0.0435219,0.2069168-0.1268349,0.2645416-0.2501373 c0.0809937-0.1728706,0.0769653-0.346447-0.012085-0.5205269l0.2893219-0.1127281 c0.0691071,0.1143417,0.1049728,0.2405663,0.1077957,0.3787842C66.1019516,49.630455,66.0707245,49.769474,66.0054474,49.9093018z M64.5443115,49.2809868c-0.0483551,0.1035614-0.051178,0.2042007-0.008667,0.3017159 c0.042717,0.0976181,0.1247177,0.185463,0.2460098,0.2636375l0.3362732-0.7192841L65.08992,49.1139603 c-0.1301575-0.0507736-0.2413712-0.0617561-0.3338547-0.0330429 C64.6637878,49.109726,64.5932693,49.1764183,64.5443115,49.2809868z"></path> <path class="st2" d="M66.3735504,45.660183c0.2304916,0.0817032,0.4188766,0.193222,0.5645447,0.3345604 c0.145874,0.1414375,0.2391586,0.3027229,0.2798615,0.4838524c0.0406952,0.1812325,0.0267944,0.368309-0.0415039,0.5611229 c-0.0674973,0.1908035-0.1742859,0.3442307-0.3203583,0.4604836s-0.3197479,0.1845551-0.5210266,0.2048035 c-0.2010803,0.0203514-0.41465-0.0088615-0.6403046-0.0875397l-0.13237-0.0469475 c-0.2296906-0.081295-0.4178696-0.1937218-0.5645523-0.3373795c-0.1468735-0.1435547-0.2407684-0.3058434-0.2814636-0.4870758 c-0.0407028-0.1811333-0.0271988-0.3677025,0.0409012-0.5595131c0.067894-0.1918068,0.1740799-0.3455353,0.3187408-0.4610863 c0.1446609-0.115448,0.3177338-0.1830444,0.5192108-0.2025871c0.201683-0.0196457,0.4174652,0.0106773,0.6473541,0.0909691 L66.3735504,45.660183z M66.1057816,46.0256691c-0.2607117-0.0923767-0.4781113-0.1139374-0.6519852-0.0645752 c-0.1740799,0.0494652-0.2929535,0.1646118-0.3572311,0.3456421c-0.0624542,0.176796-0.042305,0.3394928,0.0608521,0.4881859 c0.1033554,0.1487923,0.2810593,0.2690773,0.5335159,0.3608513l0.1358032,0.0481529 c0.2586975,0.0915718,0.4764938,0.1120224,0.6531982,0.0612488c0.1768951-0.0507736,0.2969818-0.1656151,0.3604431-0.3445282 c0.0640717-0.1810303,0.0443268-0.3447342-0.0590286-0.4911079c-0.103363-0.1463776-0.2875137-0.2665596-0.5526657-0.3603477 L66.1057816,46.0256691z"></path> <path class="st2" d="M66.4726791,44.2460938c-0.0239792,0.0501709-0.0441284,0.10326-0.0604477,0.1592712 c-0.0529861,0.1833458-0.0185318,0.3273048,0.1035614,0.4316711l1.218956,0.3527908l-0.1158524,0.4002419l-1.7822876-0.5158882 l0.110611-0.3821068l0.2022858,0.0477486c-0.1269302-0.1414375-0.1656189-0.2977867-0.1160507-0.4691467 c0.0165176-0.0570183,0.0380783-0.1020508,0.064064-0.1349907L66.4726791,44.2460938z"></path> <path class="st2" d="M67.0402451,44.2129517c-0.2804565-0.0659828-0.4887848-0.1846581-0.6253891-0.3559151 c-0.1364059-0.171257-0.1789169-0.3659897-0.1275406-0.5840912c0.0483551-0.2058105,0.158165-0.3508759,0.3296204-0.4350967 l-0.1777039-0.0611496l0.0860367-0.3655853l1.7510605,0.4121284c0.2369385,0.055809,0.4065857,0.1735764,0.5087357,0.3531952 c0.10215,0.179718,0.1239166,0.3946991,0.0648804,0.6450386c-0.0310287,0.132473-0.0890579,0.2553749-0.1738815,0.3687096 c-0.0848236,0.1133308-0.1795197,0.1923103-0.2838821,0.2370415l-0.1986618-0.2493324 c0.1773071-0.0897598,0.2875137-0.2259598,0.3304291-0.4084015c0.0318375-0.1346893,0.0203476-0.2495308-0.0342484-0.3446312 c-0.0546036-0.0949974-0.1525269-0.1591682-0.2937622-0.1924133l-0.1218948-0.0287094 c0.1027527,0.14748,0.1311646,0.3186378,0.085228,0.5133705c-0.0497665,0.2114525-0.1744843,0.3643761-0.3739471,0.4589729 C67.5856552,44.2705765,67.3372269,44.2828674,67.0402451,44.2129517z M67.1704025,43.8172455 c0.1813354,0.0427132,0.3328476,0.0392876,0.4541397-0.0101738c0.1214905-0.0495644,0.1976471-0.1399307,0.2286758-0.2712936 c0.0384827-0.1636047-0.0030212-0.3013153-0.1247101-0.4133377l-0.7946396-0.1870766 c-0.1549377,0.0446281-0.2516479,0.1486931-0.2901306,0.3122978c-0.0314331,0.1334801-0.0030212,0.249733,0.0854263,0.3485603 C66.8174133,43.6951485,66.9644928,43.7687874,67.1704025,43.8172455z"></path> <path class="st2" d="M68.6202545,41.2318497c-0.0380783,0.0120888-0.0977173,0.0181351-0.1789093,0.0181351 c0.1140366,0.1540298,0.1549377,0.3256912,0.1226959,0.5149803c-0.0314255,0.1837502-0.1093979,0.324688-0.2341156,0.4228096 c-0.1245193,0.0982208-0.2641449,0.1340828-0.4184799,0.1077919c-0.1950302-0.0333481-0.3322372-0.1312675-0.4116211-0.2938614 c-0.0795822-0.1625938-0.0963058-0.378582-0.0503693-0.6478577l0.0429153-0.2519531l-0.1198807-0.0204506 c-0.094696-0.0161171-0.175087-0.0026169-0.2409744,0.0405998c-0.0658798,0.0433197-0.1081924,0.1189728-0.1265259,0.227169 c-0.0161209,0.093586-0.0058441,0.1741791,0.0308228,0.2418785c0.0364685,0.0676956,0.0908737,0.1076889,0.163002,0.120079 l-0.0701141,0.4107208c-0.1003418-0.017128-0.188385-0.066391-0.2643433-0.147789s-0.1291504-0.183548-0.1591721-0.3063507 s-0.0330429-0.2546692-0.0090637-0.395607c0.0366669-0.2140694,0.1196747-0.3756561,0.2490311-0.4845581 c0.1293488-0.1090012,0.2917404-0.1484909,0.487381-0.1186714l0.8248596,0.1408348 c0.1644058,0.0281067,0.2995987,0.0275002,0.4055786-0.0020142l0.0288086,0.0049362L68.6202545,41.2318497z M68.2473145,41.6326942c0.0139008-0.0811958,0.0072556-0.160881-0.0201492-0.2391548 c-0.0271988-0.0782776-0.0709152-0.14114-0.1311569-0.1885872l-0.3449402-0.0588303l-0.0378723,0.2214241 c-0.025795,0.1521187-0.0189438,0.2709923,0.0209503,0.35672c0.0398941,0.0856323,0.1081924,0.1368065,0.2051086,0.1533279 c0.0789795,0.0133972,0.1462708-0.0020142,0.2018814-0.0464401 C68.1969452,41.7867279,68.2322083,41.7205391,68.2473145,41.6326942z"></path> <path class="st2" d="M66.9520035,39.7662811l0.2143707,0.0110817c-0.1501007-0.154232-0.2131653-0.3421135-0.1891861-0.5637398 c0.0415039-0.3842239,0.2826767-0.5558853,0.7233124-0.5151863l1.218956,0.1318703l-0.0447311,0.4142418l-1.1951828-0.1292496 c-0.1170578-0.0125923-0.2065125,0.0033264-0.2681656,0.0477524c-0.0618591,0.0445251-0.0989304,0.1242104-0.1112213,0.2389565 c-0.0181274,0.1670265,0.0439224,0.2997017,0.1863708,0.3979225l1.312645,0.1419411l-0.0447311,0.4142456l-1.8447495-0.1994667 L66.9520035,39.7662811z"></path> <path class="st2" d="M66.6169357,38.188694c-0.0638657-0.0040321-0.1156464-0.0276031-0.1553421-0.0708237 c-0.0396881-0.0431137-0.0572205-0.1023483-0.0523834-0.1777039c0.0046387-0.0752525,0.0294189-0.1321716,0.0741501-0.1705513 c0.0449295-0.0383835,0.0993271-0.0556107,0.1631927-0.0515823c0.0626602,0.0039291,0.1136398,0.0277061,0.1527252,0.0714264 s0.0562134,0.103157,0.0513763,0.1785126c-0.004631,0.0752525-0.0290146,0.1318665-0.0733414,0.1697464 C66.7331924,38.1755981,66.6795959,38.1926231,66.6169357,38.188694z M68.977478,37.8935242l-0.0261917,0.4159546 l-1.851799-0.1163521l0.0261917-0.4158554L68.977478,37.8935242z"></path> <path class="st2" d="M68.6853333,36.9239006l0.020752-0.9875565l0.3326492,0.0069504l-0.0316391,1.5052605l-0.2725983-0.0056419 l-1.2266159-0.9674072l-0.0195389,0.9240875l-0.3358688-0.0070496l0.030426-1.4521675l0.2639389,0.0055389L68.6853333,36.9239006z "></path> <path class="st2" d="M68.9952087,34.4240341c-0.0346527,0.0195427-0.0918732,0.0376778-0.171257,0.0541992 c0.1430511,0.127636,0.217804,0.2873116,0.2246552,0.4793205c0.0068436,0.1861687-0.0409012,0.3400993-0.1428528,0.4614906 c-0.10215,0.1214943-0.2313004,0.1850586-0.3878479,0.1907005c-0.1976547,0.0070534-0.3519897-0.0609474-0.4630051-0.2039986 c-0.1108093-0.142952-0.171257-0.3509789-0.1811295-0.6240845l-0.0090637-0.2553749l-0.1216965,0.0044327 c-0.0959015,0.0034218-0.1718597,0.0330391-0.2276764,0.0887489c-0.055603,0.0558128-0.0815964,0.1385193-0.0777664,0.2482262 c0.0034256,0.0947952,0.0300217,0.1716614,0.0795822,0.2304916c0.0495682,0.0588341,0.1110153,0.0869408,0.1839523,0.0843201 l0.0149078,0.4164581c-0.1015472,0.0036278-0.1978531-0.0265923-0.2889175-0.0908661 c-0.0908737-0.0642738-0.1636047-0.1534271-0.2180023-0.2676659c-0.0544052-0.1141396-0.0842209-0.2425842-0.0892563-0.3854332 c-0.0078583-0.2169952,0.0404968-0.3920784,0.1450653-0.5250549c0.1043625-0.1330795,0.2554779-0.2048073,0.4529266-0.2152824 l0.8363419-0.0300217c0.1668243-0.0059433,0.298996-0.0341492,0.3967133-0.0845222l0.0292206-0.0011063L68.9952087,34.4240341z M68.711731,34.8923759c-0.0028229-0.0823059-0.025589-0.1589699-0.068306-0.2300911 c-0.042511-0.0711212-0.0981216-0.1237106-0.1668243-0.1578598l-0.3497696,0.0124931l0.0080566,0.2245483 c0.0056458,0.154232,0.0366745,0.2691765,0.0930862,0.3449326c0.0564117,0.0758591,0.1337814,0.1119232,0.2321091,0.1083984 c0.0799866-0.0028229,0.1426468-0.0317345,0.188179-0.0865364S68.7149506,34.9814301,68.711731,34.8923759z"></path> <path class="st2" d="M66.6012192,33.2325821l0.4495087-0.0378799l-0.0276031-0.3263969l0.3076553-0.0258904l0.0274048,0.3263969 l1.0321808-0.086937c0.0707245-0.0059433,0.1204834-0.0241776,0.1492996-0.0547028 c0.0290146-0.0306244,0.0404968-0.0818024,0.0344543-0.1535301c-0.0040283-0.0478516-0.0137024-0.0958023-0.0292206-0.1437531 l0.321167-0.0270996c0.0342484,0.0923767,0.0550003,0.1823387,0.0622559,0.2700844 c0.0269928,0.318943-0.1355972,0.4933243-0.487587,0.5229416l-1.047493,0.0882492l0.025589,0.3041344l-0.307663,0.0258904 l-0.025589-0.3041344l-0.449295,0.0378761L66.6012192,33.2325821z"></path> <path class="st2" d="M66.509346,32.6147423c-0.0636673,0.0074539-0.1188736-0.0064468-0.1656113-0.0419083 c-0.0467453-0.0353584-0.0745544-0.0904655-0.0832138-0.1654167c-0.0088654-0.0749512,0.0054398-0.1352921,0.042511-0.1811295 c0.0372772-0.0458374,0.0876465-0.0724335,0.1513138-0.0798874c0.0624542-0.0073547,0.1168594,0.0070534,0.1629944,0.0430145 c0.0463409,0.035965,0.0737457,0.0914726,0.0826111,0.1664238c0.0086594,0.0749512-0.0052414,0.1349907-0.0419083,0.1801224 C66.6213684,32.5811958,66.5718079,32.6073875,66.509346,32.6147423z M68.7790222,31.9030132l0.0485611,0.4138393 l-1.8427429,0.2161903l-0.0485535-0.4138412L68.7790222,31.9030132z"></path> <path class="st2" d="M67.7994232,31.611269c-0.1793137,0.0295162-0.3467484,0.0205517-0.5022888-0.0268974 s-0.2824707-0.1291485-0.3807983-0.2451c-0.0985184-0.1158524-0.1613846-0.2572918-0.1887817-0.4242172 c-0.0407028-0.2471161,0.0060425-0.4606857,0.1398239-0.6408081c0.1337814-0.1801243,0.3310318-0.2978878,0.5917511-0.3534966 l0.0963058-0.0176296c0.1803207-0.0296173,0.3473511-0.0214577,0.5008774,0.02458s0.2798538,0.1272354,0.3789825,0.2436905 c0.0991287,0.116354,0.1623993,0.2591038,0.1902008,0.4283466c0.042511,0.2583981-0.0094681,0.4792213-0.1561508,0.662569 c-0.1464767,0.1833458-0.3630676,0.2985935-0.6495667,0.3456383L67.7994232,31.611269z M67.7673874,31.1943054 c0.188385-0.0309277,0.329628-0.0940914,0.4233093-0.1894913c0.093895-0.0953007,0.1293564-0.2123604,0.1065903-0.351181 c-0.0227737-0.1387196-0.094696-0.2378464-0.2155838-0.2972832c-0.1210938-0.0595379-0.2859039-0.0721302-0.4946365-0.037878 c-0.1849594,0.0304222-0.3251877,0.0942917-0.4202881,0.1916065c-0.0952988,0.0973148-0.1317673,0.2142754-0.1091995,0.3507767 c0.0219574,0.1341858,0.0928802,0.2321053,0.2123566,0.293457C67.3896179,31.2158642,67.5554352,31.2291622,67.7673874,31.1943054 z"></path> <path class="st2" d="M66.4674377,29.3540859l0.2061157-0.0597382c-0.192215-0.096611-0.3133011-0.2534637-0.363266-0.4707584 c-0.0864334-0.3765678,0.085022-0.6177387,0.5147781-0.7235165l1.1949844-0.2746181l0.0932846,0.4060841l-1.171608,0.2692776 c-0.1148453,0.0262947-0.1940308,0.0706196-0.2377472,0.1328773c-0.0437241,0.0622578-0.0527878,0.1497002-0.0268021,0.2622261 c0.0374756,0.1638031,0.1396255,0.268774,0.3062515,0.3149128l1.2868576-0.2957726l0.093483,0.4061852l-1.8084869,0.4155521 L66.4674377,29.3540859z"></path> <path class="st2" d="M67.1089554,26.4672775c-0.0713272,0.0209541-0.1170654,0.0662861-0.1370087,0.1358986 c-0.0199432,0.0697117-0.0241776,0.1766968-0.0126953,0.3210583c0.0114899,0.1444607,0.008667,0.2685738-0.008461,0.3725376 c-0.037674,0.2279739-0.1480865,0.3689098-0.3314362,0.4228058c-0.1535263,0.0452328-0.3008118,0.0183334-0.4420471-0.0807934 c-0.141037-0.0990276-0.2411728-0.2484264-0.2998047-0.4479923c-0.0626602-0.2127628-0.0606384-0.4001389,0.0060501-0.5622311 c0.0666885-0.1619892,0.1839523-0.267767,0.3517838-0.3171291l0.1176605,0.3997364 c-0.0767593,0.0225658-0.1321716,0.0699139-0.16642,0.141943s-0.0374756,0.155241-0.0096741,0.2495327 c0.025795,0.0877457,0.0670929,0.1533279,0.124115,0.1967468c0.0568161,0.04352,0.119278,0.0552044,0.1871719,0.0351582 c0.0614548-0.0180321,0.1015472-0.0578251,0.120491-0.1193771c0.0187378-0.061552,0.0223618-0.1758919,0.0106735-0.3428192 c-0.0114822-0.1670265-0.0066452-0.3022194,0.0147095-0.4056797c0.0213547-0.1033592,0.0592346-0.1865711,0.1134338-0.2496338 c0.0539932-0.0629635,0.1289444-0.1085987,0.2242508-0.1366043c0.1601715-0.0471458,0.3094711-0.01894,0.4476852,0.0845203 s0.2391586,0.2627316,0.3024216,0.4776096c0.0429153,0.1458721,0.0548019,0.2835827,0.0356598,0.4131355 c-0.0189362,0.1295509-0.0652771,0.2397614-0.1386185,0.3304272c-0.0735397,0.0907669-0.1633987,0.1517143-0.2697754,0.1830444 l-0.1142426-0.3882523c0.0926819-0.0332432,0.1549377-0.0902634,0.1865692-0.1710567s0.0314331-0.1754894-0.0006027-0.2840862 c-0.0308304-0.1052742-0.0745468-0.1794186-0.1305618-0.2225361 C67.2340698,26.4602261,67.1736298,26.4482365,67.1089554,26.4672775z"></path> </g> <g> <path class="st2" d="M23.004221,28.0741825h-5.0793152l-1.1526699,3.1428909h-0.9912825l4.234107-11.1884003h0.899107 l4.234005,11.1884003H24.164547L23.004221,28.0741825z M18.2169514,27.2750111h4.487669l-2.243885-6.0936699 L18.2169514,27.2750111z"></path> <path class="st2" d="M27.7879677,31.2170734H26.842823V20.0286732h0.9451447V31.2170734z"></path> <path class="st2" d="M38.5885162,27.7283421c-0.1281395,1.1783562-0.5494347,2.0799809-1.2640877,2.7049732 c-0.7146492,0.6249905-1.6663399,0.9374866-2.8547707,0.9374866c-0.8298988,0-1.5636902-0.2075233-2.2015762-0.6224728 c-0.637785-0.4149494-1.130909-1.0027676-1.479166-1.7635574c-0.3484612-0.760788-0.5251598-1.6302757-0.5301952-2.6088657 v-1.4522705c0-0.9938011,0.174078-1.8749752,0.522438-2.6434212c0.3483582-0.7684441,0.8491383-1.3612995,1.5023384-1.7789688 c0.6531982-0.4174671,1.4049187-0.6262016,2.2553673-0.6262016c1.1987076,0,2.1450615,0.3226719,2.8393631,0.968214 c0.6940994,0.645443,1.0975609,1.5395107,1.210289,2.6818027h-0.9528999 c-0.23563-1.9005623-1.2679138-2.8508453-3.0967522-2.8508453c-1.0143509,0-1.8224869,0.3793888-2.4244118,1.1381626 c-0.6020222,0.7588749-0.9029331,1.8072777-0.9029331,3.1453075v1.3689575c0,1.291893,0.2932549,2.322464,0.8798656,3.0914135 c0.5865097,0.7690487,1.3793335,1.153574,2.378273,1.153574c0.9886627,0,1.7340393-0.2369404,2.2361259-0.7108212 c0.5020905-0.4737816,0.8119659-1.1846046,0.9298325-2.1324673H38.5885162z"></path> <path class="st2" d="M41.6738853,26.6602955v4.556778h-0.9452438V20.0286732h3.8115005 c1.1628456,0,2.081089,0.297184,2.7546387,0.8913498c0.6737518,0.5943661,1.0106239,1.4114685,1.0106239,2.4513092 c0,1.0503159-0.3241806,1.8609715-0.9721413,2.432169c-0.6480598,0.5711956-1.5867577,0.8567944-2.8161888,0.8567944H41.6738853z M41.6738853,25.861124h2.8662567c0.9169388,0,1.6161766-0.2181034,2.0978127-0.6542072 c0.4814377-0.4360027,0.7223091-1.0440693,0.7223091-1.8239994c0-0.7746925-0.239563-1.3916245-0.7184792-1.8508987 c-0.4791222-0.459074-1.1591187-0.6937981-2.0401917-0.704174h-2.9277077V25.861124z"></path> <path class="st2" d="M55.2405586,28.0741825h-5.079319l-1.152668,3.1428909h-0.9912834l4.234108-11.1884003h0.8992081 L57.38451,31.2170734h-0.9836273L55.2405586,28.0741825z M50.4533882,27.2750111h4.4875679l-2.243885-6.0936699 L50.4533882,27.2750111z"></path> <path class="st2" d="M29.3901386,46.6372643c0-0.6197548-0.2178001-1.1103592-0.6532001-1.4715118 c-0.4354992-0.3611526-1.232151-0.7043762-2.3897572-1.0297661c-1.1578064-0.3251877-2.0031166-0.6799965-2.5358295-1.0642204 c-0.7582703-0.5429878-1.1373558-1.2551193-1.1373558-2.1362915c0-0.8554878,0.3521881-1.5508957,1.0566635-2.0862274 c0.7042732-0.5353355,1.6046886-0.8030014,2.7010441-0.8030014c0.7426548,0,1.4074402,0.1434555,1.9940491,0.4302597 c0.5865097,0.2870102,1.0412502,0.6865463,1.3639202,1.1988106c0.322773,0.5122604,0.4841576,1.0834579,0.4841576,1.7135887 h-0.9528999c0-0.7655258-0.261219-1.3809471-0.7837582-1.8459625s-1.2243958-0.697525-2.1054688-0.697525 c-0.855587,0-1.5368919,0.1911049-2.0440178,0.5734138c-0.5072269,0.382309-0.7607899,0.8811722-0.7607899,1.4968987 c0,0.5695839,0.2278748,1.0339966,0.6839256,1.3931351c0.4558487,0.3592377,1.1859131,0.6760635,2.1899891,0.9505806 c1.0039768,0.2744179,1.7647648,0.5590096,2.2822685,0.8535728c0.5174007,0.2945633,0.9067612,0.6467514,1.1679802,1.0565605 c0.2613201,0.4099121,0.3919792,0.8940697,0.3919792,1.4523735c0,0.8811722-0.3522873,1.5880661-1.0566635,2.1208801 c-0.7043743,0.532814-1.6328964,0.7991714-2.7855644,0.7991714c-0.7889957,0-1.5126133-0.141037-2.1708488-0.4227066 c-0.6583366-0.2816696-1.1578064-0.6761665-1.4984093-1.1833916c-0.3407021-0.5071259-0.5109539-1.0884972-0.5109539-1.7443161 h0.9451447c0,0.7889977,0.2944641,1.4113693,0.8836918,1.8673172c0.5890274,0.4559517,1.3728867,0.6839256,2.3513756,0.6839256 c0.8708992,0,1.5701351-0.192112,2.0978127-0.5763359C29.1261997,47.7822762,29.3901386,47.2725296,29.3901386,46.6372643z"></path> <path class="st2" d="M40.4902878,44.4011345c0,1.0296631-0.1780052,1.9339066-0.5340233,2.7125282 c-0.3561134,0.7788239-0.8644485,1.3782272-1.5253029,1.7982101c-0.6608582,0.4200859-1.4242668,0.6301308-2.2900276,0.6301308 c-1.3062973,0-2.3616486-0.4674339-3.1658592-1.4024048c-0.804409-0.9348679-1.2064629-2.196434-1.2064629-3.7846031v-1.1525688 c0-1.0193901,0.1805267-1.9223213,0.5416794-2.7088013c0.3612556-0.786274,0.8722076-1.3908157,1.5330658-1.8134232 c0.6608543-0.4227028,1.4216423-0.6339569,2.2822647-0.6339569s1.6201019,0.2074242,2.2784424,0.6223717 c0.6581345,0.4149513,1.1666679,1.0016594,1.5253029,1.7597313c0.3585358,0.7582703,0.5456085,1.6367226,0.5609207,2.6357613 V44.4011345z M39.5451469,43.1870155c0-1.3472977-0.3048401-2.4025536-0.9144211-3.1659622 c-0.6096764-0.7632065-1.4447136-1.1449089-2.5051041-1.1449089c-1.0400391,0-1.8686256,0.3830109-2.4858627,1.1487389 c-0.6174355,0.7659264-0.9260025,1.8353844-0.9260025,3.208271v1.1679802c0,1.3268471,0.3073578,2.378273,0.9221764,3.1544762 c0.6147156,0.7761002,1.4496498,1.1641502,2.5050011,1.1641502c1.0706673,0,1.9058037-0.3829117,2.5051079-1.148838 c0.5994034-0.7658272,0.8991051-1.8326645,0.8991051-3.2005157V43.1870155z"></path> <path class="st2" d="M50.6375389,45.8995438c-0.1281395,1.1783562-0.5494347,2.0799789-1.2640877,2.7049713 c-0.7146492,0.6249924-1.6662407,0.9374886-2.8546715,0.9374886c-0.829895,0-1.5636864-0.2075233-2.2015762-0.6224747 c-0.6377831-0.4149475-1.1309052-1.0027657-1.4791641-1.7635536c-0.3484612-0.7607918-0.5251579-1.6302795-0.5301971-2.6088676 v-1.4522705c0-0.9938011,0.1740799-1.8749733,0.522438-2.6434212c0.348362-0.7684441,0.8491402-1.3613014,1.5023384-1.7789688 c0.6531982-0.417469,1.4049225-0.6262016,2.2553711-0.6262016c1.1986046,0,2.1449585,0.32267,2.8392601,0.9682121 c0.6940994,0.645443,1.0976639,1.5395126,1.210289,2.6818047h-0.9528008 c-0.2357292-1.9005623-1.2679138-2.8508453-3.0967484-2.8508453c-1.0143547,0-1.8224907,0.3793869-2.4244118,1.1381607 c-0.6020241,0.7588768-0.902935,1.8072777-0.902935,3.1453094v1.3689575c0,1.291893,0.2932549,2.322464,0.8798637,3.0914116 c0.5865097,0.7690506,1.3793335,1.1535759,2.378273,1.1535759c0.9885635,0,1.7340393-0.2369423,2.2361298-0.7108231 c0.5020866-0.4737816,0.8119659-1.1846008,0.9298286-2.1324654H50.6375389z"></path> </g> <g> <path class="st2" d="M58.0812263,34.9488907H15.4350119c-0.0530901,0-0.0961056-0.0430183-0.0961056-0.0961075 s0.0430155-0.0961037,0.0961056-0.0961037h42.6462135c0.05299,0,0.0961075,0.0430145,0.0961075,0.0961037 S58.1342163,34.9488907,58.0812263,34.9488907z"></path> </g> <g> <path class="st2" d="M22.4359474,55.8671722c-0.0212574-0.042511-0.0385838-0.1182671-0.0518818-0.2272682 c-0.1714592,0.1781082-0.3761635,0.2671623-0.6141109,0.2671623c-0.2126637,0-0.387146-0.0601425-0.5233459-0.1804237 c-0.136301-0.120285-0.204401-0.2728043-0.204401-0.4576645c0-0.2245483,0.0854263-0.3990326,0.2562828-0.5233459 c0.1707535-0.1243134,0.4110184-0.1864662,0.7207947-0.1864662h0.3588371v-0.169445 c0-0.1289482-0.0385838-0.2316017-0.1156502-0.3080635c-0.0770664-0.0763626-0.1907005-0.1146431-0.3409042-0.1146431 c-0.1316681,0-0.2419777,0.0332451-0.3310318,0.0997314c-0.0890541,0.0664902-0.1335812,0.1468811-0.1335812,0.241272h-0.3708248 c0-0.1076889,0.0381794-0.2117538,0.1146412-0.3120918c0.0763626-0.100338,0.1801243-0.1797218,0.3109856-0.2382507 c0.1309624-0.0585289,0.2748184-0.0877457,0.4316711-0.0877457c0.2486267,0,0.4433575,0.0621567,0.5842934,0.18647 c0.1408348,0.1243134,0.2139721,0.295372,0.2193108,0.5133743v0.9929924c0,0.1980553,0.0251846,0.3555145,0.0757561,0.4724731 v0.0319328H22.4359474z M21.8238506,55.58601c0.1156483,0,0.2252541-0.0299225,0.3290157-0.0896606 c0.1036625-0.0598412,0.1787128-0.1376114,0.225256-0.2333145V54.820385h-0.2891254 c-0.4519196,0-0.6778793,0.1322708-0.6778793,0.3968124c0,0.1156502,0.0384827,0.2060165,0.1156502,0.2710915 C21.6038342,55.5534706,21.7028618,55.58601,21.8238506,55.58601z"></path> <path class="st2" d="M23.2251453,53.137619c0-0.0598373,0.0182343-0.1104088,0.0548019-0.1516113 c0.0365696-0.0412025,0.0907669-0.0617561,0.1624947-0.0617561c0.0718269,0,0.1262264,0.0205536,0.1634998,0.0617561 c0.0371742,0.0412025,0.0558109,0.091774,0.0558109,0.1516113c0,0.0597382-0.0186367,0.1096077-0.0558109,0.149498 c-0.0372734,0.0398941-0.0916729,0.0598412-0.1634998,0.0598412c-0.0717278,0-0.1259251-0.0199471-0.1624947-0.0598412 C23.2433796,53.2472267,23.2251453,53.1973572,23.2251453,53.137619z M23.6238747,55.8671722H23.255064v-2.1573486h0.3688107 V55.8671722z"></path> <path class="st2" d="M24.9773178,55.6059532c0.131567,0,0.2465115-0.0398903,0.3449345-0.1195755 c0.0983219-0.0797882,0.1528225-0.1795197,0.1635017-0.299099h0.3488617 c-0.006649,0.1236076-0.04916,0.241272-0.1275368,0.3528938c-0.078476,0.111618-0.1831455,0.2007751-0.3141079,0.2671623 c-0.1308613,0.0664864-0.2694798,0.0997314-0.4156532,0.0997314c-0.2938595,0-0.5273743-0.0980186-0.7008495-0.2941589 c-0.1734734-0.1960411-0.2602119-0.4642105-0.2602119-0.804512v-0.0617523c0-0.2100449,0.0384827-0.3968163,0.1156502-0.560318 c0.0770664-0.1635017,0.1876793-0.2904358,0.3319397-0.3807983c0.1442585-0.0903625,0.3147106-0.1355972,0.5114574-0.1355972 c0.2418766,0,0.4429531,0.0724335,0.6031303,0.2172966c0.1601772,0.1449661,0.2456055,0.3330498,0.2561817,0.5643463H25.485754 c-0.0106792-0.1396255-0.0635681-0.2542686-0.1585655-0.3440247c-0.0949974-0.0896606-0.2123604-0.1345901-0.3518848-0.1345901 c-0.1874771,0-0.3326435,0.0674973-0.4357014,0.2023849c-0.1029568,0.1349945-0.1545353,0.3300247-0.1545353,0.5852013v0.0698128 c0,0.2486267,0.0511761,0.440033,0.1535282,0.5742188C24.6409473,55.5388603,24.7872219,55.6059532,24.9773178,55.6059532z"></path> <path class="st2" d="M27.9697018,54.8124237c0,0.3283119-0.0751514,0.5928574-0.2253551,0.7935295 c-0.1502037,0.2007751-0.3535976,0.3011131-0.6100826,0.3011131c-0.2619228,0-0.4679375-0.0831108-0.6181412-0.2492294v1.0388298 h-0.3688087v-2.9868431h0.3369751l0.0179329,0.2392578c0.1502018-0.1860657,0.3589363-0.2791519,0.6260986-0.2791519 c0.2592049,0,0.4642105,0.0977211,0.6151199,0.2930527c0.1508083,0.1954384,0.2262611,0.4673347,0.2262611,0.8154945V54.8124237z M27.6007919,54.7705154c0-0.243187-0.0517807-0.4352951-0.1554413-0.5762329 c-0.1037636-0.1408348-0.2460079-0.2113533-0.4267349-0.2113533c-0.223341,0-0.3907719,0.0991287-0.5024929,0.2970848v1.0308723 c0.1104126,0.1967468,0.2791519,0.2950668,0.5065212,0.2950668c0.1766987,0,0.3173313-0.0701141,0.4216995-0.2103424 C27.5486088,55.2553787,27.6007919,55.0470467,27.6007919,54.7705154z"></path> <path class="st2" d="M29.6680794,55.8671722c-0.0212555-0.042511-0.0385818-0.1182671-0.0518799-0.2272682 c-0.1714592,0.1781082-0.3761635,0.2671623-0.6141129,0.2671623c-0.2126617,0-0.3871441-0.0601425-0.523344-0.1804237 c-0.136301-0.120285-0.204401-0.2728043-0.204401-0.4576645c0-0.2245483,0.0854263-0.3990326,0.2562828-0.5233459 c0.1707535-0.1243134,0.4110184-0.1864662,0.7207947-0.1864662h0.3588371v-0.169445 c0-0.1289482-0.0385838-0.2316017-0.1156502-0.3080635c-0.0770664-0.0763626-0.1907005-0.1146431-0.3409042-0.1146431 c-0.1316681,0-0.2419777,0.0332451-0.3310318,0.0997314c-0.089056,0.0664902-0.1335831,0.1468811-0.1335831,0.241272H28.318264 c0-0.1076889,0.0381794-0.2117538,0.1146412-0.3120918c0.0763607-0.100338,0.1801243-0.1797218,0.3109856-0.2382507 c0.1309624-0.0585289,0.2748184-0.0877457,0.4316711-0.0877457c0.2486267,0,0.4433575,0.0621567,0.5842934,0.18647 c0.1408348,0.1243134,0.2139721,0.295372,0.2193108,0.5133743v0.9929924c0,0.1980553,0.0251846,0.3555145,0.0757561,0.4724731 v0.0319328H29.6680794z M29.0559826,55.58601c0.1156502,0,0.225256-0.0299225,0.3290176-0.0896606 c0.1036625-0.0598412,0.1787128-0.1376114,0.225256-0.2333145V54.820385h-0.2891254 c-0.4519196,0-0.6778793,0.1322708-0.6778793,0.3968124c0,0.1156502,0.0384827,0.2060165,0.1156502,0.2710915 C28.8359661,55.5534706,28.9349937,55.58601,29.0559826,55.58601z"></path> <path class="st2" d="M30.4631214,55.6737518c0-0.0637665,0.01894-0.1169586,0.056818-0.1594696 c0.037878-0.0425148,0.0946941-0.0638695,0.1704521-0.0638695c0.0757561,0,0.1332779,0.0213547,0.1724663,0.0638695 c0.0391884,0.042511,0.0588322,0.0957031,0.0588322,0.1594696c0,0.0611496-0.0196438,0.1123276-0.0588322,0.1535301 s-0.0967102,0.0618515-0.1724663,0.0618515c-0.075758,0-0.1325741-0.020649-0.1704521-0.0618515 S30.4631214,55.7349014,30.4631214,55.6737518z"></path> <path class="st2" d="M31.3300915,54.7686043c0-0.2113533,0.0415039-0.4014511,0.1246147-0.5702896 c0.0831108-0.1688423,0.198761-0.299099,0.3469486-0.3907738c0.1481895-0.091774,0.3173332-0.1376114,0.5074272-0.1376114 c0.2937584,0,0.5314064,0.1016464,0.7128372,0.3050423c0.1814346,0.2033958,0.2720985,0.4738808,0.2720985,0.8115616v0.0258904 c0,0.2100449-0.0401917,0.3984299-0.1205826,0.5652542c-0.0804939,0.1668243-0.1954384,0.2967796-0.3449364,0.3897629 c-0.1495972,0.0930824-0.3213615,0.1396255-0.5153847,0.1396255c-0.29245,0-0.5293903-0.1017456-0.7108231-0.3050423 c-0.1814327-0.203392-0.2721996-0.4725685-0.2721996-0.8075294V54.7686043z M31.7009144,54.8124237 c0,0.2392578,0.0555096,0.4313698,0.1665249,0.5762329c0.1110153,0.1448669,0.2595062,0.2172966,0.4456749,0.2172966 c0.1873741,0,0.3362694-0.0734367,0.446579-0.2203178c0.1103096-0.1468773,0.1655159-0.3525887,0.1655159-0.6170311 c0-0.2366409-0.0562134-0.4283485-0.1685371-0.5753288c-0.1123238-0.1467781-0.2615204-0.2203178-0.4475899-0.2203178 c-0.1821365,0-0.3290157,0.0725327-0.4406357,0.2173958C31.7568264,54.3352203,31.7009144,54.5425415,31.7009144,54.8124237z"></path> <path class="st2" d="M34.6973305,54.0407562c-0.0558128-0.0092697-0.1163559-0.0139046-0.1814346-0.0139046 c-0.2419777,0-0.4060822,0.1030579-0.4925194,0.3090706v1.53125h-0.3688087v-2.1573486h0.3588371l0.0060425,0.2492332 c0.1208916-0.1927185,0.29245-0.2891273,0.5143814-0.2891273c0.0718269,0,0.1263275,0.0092697,0.1635017,0.0279083V54.0407562z"></path> <path class="st2" d="M34.808548,54.7705154c0-0.3362694,0.0777702-0.6037331,0.2333145-0.802494 c0.1555405-0.1986618,0.3615532-0.2980919,0.6180382-0.2980919c0.2632332,0,0.468544,0.0930862,0.616127,0.2791519 l0.0179329-0.2392578h0.3369751v2.1054688c0,0.2791519-0.0827065,0.4991684-0.2482224,0.6600494 c-0.1655159,0.1607819-0.3878517,0.2411728-0.6670036,0.2411728c-0.1554413,0-0.3076591-0.0332451-0.4565544-0.0996323 c-0.1488914-0.0664902-0.2625275-0.1575584-0.3409042-0.2732086l0.1914062-0.2213249 c0.158165,0.1954346,0.3515854,0.2931519,0.580162,0.2931519c0.1794205,0,0.3193474-0.0505714,0.4196854-0.1515121 c0.1004372-0.1010399,0.1506081-0.2432861,0.1506081-0.4267349v-0.185463 c-0.1475868,0.1702499-0.3489647,0.2552757-0.6041412,0.2552757c-0.2525558,0-0.456955-0.1017456-0.613102-0.3050423 C34.8866196,55.398632,34.808548,55.1214943,34.808548,54.7705154z M35.1793709,54.8124237 c0,0.2432899,0.0498657,0.434391,0.149601,0.5732117c0.0996284,0.1389198,0.2392578,0.2083321,0.4186745,0.2083321 c0.2326088,0,0.4034653-0.1056786,0.5124664-0.3169289v-0.9850388c-0.1130333-0.2060127-0.2824783-0.3090706-0.5084381-0.3090706 c-0.1795197,0-0.3197479,0.0698128-0.4206886,0.2094383C35.2299423,54.3318939,35.1793709,54.5386124,35.1793709,54.8124237z"></path> <path class="st2" d="M37.1589127,56.1164055h-0.317028l1.212307-3.1522598h0.3150139L37.1589127,56.1164055z"></path> <path class="st2" d="M39.9220161,55.2949715c0-0.0997353-0.0375786-0.1771011-0.1126289-0.2323074 c-0.0751534-0.0552063-0.2061157-0.1026535-0.3927841-0.1425476c-0.1867752-0.0398941-0.3349609-0.0877457-0.4446678-0.1435547 c-0.1097069-0.055912-0.1908035-0.1222992-0.2432899-0.1994667c-0.0524826-0.0770645-0.0786781-0.1687393-0.0786781-0.2751198 c0-0.1767998,0.0747528-0.3262978,0.2242508-0.448597c0.1495972-0.1222992,0.3405991-0.1834488,0.5732117-0.1834488 c0.2445946,0,0.4429512,0.0631638,0.5951691,0.1893921c0.1522217,0.1263275,0.2283783,0.2878151,0.2283783,0.4845619h-0.3709221 c0-0.1010437-0.0428162-0.1880836-0.1285477-0.261219c-0.0857277-0.0731392-0.193821-0.1097069-0.3240776-0.1097069 c-0.1341896,0-0.2392578,0.0293159-0.3150177,0.0877457c-0.0757561,0.0585289-0.1136322,0.1349907-0.1136322,0.2292824 c0,0.0891571,0.0352592,0.15625,0.1056747,0.2013817c0.0704193,0.0452309,0.1977539,0.0884476,0.3818054,0.1296501 c0.1841545,0.0412025,0.3333473,0.0903664,0.4476891,0.1475868c0.1142387,0.0571175,0.1989632,0.1259232,0.2541656,0.2063141 c0.0552063,0.0803909,0.0828094,0.1784096,0.0828094,0.2940598c0,0.1928177-0.0771675,0.3473511-0.2313004,0.4636078 c-0.154232,0.1163521-0.3543015,0.1744804-0.6002083,0.1744804c-0.1727676,0-0.3256912-0.0306244-0.4585686-0.091774 c-0.1329765-0.0610466-0.2369423-0.1464767-0.3119926-0.2561836c-0.0751534-0.1096039-0.1127281-0.2282753-0.1127281-0.3559113 h0.3689117c0.006649,0.1236076,0.0561104,0.2217255,0.1484909,0.2941589 c0.0923767,0.0724335,0.2143745,0.1085968,0.3658867,0.1085968c0.1396255,0,0.2515488-0.0282059,0.335968-0.0847206 S39.9220161,55.3893623,39.9220161,55.2949715z"></path> <path class="st2" d="M40.5716858,54.7686043c0-0.2113533,0.0415077-0.4014511,0.1246185-0.5702896 c0.0831108-0.1688423,0.1987572-0.299099,0.3469467-0.3907738c0.1481895-0.091774,0.3173332-0.1376114,0.5074272-0.1376114 c0.2937584,0,0.5314064,0.1016464,0.7128372,0.3050423c0.1814346,0.2033958,0.2721024,0.4738808,0.2721024,0.8115616v0.0258904 c0,0.2100449-0.0401955,0.3984299-0.1205864,0.5652542c-0.0804939,0.1668243-0.1954384,0.2967796-0.3449364,0.3897629 c-0.1495972,0.0930824-0.3213615,0.1396255-0.5153847,0.1396255c-0.29245,0-0.5293884-0.1017456-0.7108231-0.3050423 c-0.1814346-0.203392-0.2722015-0.4725685-0.2722015-0.8075294V54.7686043z M40.9425125,54.8124237 c0,0.2392578,0.0555077,0.4313698,0.166523,0.5762329c0.1110153,0.1448669,0.2595062,0.2172966,0.4456749,0.2172966 c0.1873741,0,0.3362694-0.0734367,0.446579-0.2203178c0.1103134-0.1468773,0.1655159-0.3525887,0.1655159-0.6170311 c0-0.2366409-0.0562134-0.4283485-0.1685371-0.5753288c-0.1123238-0.1467781-0.2615204-0.2203178-0.4475899-0.2203178 c-0.1821365,0-0.3290138,0.0725327-0.4406357,0.2173958C40.9984245,54.3352203,40.9425125,54.5425415,40.9425125,54.8124237z"></path> <path class="st2" d="M43.7615242,55.6059532c0.1315651,0,0.2465096-0.0398903,0.3449326-0.1195755 c0.0983238-0.0797882,0.1528244-0.1795197,0.1635017-0.299099h0.3488617 c-0.006649,0.1236076-0.04916,0.241272-0.1275368,0.3528938c-0.078476,0.111618-0.1831436,0.2007751-0.314106,0.2671623 c-0.1308632,0.0664864-0.2694817,0.0997314-0.4156532,0.0997314c-0.2938614,0-0.5273743-0.0980186-0.7008514-0.2941589 c-0.1734734-0.1960411-0.2602119-0.4642105-0.2602119-0.804512v-0.0617523c0-0.2100449,0.0384827-0.3968163,0.1156502-0.560318 c0.0770683-0.1635017,0.1876793-0.2904358,0.3319397-0.3807983s0.3147125-0.1355972,0.5114555-0.1355972 c0.2418785,0,0.442955,0.0724335,0.6031342,0.2172966c0.1601753,0.1449661,0.2456017,0.3330498,0.2561798,0.5643463h-0.3488617 c-0.0106773-0.1396255-0.0635681-0.2542686-0.1585655-0.3440247c-0.0949974-0.0896606-0.2123604-0.1345901-0.3518867-0.1345901 c-0.1874771,0-0.3326416,0.0674973-0.4356995,0.2023849c-0.1029549,0.1349945-0.1545334,0.3300247-0.1545334,0.5852013v0.0698128 c0,0.2486267,0.0511742,0.440033,0.1535263,0.5742188C43.4251518,55.5388603,43.5714264,55.6059532,43.7615242,55.6059532z"></path> <path class="st2" d="M46.450779,54.8922119h0.4027596v0.3010101H46.450779v0.6739502h-0.3709221V55.193222h-1.3219147v-0.2172966 l1.2999535-2.0117798h0.3928833V54.8922119z M45.1766205,54.8922119h0.9032364v-1.4236603l-0.0438232,0.0797844 L45.1766205,54.8922119z"></path> <path class="st2" d="M48.3783417,55.2949715c0-0.0997353-0.0374756-0.1771011-0.1126289-0.2323074 c-0.0751495-0.0552063-0.2061119-0.1026535-0.3926849-0.1425476c-0.1867714-0.0398941-0.3350601-0.0877457-0.444664-0.1435547 c-0.1098099-0.055912-0.1908035-0.1222992-0.2432899-0.1994667c-0.0524826-0.0770645-0.0786781-0.1687393-0.0786781-0.2751198 c0-0.1767998,0.074749-0.3262978,0.2242508-0.448597c0.149498-0.1222992,0.3404999-0.1834488,0.5732079-0.1834488 c0.2445984,0,0.4428558,0.0631638,0.5951729,0.1893921c0.1521187,0.1263275,0.2282791,0.2878151,0.2282791,0.4845619h-0.3709259 c0-0.1010437-0.0427132-0.1880836-0.1285439-0.261219c-0.0856285-0.0731392-0.1938248-0.1097069-0.3239822-0.1097069 c-0.1341858,0-0.239357,0.0293159-0.3151131,0.0877457c-0.0757561,0.0585289-0.113636,0.1349907-0.113636,0.2292824 c0,0.0891571,0.0352592,0.15625,0.1057777,0.2013817c0.0703163,0.0452309,0.1976509,0.0884476,0.3818054,0.1296501 s0.3332481,0.0903664,0.4476891,0.1475868c0.1142387,0.0571175,0.1988602,0.1259232,0.2540665,0.2063141 s0.0828094,0.1784096,0.0828094,0.2940598c0,0.1928177-0.0771675,0.3473511-0.2313004,0.4636078 c-0.1541328,0.1163521-0.3542023,0.1744804-0.6002083,0.1744804c-0.1726685,0-0.325592-0.0306244-0.4585724-0.091774 c-0.1329765-0.0610466-0.2368393-0.1464767-0.3118896-0.2561836c-0.0751534-0.1096039-0.1127281-0.2282753-0.1127281-0.3559113 h0.3688087c0.006649,0.1236076,0.0562134,0.2217255,0.1484909,0.2941589 c0.0924797,0.0724335,0.2143745,0.1085968,0.3658905,0.1085968c0.1396255,0,0.2516479-0.0282059,0.3360672-0.0847206 S48.3783417,55.3893623,48.3783417,55.2949715z"></path> <path class="st2" d="M49.0281143,54.7686043c0-0.2113533,0.0415077-0.4014511,0.1245155-0.5702896 c0.0832138-0.1688423,0.1988602-0.299099,0.3469505-0.3907738c0.1482887-0.091774,0.3173294-0.1376114,0.5075264-0.1376114 c0.2937584,0,0.5313034,0.1016464,0.7128372,0.3050423c0.1813354,0.2033958,0.2719994,0.4738808,0.2719994,0.8115616v0.0258904 c0,0.2100449-0.0400925,0.3984299-0.1204834,0.5652542c-0.0805931,0.1668243-0.1954384,0.2967796-0.3449364,0.3897629 c-0.1497002,0.0930824-0.3213615,0.1396255-0.5153847,0.1396255c-0.2925491,0-0.5294914-0.1017456-0.7108231-0.3050423 c-0.1815338-0.203392-0.2722015-0.4725685-0.2722015-0.8075294V54.7686043z M49.398838,54.8124237 c0,0.2392578,0.0556107,0.4313698,0.166626,0.5762329c0.1110153,0.1448669,0.2595062,0.2172966,0.4456749,0.2172966 c0.1873741,0,0.3362694-0.0734367,0.4464798-0.2203178c0.1104088-0.1468773,0.1656151-0.3525887,0.1656151-0.6170311 c0-0.2366409-0.0562134-0.4283485-0.1686363-0.5753288c-0.1122246-0.1467781-0.2615242-0.2203178-0.4474907-0.2203178 c-0.1821365,0-0.3290176,0.0725327-0.4406357,0.2173958C49.4548492,54.3352203,49.398838,54.5425415,49.398838,54.8124237z"></path> </g> <g> <path class="st3" d="M66.4902039,64.362587v0.2486267h-0.4807281v1.2542191h-0.2983932v-1.2542191h-0.4807281V64.362587 H66.4902039z M68.1145401,65.8654327l-0.0554047-0.8839951c-0.0054398-0.1160583-0.0054398-0.2597122-0.0108795-0.4198837 h-0.0167236c-0.0386887,0.1325684-0.0828094,0.3093719-0.1269302,0.4474869l-0.2707901,0.8342285h-0.3094788l-0.2705841-0.8562927 c-0.0276031-0.1160507-0.0719299-0.2928543-0.1049728-0.4254227h-0.0167236c0,0.1381073-0.0054398,0.2817688-0.0110779,0.4198837 l-0.0552063,0.8839951h-0.2873154l0.1106186-1.5028458h0.4474869l0.2597046,0.7349014 c0.0330429,0.1159515,0.0606461,0.2264633,0.0993271,0.3812027h0.0056458 c0.038681-0.1381149,0.0717239-0.2652512,0.1049728-0.3757629l0.2597046-0.7403412h0.4309692l0.1158524,1.5028458H68.1145401z"></path> </g> </g> </svg> 